  0
SECTION
  2
HEADER
  9
$ACADVER
  1
AC1014
  9
$HANDSEED
  5
FFFF
  9
$MEASUREMENT
 70
     1
  0
ENDSEC
  0
SECTION
  2
TABLES
  0
TABLE
  2
VPORT
  5
8
330
0
100
AcDbSymbolTable
 70
     4
  0
VPORT
  5
2E
330
8
100
AcDbSymbolTableRecord
100
AcDbViewportTableRecord
  2
*ACTIVE
 70
     0
 10
0.0
 20
0.0
 11
1.0
 21
1.0
 12
210.0
 22
148.5
 13
0.0
 23
0.0
 14
10.0
 24
10.0
 15
10.0
 25
10.0
 16
0.0
 26
0.0
 36
1.0
 17
0.0
 27
0.0
 37
0.0
 40
341.0
 41
1.24
 42
50.0
 43
0.0
 44
0.0
 50
0.0
 51
0.0
 71
     0
 72
   100
 73
     1
 74
     3
 75
     0
 76
     0
 77
     0
 78
     0
  0
ENDTAB
  0
TABLE
  2
LTYPE
  5
5
330
0
100
AcDbSymbolTable
 70
     1
  0
LTYPE
  5
14
330
5
100
AcDbSymbolTableRecord
100
AcDbLinetypeTableRecord
  2
BYBLOCK
 70
     0
  3

 72
    65
 73
     0
 40
0.0
  0
LTYPE
  5
15
330
5
100
AcDbSymbolTableRecord
100
AcDbLinetypeTableRecord
  2
BYLAYER
 70
     0
  3

 72
    65
 73
     0
 40
0.0
  0
LTYPE
  5
16
330
5
100
AcDbSymbolTableRecord
100
AcDbLinetypeTableRecord
  2
CONTINUOUS
 70
     0
  3
Solid line
 72
    65
 73
     0
 40
0.0
  0
ENDTAB
  0
TABLE
  2
LAYER
  5
2
100
AcDbSymbolTable
 70
1
  0
LAYER
  5
50
100
AcDbSymbolTableRecord
100
AcDbLayerTableRecord
  2
0
 70
0
  6
CONTINUOUS
  0
ENDTAB
  0
TABLE
  2
STYLE
  5
3
330
0
100
AcDbSymbolTable
 70
     1
  0
STYLE
  5
11
330
3
100
AcDbSymbolTableRecord
100
AcDbTextStyleTableRecord
  2
STANDARD
 70
     0
 40
0.0
 41
1.0
 50
0.0
 71
     0
 42
2.5
  3
txt
  4

  0
ENDTAB
  0
TABLE
  2
VIEW
  5
6
330
0
100
AcDbSymbolTable
 70
     0
  0
ENDTAB
  0
TABLE
  2
UCS
  5
7
330
0
100
AcDbSymbolTable
 70
     0
  0
ENDTAB
  0
TABLE
  2
APPID
  5
9
330
0
100
AcDbSymbolTable
 70
     2
  0
APPID
  5
12
330
9
100
AcDbSymbolTableRecord
100
AcDbRegAppTableRecord
  2
ACAD
 70
     0
  0
ENDTAB
  0
TABLE
  2
DIMSTYLE
  5
A
330
0
100
AcDbSymbolTable
 70
     1
  0
DIMSTYLE
105
27
330
A
100
AcDbSymbolTableRecord
100
AcDbDimStyleTableRecord
  2
ISO-25
 70
     0
  3

  4

  5

  6

  7

 40
1.0
 41
2.5
 42
0.625
 43
3.75
 44
1.25
 45
0.0
 46
0.0
 47
0.0
 48
0.0
140
2.5
141
2.5
142
0.0
143
0.03937007874016
144
1.0
145
0.0
146
1.0
147
0.625
 71
     0
 72
     0
 73
     0
 74
     0
 75
     0
 76
     0
 77
     1
 78
     8
170
     0
171
     3
172
     1
173
     0
174
     0
175
     0
176
     0
177
     0
178
     0
270
     2
271
     2
272
     2
273
     2
274
     3
340
11
275
     0
280
     0
281
     0
282
     0
283
     0
284
     8
285
     0
286
     0
287
     3
288
     0
  0
ENDTAB
  0
TABLE
  2
BLOCK_RECORD
  5
1
330
0
100
AcDbSymbolTable
 70
     1
  0
BLOCK_RECORD
  5
1F
330
1
100
AcDbSymbolTableRecord
100
AcDbBlockTableRecord
  2
*MODEL_SPACE
  0
BLOCK_RECORD
  5
1B
330
1
100
AcDbSymbolTableRecord
100
AcDbBlockTableRecord
  2
*PAPER_SPACE
  0
ENDTAB
  0
ENDSEC
  0
SECTION
  2
BLOCKS
  0
BLOCK
  5
20
330
1F
100
AcDbEntity
  8
0
100
AcDbBlockBegin
  2
*MODEL_SPACE
 70
     0
 10
0.0
 20
0.0
 30
0.0
  3
*MODEL_SPACE
  1

  0
ENDBLK
  5
21
330
1F
100
AcDbEntity
  8
0
100
AcDbBlockEnd
  0
BLOCK
  5
1C
330
1B
100
AcDbEntity
 67
     1
  8
0
100
AcDbBlockBegin
  2
*PAPER_SPACE
  1

  0
ENDBLK
  5
1D
330
1B
100
AcDbEntity
 67
     1
  8
0
100
AcDbBlockEnd
  0
ENDSEC
  0
SECTION
  2
ENTITIES
  0
LWPOLYLINE
  5
100
100
AcDbEntity
  8
0
 62
7
100
AcDbPolyline
 90
8
 70
1
 10
319.514352
 20
190.214908
 30
0.0
 10
300.464352
 20
190.214908
 30
0.0
 10
300.464352
 20
209.264908
 30
0.0
 10
281.412368
 20
209.264908
 30
0.0
 10
281.412368
 20
190.214908
 30
0.0
 10
262.362344
 20
190.214908
 30
0.0
 10
262.362344
 20
171.162923
 30
0.0
 10
319.514352
 20
171.162923
 30
0.0
  0
LWPOLYLINE
  5
101
100
AcDbEntity
  8
0
 62
7
100
AcDbPolyline
 90
14
 70
1
 10
9.949344
 20
214.025899
 30
0.0
 10
9.950402
 20
214.025899
 30
0.0
 10
9.950402
 20
175.925899
 30
0.0
 10
257.602403
 20
175.925899
 30
0.0
 10
257.602403
 20
194.975899
 30
0.0
 10
276.652408
 20
194.975899
 30
0.0
 10
276.652408
 20
214.025899
 30
0.0
 10
295.702408
 20
214.025899
 30
0.0
 10
295.702408
 20
271.177909
 30
0.0
 10
9.949344
 20
271.177909
 30
0.0
 10
9.949344
 20
252.125899
 30
0.0
 10
9.950402
 20
252.125899
 30
0.0
 10
9.950402
 20
233.077910
 30
0.0
 10
9.949344
 20
233.077910
 30
0.0
  0
SPLINE
  5
102
100
AcDbEntity
  8
0
 62
7
100
AcDbSpline
 70
8
 71
3
 72
8
 73
4
 74
0
 40
0
 40
0
 40
0
 40
0
 40
1
 40
1
 40
1
 40
1
 10
72.096328
 20
285.950418
 30
0.0
 10
70.770247
 20
285.950418
 30
0.0
 10
69.498348
 20
286.477203
 30
0.0
 10
68.560659
 20
287.414887
 30
0.0
  0
SPLINE
  5
103
100
AcDbEntity
  8
0
 62
7
100
AcDbSpline
 70
8
 71
3
 72
8
 73
4
 74
0
 40
0
 40
0
 40
0
 40
0
 40
1
 40
1
 40
1
 40
1
 10
68.560659
 20
287.414887
 30
0.0
 10
67.622978
 20
288.352570
 30
0.0
 10
60.336361
 20
294.635075
 30
0.0
 10
59.417540
 20
295.538812
 30
0.0
  0
SPLINE
  5
104
100
AcDbEntity
  8
0
 62
7
100
AcDbSpline
 70
8
 71
3
 72
8
 73
4
 74
0
 40
0
 40
0
 40
0
 40
0
 40
1
 40
1
 40
1
 40
1
 10
59.417540
 20
295.538812
 30
0.0
 10
58.498711
 20
296.442523
 30
0.0
 10
57.227870
 20
297.000000
 30
0.0
 10
55.819770
 20
297.000000
 30
0.0
  0
LWPOLYLINE
  5
105
100
AcDbEntity
  8
0
 62
7
100
AcDbPolyline
 90
4
 70
1
 10
305.225371
 20
194.975899
 30
0.0
 10
324.277355
 20
194.975899
 30
0.0
 10
324.277355
 20
252.127910
 30
0.0
 10
305.225371
 20
252.127910
 30
0.0
  0
SPLINE
  5
106
100
AcDbEntity
  8
0
 62
7
100
AcDbSpline
 70
8
 71
3
 72
8
 73
4
 74
0
 40
0
 40
0
 40
0
 40
0
 40
1
 40
1
 40
1
 40
1
 10
5.083400
 20
297.000000
 30
0.0
 10
2.267191
 20
297.000000
 30
0.0
 10
0.000000
 20
294.770092
 30
0.0
 10
0.000000
 20
292.000169
 30
0.0
  0
LWPOLYLINE
  5
107
100
AcDbEntity
  8
0
 62
7
100
AcDbPolyline
 90
4
 70
1
 10
18.019988
 20
287.793020
 30
0.0
 10
42.932011
 20
287.793020
 30
0.0
 10
42.932011
 20
280.380996
 30
0.0
 10
18.019988
 20
280.380996
 30
0.0
  0
SPLINE
  5
108
100
AcDbEntity
  8
0
 62
7
100
AcDbSpline
 70
8
 71
3
 72
8
 73
4
 74
0
 40
0
 40
0
 40
0
 40
0
 40
1
 40
1
 40
1
 40
1
 10
0.002000
 20
166.073425
 30
0.0
 10
0.002000
 20
163.303422
 30
0.0
 10
2.232001
 20
161.073435
 30
0.0
 10
5.001990
 20
161.073435
 30
0.0
  0
LWPOLYLINE
  5
109
100
AcDbEntity
  8
0
 62
7
100
AcDbPolyline
 90
2
 70
0
 10
55.819770
 20
297.000000
 30
0.0
 10
5.083400
 20
297.000000
 30
0.0
  0
SPLINE
  5
10a
100
AcDbEntity
  8
0
 62
7
100
AcDbSpline
 70
8
 71
3
 72
8
 73
4
 74
0
 40
0
 40
0
 40
0
 40
0
 40
1
 40
1
 40
1
 40
1
 10
329.429031
 20
161.073435
 30
0.0
 10
332.199006
 20
161.073435
 30
0.0
 10
334.429021
 20
163.303422
 30
0.0
 10
334.429021
 20
166.073425
 30
0.0
  0
LWPOLYLINE
  5
10b
100
AcDbEntity
  8
0
 62
7
100
AcDbPolyline
 90
4
 70
0
 10
0.000000
 20
292.000169
 30
0.0
 10
0.000000
 20
284.592285
 30
0.0
 10
0.002117
 20
280.950428
 30
0.0
 10
0.002117
 20
166.073425
 30
0.0
  0
SPLINE
  5
10c
100
AcDbEntity
  8
0
 62
7
100
AcDbSpline
 70
8
 71
3
 72
8
 73
4
 74
0
 40
0
 40
0
 40
0
 40
0
 40
1
 40
1
 40
1
 40
1
 10
334.429021
 20
280.950428
 30
0.0
 10
334.429021
 20
283.720430
 30
0.0
 10
332.199006
 20
285.950418
 30
0.0
 10
329.429031
 20
285.950418
 30
0.0
  0
LWPOLYLINE
  5
10d
100
AcDbEntity
  8
0
 62
7
100
AcDbPolyline
 90
2
 70
0
 10
5.001990
 20
161.073435
 30
0.0
 10
329.429031
 20
161.073435
 30
0.0
  0
SPLINE
  5
10e
100
AcDbEntity
  8
0
 62
7
100
AcDbSpline
 70
8
 71
3
 72
8
 73
4
 74
0
 40
0
 40
0
 40
0
 40
0
 40
1
 40
1
 40
1
 40
1
 10
325.235835
 20
266.473486
 30
0.0
 10
325.235835
 20
262.722197
 30
0.0
 10
323.234553
 20
259.255865
 30
0.0
 10
319.985840
 20
257.380233
 30
0.0
  0
SPLINE
  5
10f
100
AcDbEntity
  8
0
 62
7
100
AcDbSpline
 70
8
 71
3
 72
8
 73
4
 74
0
 40
0
 40
0
 40
0
 40
0
 40
1
 40
1
 40
1
 40
1
 10
319.985840
 20
257.380233
 30
0.0
 10
316.737127
 20
255.504576
 30
0.0
 10
312.734537
 20
255.504576
 30
0.0
 10
309.485850
 20
257.380233
 30
0.0
  0
SPLINE
  5
110
100
AcDbEntity
  8
0
 62
7
100
AcDbSpline
 70
8
 71
3
 72
8
 73
4
 74
0
 40
0
 40
0
 40
0
 40
0
 40
1
 40
1
 40
1
 40
1
 10
309.485850
 20
257.380233
 30
0.0
 10
306.237137
 20
259.255865
 30
0.0
 10
304.235829
 20
262.722197
 30
0.0
 10
304.235829
 20
266.473486
 30
0.0
  0
SPLINE
  5
111
100
AcDbEntity
  8
0
 62
7
100
AcDbSpline
 70
8
 71
3
 72
8
 73
4
 74
0
 40
0
 40
0
 40
0
 40
0
 40
1
 40
1
 40
1
 40
1
 10
304.235829
 20
266.473486
 30
0.0
 10
304.235829
 20
270.224775
 30
0.0
 10
306.237137
 20
273.691107
 30
0.0
 10
309.485850
 20
275.566766
 30
0.0
  0
SPLINE
  5
112
100
AcDbEntity
  8
0
 62
7
100
AcDbSpline
 70
8
 71
3
 72
8
 73
4
 74
0
 40
0
 40
0
 40
0
 40
0
 40
1
 40
1
 40
1
 40
1
 10
309.485850
 20
275.566766
 30
0.0
 10
312.734537
 20
277.442397
 30
0.0
 10
316.737127
 20
277.442397
 30
0.0
 10
319.985840
 20
275.566766
 30
0.0
  0
SPLINE
  5
113
100
AcDbEntity
  8
0
 62
7
100
AcDbSpline
 70
8
 71
3
 72
8
 73
4
 74
0
 40
0
 40
0
 40
0
 40
0
 40
1
 40
1
 40
1
 40
1
 10
319.985840
 20
275.566766
 30
0.0
 10
323.234553
 20
273.691107
 30
0.0
 10
325.235835
 20
270.224775
 30
0.0
 10
325.235835
 20
266.473486
 30
0.0
  0
LWPOLYLINE
  5
114
100
AcDbEntity
  8
0
 62
7
100
AcDbPolyline
 90
2
 70
0
 10
334.429021
 20
166.073425
 30
0.0
 10
334.429021
 20
280.950428
 30
0.0
  0
SPLINE
  5
115
100
AcDbEntity
  8
0
 62
7
100
AcDbSpline
 70
8
 71
3
 72
8
 73
4
 74
0
 40
0
 40
0
 40
0
 40
0
 40
1
 40
1
 40
1
 40
1
 10
6.596774
 20
292.000008
 30
0.0
 10
6.596774
 20
291.429536
 30
0.0
 10
6.292431
 20
290.902398
 30
0.0
 10
5.798387
 20
290.617161
 30
0.0
  0
SPLINE
  5
116
100
AcDbEntity
  8
0
 62
7
100
AcDbSpline
 70
8
 71
3
 72
8
 73
4
 74
0
 40
0
 40
0
 40
0
 40
0
 40
1
 40
1
 40
1
 40
1
 10
5.798387
 20
290.617161
 30
0.0
 10
5.304344
 20
290.331925
 30
0.0
 10
4.695657
 20
290.331925
 30
0.0
 10
4.201613
 20
290.617161
 30
0.0
  0
SPLINE
  5
117
100
AcDbEntity
  8
0
 62
7
100
AcDbSpline
 70
8
 71
3
 72
8
 73
4
 74
0
 40
0
 40
0
 40
0
 40
0
 40
1
 40
1
 40
1
 40
1
 10
4.201613
 20
290.617161
 30
0.0
 10
3.707569
 20
290.902398
 30
0.0
 10
3.403226
 20
291.429536
 30
0.0
 10
3.403226
 20
292.000008
 30
0.0
  0
SPLINE
  5
118
100
AcDbEntity
  8
0
 62
7
100
AcDbSpline
 70
8
 71
3
 72
8
 73
4
 74
0
 40
0
 40
0
 40
0
 40
0
 40
1
 40
1
 40
1
 40
1
 10
3.403226
 20
292.000008
 30
0.0
 10
3.403226
 20
292.570481
 30
0.0
 10
3.707569
 20
293.097619
 30
0.0
 10
4.201613
 20
293.382855
 30
0.0
  0
SPLINE
  5
119
100
AcDbEntity
  8
0
 62
7
100
AcDbSpline
 70
8
 71
3
 72
8
 73
4
 74
0
 40
0
 40
0
 40
0
 40
0
 40
1
 40
1
 40
1
 40
1
 10
4.201613
 20
293.382855
 30
0.0
 10
4.695657
 20
293.668092
 30
0.0
 10
5.304344
 20
293.668092
 30
0.0
 10
5.798387
 20
293.382855
 30
0.0
  0
SPLINE
  5
11a
100
AcDbEntity
  8
0
 62
7
100
AcDbSpline
 70
8
 71
3
 72
8
 73
4
 74
0
 40
0
 40
0
 40
0
 40
0
 40
1
 40
1
 40
1
 40
1
 10
5.798387
 20
293.382855
 30
0.0
 10
6.292431
 20
293.097619
 30
0.0
 10
6.596774
 20
292.570481
 30
0.0
 10
6.596774
 20
292.000008
 30
0.0
  0
LWPOLYLINE
  5
11b
100
AcDbEntity
  8
0
 62
7
100
AcDbPolyline
 90
3
 70
0
 10
329.429031
 20
285.950418
 30
0.0
 10
72.880577
 20
285.950418
 30
0.0
 10
72.096328
 20
285.950418
 30
0.0
  0
SPLINE
  5
11c
100
AcDbEntity
  8
0
 62
7
100
AcDbSpline
 70
8
 71
3
 72
8
 73
4
 74
0
 40
0
 40
0
 40
0
 40
0
 40
1
 40
1
 40
1
 40
1
 10
6.596774
 20
166.050006
 30
0.0
 10
6.596774
 20
165.479534
 30
0.0
 10
6.292431
 20
164.952395
 30
0.0
 10
5.798387
 20
164.667159
 30
0.0
  0
SPLINE
  5
11d
100
AcDbEntity
  8
0
 62
7
100
AcDbSpline
 70
8
 71
3
 72
8
 73
4
 74
0
 40
0
 40
0
 40
0
 40
0
 40
1
 40
1
 40
1
 40
1
 10
5.798387
 20
164.667159
 30
0.0
 10
5.304343
 20
164.381923
 30
0.0
 10
4.695657
 20
164.381923
 30
0.0
 10
4.201613
 20
164.667159
 30
0.0
  0
SPLINE
  5
11e
100
AcDbEntity
  8
0
 62
7
100
AcDbSpline
 70
8
 71
3
 72
8
 73
4
 74
0
 40
0
 40
0
 40
0
 40
0
 40
1
 40
1
 40
1
 40
1
 10
4.201613
 20
164.667159
 30
0.0
 10
3.707569
 20
164.952395
 30
0.0
 10
3.403226
 20
165.479534
 30
0.0
 10
3.403226
 20
166.050006
 30
0.0
  0
SPLINE
  5
11f
100
AcDbEntity
  8
0
 62
7
100
AcDbSpline
 70
8
 71
3
 72
8
 73
4
 74
0
 40
0
 40
0
 40
0
 40
0
 40
1
 40
1
 40
1
 40
1
 10
3.403226
 20
166.050006
 30
0.0
 10
3.403226
 20
166.620479
 30
0.0
 10
3.707569
 20
167.147617
 30
0.0
 10
4.201613
 20
167.432853
 30
0.0
  0
SPLINE
  5
120
100
AcDbEntity
  8
0
 62
7
100
AcDbSpline
 70
8
 71
3
 72
8
 73
4
 74
0
 40
0
 40
0
 40
0
 40
0
 40
1
 40
1
 40
1
 40
1
 10
4.201613
 20
167.432853
 30
0.0
 10
4.695657
 20
167.718090
 30
0.0
 10
5.304343
 20
167.718090
 30
0.0
 10
5.798387
 20
167.432853
 30
0.0
  0
SPLINE
  5
121
100
AcDbEntity
  8
0
 62
7
100
AcDbSpline
 70
8
 71
3
 72
8
 73
4
 74
0
 40
0
 40
0
 40
0
 40
0
 40
1
 40
1
 40
1
 40
1
 10
5.798387
 20
167.432853
 30
0.0
 10
6.292431
 20
167.147617
 30
0.0
 10
6.596774
 20
166.620479
 30
0.0
 10
6.596774
 20
166.050006
 30
0.0
  0
LWPOLYLINE
  5
122
100
AcDbEntity
  8
0
 62
7
100
AcDbPolyline
 90
1
 70
1
 10
6.596774
 20
292.000008
 30
0.0
  0
SPLINE
  5
123
100
AcDbEntity
  8
0
 62
7
100
AcDbSpline
 70
8
 71
3
 72
8
 73
4
 74
0
 40
0
 40
0
 40
0
 40
0
 40
1
 40
1
 40
1
 40
1
 10
331.075758
 20
166.050006
 30
0.0
 10
331.075758
 20
165.479534
 30
0.0
 10
330.771415
 20
164.952396
 30
0.0
 10
330.277371
 20
164.667159
 30
0.0
  0
SPLINE
  5
124
100
AcDbEntity
  8
0
 62
7
100
AcDbSpline
 70
8
 71
3
 72
8
 73
4
 74
0
 40
0
 40
0
 40
0
 40
0
 40
1
 40
1
 40
1
 40
1
 10
330.277371
 20
164.667159
 30
0.0
 10
329.783327
 20
164.381923
 30
0.0
 10
329.174641
 20
164.381923
 30
0.0
 10
328.680597
 20
164.667159
 30
0.0
  0
SPLINE
  5
125
100
AcDbEntity
  8
0
 62
7
100
AcDbSpline
 70
8
 71
3
 72
8
 73
4
 74
0
 40
0
 40
0
 40
0
 40
0
 40
1
 40
1
 40
1
 40
1
 10
328.680597
 20
164.667159
 30
0.0
 10
328.186553
 20
164.952396
 30
0.0
 10
327.882210
 20
165.479534
 30
0.0
 10
327.882210
 20
166.050006
 30
0.0
  0
SPLINE
  5
126
100
AcDbEntity
  8
0
 62
7
100
AcDbSpline
 70
8
 71
3
 72
8
 73
4
 74
0
 40
0
 40
0
 40
0
 40
0
 40
1
 40
1
 40
1
 40
1
 10
327.882210
 20
166.050006
 30
0.0
 10
327.882210
 20
166.620479
 30
0.0
 10
328.186553
 20
167.147617
 30
0.0
 10
328.680597
 20
167.432853
 30
0.0
  0
SPLINE
  5
127
100
AcDbEntity
  8
0
 62
7
100
AcDbSpline
 70
8
 71
3
 72
8
 73
4
 74
0
 40
0
 40
0
 40
0
 40
0
 40
1
 40
1
 40
1
 40
1
 10
328.680597
 20
167.432853
 30
0.0
 10
329.174641
 20
167.718089
 30
0.0
 10
329.783327
 20
167.718089
 30
0.0
 10
330.277371
 20
167.432853
 30
0.0
  0
SPLINE
  5
128
100
AcDbEntity
  8
0
 62
7
100
AcDbSpline
 70
8
 71
3
 72
8
 73
4
 74
0
 40
0
 40
0
 40
0
 40
0
 40
1
 40
1
 40
1
 40
1
 10
330.277371
 20
167.432853
 30
0.0
 10
330.771415
 20
167.147617
 30
0.0
 10
331.075758
 20
166.620479
 30
0.0
 10
331.075758
 20
166.050006
 30
0.0
  0
LWPOLYLINE
  5
129
100
AcDbEntity
  8
0
 62
7
100
AcDbPolyline
 90
1
 70
1
 10
6.596774
 20
166.050006
 30
0.0
  0
SPLINE
  5
12a
100
AcDbEntity
  8
0
 62
7
100
AcDbSpline
 70
8
 71
3
 72
8
 73
4
 74
0
 40
0
 40
0
 40
0
 40
0
 40
1
 40
1
 40
1
 40
1
 10
331.075758
 20
280.900009
 30
0.0
 10
331.075758
 20
280.329536
 30
0.0
 10
330.771415
 20
279.802398
 30
0.0
 10
330.277371
 20
279.517162
 30
0.0
  0
SPLINE
  5
12b
100
AcDbEntity
  8
0
 62
7
100
AcDbSpline
 70
8
 71
3
 72
8
 73
4
 74
0
 40
0
 40
0
 40
0
 40
0
 40
1
 40
1
 40
1
 40
1
 10
330.277371
 20
279.517162
 30
0.0
 10
329.783327
 20
279.231925
 30
0.0
 10
329.174641
 20
279.231925
 30
0.0
 10
328.680597
 20
279.517162
 30
0.0
  0
SPLINE
  5
12c
100
AcDbEntity
  8
0
 62
7
100
AcDbSpline
 70
8
 71
3
 72
8
 73
4
 74
0
 40
0
 40
0
 40
0
 40
0
 40
1
 40
1
 40
1
 40
1
 10
328.680597
 20
279.517162
 30
0.0
 10
328.186553
 20
279.802398
 30
0.0
 10
327.882210
 20
280.329536
 30
0.0
 10
327.882210
 20
280.900009
 30
0.0
  0
SPLINE
  5
12d
100
AcDbEntity
  8
0
 62
7
100
AcDbSpline
 70
8
 71
3
 72
8
 73
4
 74
0
 40
0
 40
0
 40
0
 40
0
 40
1
 40
1
 40
1
 40
1
 10
327.882210
 20
280.900009
 30
0.0
 10
327.882210
 20
281.781883
 30
0.0
 10
328.597110
 20
282.496783
 30
0.0
 10
329.478984
 20
282.496783
 30
0.0
  0
SPLINE
  5
12e
100
AcDbEntity
  8
0
 62
7
100
AcDbSpline
 70
8
 71
3
 72
8
 73
4
 74
0
 40
0
 40
0
 40
0
 40
0
 40
1
 40
1
 40
1
 40
1
 10
329.478984
 20
282.496783
 30
0.0
 10
330.360858
 20
282.496783
 30
0.0
 10
331.075758
 20
281.781883
 30
0.0
 10
331.075758
 20
280.900009
 30
0.0
  0
LWPOLYLINE
  5
12f
100
AcDbEntity
  8
0
 62
7
100
AcDbPolyline
 90
1
 70
1
 10
331.075758
 20
166.050006
 30
0.0
  0
SPLINE
  5
130
100
AcDbEntity
  8
0
 62
7
100
AcDbSpline
 70
8
 71
3
 72
8
 73
4
 74
0
 40
0
 40
0
 40
0
 40
0
 40
1
 40
1
 40
1
 40
1
 10
222.915774
 20
166.050006
 30
0.0
 10
222.915774
 20
165.479534
 30
0.0
 10
222.611431
 20
164.952396
 30
0.0
 10
222.117387
 20
164.667159
 30
0.0
  0
SPLINE
  5
131
100
AcDbEntity
  8
0
 62
7
100
AcDbSpline
 70
8
 71
3
 72
8
 73
4
 74
0
 40
0
 40
0
 40
0
 40
0
 40
1
 40
1
 40
1
 40
1
 10
222.117387
 20
164.667159
 30
0.0
 10
221.623343
 20
164.381923
 30
0.0
 10
221.014657
 20
164.381923
 30
0.0
 10
220.520613
 20
164.667159
 30
0.0
  0
SPLINE
  5
132
100
AcDbEntity
  8
0
 62
7
100
AcDbSpline
 70
8
 71
3
 72
8
 73
4
 74
0
 40
0
 40
0
 40
0
 40
0
 40
1
 40
1
 40
1
 40
1
 10
220.520613
 20
164.667159
 30
0.0
 10
220.026569
 20
164.952396
 30
0.0
 10
219.722226
 20
165.479534
 30
0.0
 10
219.722226
 20
166.050006
 30
0.0
  0
SPLINE
  5
133
100
AcDbEntity
  8
0
 62
7
100
AcDbSpline
 70
8
 71
3
 72
8
 73
4
 74
0
 40
0
 40
0
 40
0
 40
0
 40
1
 40
1
 40
1
 40
1
 10
219.722226
 20
166.050006
 30
0.0
 10
219.722226
 20
166.620479
 30
0.0
 10
220.026569
 20
167.147617
 30
0.0
 10
220.520613
 20
167.432853
 30
0.0
  0
SPLINE
  5
134
100
AcDbEntity
  8
0
 62
7
100
AcDbSpline
 70
8
 71
3
 72
8
 73
4
 74
0
 40
0
 40
0
 40
0
 40
0
 40
1
 40
1
 40
1
 40
1
 10
220.520613
 20
167.432853
 30
0.0
 10
221.014657
 20
167.718089
 30
0.0
 10
221.623343
 20
167.718089
 30
0.0
 10
222.117387
 20
167.432853
 30
0.0
  0
SPLINE
  5
135
100
AcDbEntity
  8
0
 62
7
100
AcDbSpline
 70
8
 71
3
 72
8
 73
4
 74
0
 40
0
 40
0
 40
0
 40
0
 40
1
 40
1
 40
1
 40
1
 10
222.117387
 20
167.432853
 30
0.0
 10
222.611431
 20
167.147617
 30
0.0
 10
222.915774
 20
166.620479
 30
0.0
 10
222.915774
 20
166.050006
 30
0.0
  0
LWPOLYLINE
  5
136
100
AcDbEntity
  8
0
 62
7
100
AcDbPolyline
 90
1
 70
1
 10
331.075758
 20
280.900009
 30
0.0
  0
SPLINE
  5
137
100
AcDbEntity
  8
0
 62
7
100
AcDbSpline
 70
8
 71
3
 72
8
 73
4
 74
0
 40
0
 40
0
 40
0
 40
0
 40
1
 40
1
 40
1
 40
1
 10
114.756777
 20
166.050006
 30
0.0
 10
114.756777
 20
165.479534
 30
0.0
 10
114.452434
 20
164.952395
 30
0.0
 10
113.958390
 20
164.667159
 30
0.0
  0
SPLINE
  5
138
100
AcDbEntity
  8
0
 62
7
100
AcDbSpline
 70
8
 71
3
 72
8
 73
4
 74
0
 40
0
 40
0
 40
0
 40
0
 40
1
 40
1
 40
1
 40
1
 10
113.958390
 20
164.667159
 30
0.0
 10
113.464346
 20
164.381923
 30
0.0
 10
112.855660
 20
164.381923
 30
0.0
 10
112.361616
 20
164.667159
 30
0.0
  0
SPLINE
  5
139
100
AcDbEntity
  8
0
 62
7
100
AcDbSpline
 70
8
 71
3
 72
8
 73
4
 74
0
 40
0
 40
0
 40
0
 40
0
 40
1
 40
1
 40
1
 40
1
 10
112.361616
 20
164.667159
 30
0.0
 10
111.867572
 20
164.952395
 30
0.0
 10
111.563229
 20
165.479534
 30
0.0
 10
111.563229
 20
166.050006
 30
0.0
  0
SPLINE
  5
13a
100
AcDbEntity
  8
0
 62
7
100
AcDbSpline
 70
8
 71
3
 72
8
 73
4
 74
0
 40
0
 40
0
 40
0
 40
0
 40
1
 40
1
 40
1
 40
1
 10
111.563229
 20
166.050006
 30
0.0
 10
111.563229
 20
166.620479
 30
0.0
 10
111.867572
 20
167.147617
 30
0.0
 10
112.361616
 20
167.432853
 30
0.0
  0
SPLINE
  5
13b
100
AcDbEntity
  8
0
 62
7
100
AcDbSpline
 70
8
 71
3
 72
8
 73
4
 74
0
 40
0
 40
0
 40
0
 40
0
 40
1
 40
1
 40
1
 40
1
 10
112.361616
 20
167.432853
 30
0.0
 10
112.855660
 20
167.718090
 30
0.0
 10
113.464346
 20
167.718090
 30
0.0
 10
113.958390
 20
167.432853
 30
0.0
  0
SPLINE
  5
13c
100
AcDbEntity
  8
0
 62
7
100
AcDbSpline
 70
8
 71
3
 72
8
 73
4
 74
0
 40
0
 40
0
 40
0
 40
0
 40
1
 40
1
 40
1
 40
1
 10
113.958390
 20
167.432853
 30
0.0
 10
114.452434
 20
167.147617
 30
0.0
 10
114.756777
 20
166.620479
 30
0.0
 10
114.756777
 20
166.050006
 30
0.0
  0
LWPOLYLINE
  5
13d
100
AcDbEntity
  8
0
 62
7
100
AcDbPolyline
 90
1
 70
1
 10
222.915774
 20
166.050006
 30
0.0
  0
SPLINE
  5
13e
100
AcDbEntity
  8
0
 62
7
100
AcDbSpline
 70
8
 71
3
 72
8
 73
4
 74
0
 40
0
 40
0
 40
0
 40
0
 40
1
 40
1
 40
1
 40
1
 10
222.915774
 20
280.900009
 30
0.0
 10
222.915774
 20
280.329536
 30
0.0
 10
222.611431
 20
279.802398
 30
0.0
 10
222.117387
 20
279.517162
 30
0.0
  0
SPLINE
  5
13f
100
AcDbEntity
  8
0
 62
7
100
AcDbSpline
 70
8
 71
3
 72
8
 73
4
 74
0
 40
0
 40
0
 40
0
 40
0
 40
1
 40
1
 40
1
 40
1
 10
222.117387
 20
279.517162
 30
0.0
 10
221.623343
 20
279.231925
 30
0.0
 10
221.014657
 20
279.231925
 30
0.0
 10
220.520613
 20
279.517162
 30
0.0
  0
SPLINE
  5
140
100
AcDbEntity
  8
0
 62
7
100
AcDbSpline
 70
8
 71
3
 72
8
 73
4
 74
0
 40
0
 40
0
 40
0
 40
0
 40
1
 40
1
 40
1
 40
1
 10
220.520613
 20
279.517162
 30
0.0
 10
220.026569
 20
279.802398
 30
0.0
 10
219.722226
 20
280.329536
 30
0.0
 10
219.722226
 20
280.900009
 30
0.0
  0
SPLINE
  5
141
100
AcDbEntity
  8
0
 62
7
100
AcDbSpline
 70
8
 71
3
 72
8
 73
4
 74
0
 40
0
 40
0
 40
0
 40
0
 40
1
 40
1
 40
1
 40
1
 10
219.722226
 20
280.900009
 30
0.0
 10
219.722226
 20
281.470481
 30
0.0
 10
220.026569
 20
281.997619
 30
0.0
 10
220.520613
 20
282.282856
 30
0.0
  0
SPLINE
  5
142
100
AcDbEntity
  8
0
 62
7
100
AcDbSpline
 70
8
 71
3
 72
8
 73
4
 74
0
 40
0
 40
0
 40
0
 40
0
 40
1
 40
1
 40
1
 40
1
 10
220.520613
 20
282.282856
 30
0.0
 10
221.014657
 20
282.568092
 30
0.0
 10
221.623343
 20
282.568092
 30
0.0
 10
222.117387
 20
282.282856
 30
0.0
  0
SPLINE
  5
143
100
AcDbEntity
  8
0
 62
7
100
AcDbSpline
 70
8
 71
3
 72
8
 73
4
 74
0
 40
0
 40
0
 40
0
 40
0
 40
1
 40
1
 40
1
 40
1
 10
222.117387
 20
282.282856
 30
0.0
 10
222.611431
 20
281.997619
 30
0.0
 10
222.915774
 20
281.470481
 30
0.0
 10
222.915774
 20
280.900009
 30
0.0
  0
LWPOLYLINE
  5
144
100
AcDbEntity
  8
0
 62
7
100
AcDbPolyline
 90
1
 70
1
 10
114.756777
 20
166.050006
 30
0.0
  0
SPLINE
  5
145
100
AcDbEntity
  8
0
 62
7
100
AcDbSpline
 70
8
 71
3
 72
8
 73
4
 74
0
 40
0
 40
0
 40
0
 40
0
 40
1
 40
1
 40
1
 40
1
 10
114.756777
 20
280.900009
 30
0.0
 10
114.756777
 20
280.329536
 30
0.0
 10
114.452434
 20
279.802398
 30
0.0
 10
113.958390
 20
279.517162
 30
0.0
  0
SPLINE
  5
146
100
AcDbEntity
  8
0
 62
7
100
AcDbSpline
 70
8
 71
3
 72
8
 73
4
 74
0
 40
0
 40
0
 40
0
 40
0
 40
1
 40
1
 40
1
 40
1
 10
113.958390
 20
279.517162
 30
0.0
 10
113.464346
 20
279.231925
 30
0.0
 10
112.855660
 20
279.231925
 30
0.0
 10
112.361616
 20
279.517162
 30
0.0
  0
SPLINE
  5
147
100
AcDbEntity
  8
0
 62
7
100
AcDbSpline
 70
8
 71
3
 72
8
 73
4
 74
0
 40
0
 40
0
 40
0
 40
0
 40
1
 40
1
 40
1
 40
1
 10
112.361616
 20
279.517162
 30
0.0
 10
111.867572
 20
279.802398
 30
0.0
 10
111.563229
 20
280.329536
 30
0.0
 10
111.563229
 20
280.900009
 30
0.0
  0
SPLINE
  5
148
100
AcDbEntity
  8
0
 62
7
100
AcDbSpline
 70
8
 71
3
 72
8
 73
4
 74
0
 40
0
 40
0
 40
0
 40
0
 40
1
 40
1
 40
1
 40
1
 10
111.563229
 20
280.900009
 30
0.0
 10
111.563229
 20
281.470481
 30
0.0
 10
111.867572
 20
281.997619
 30
0.0
 10
112.361616
 20
282.282856
 30
0.0
  0
SPLINE
  5
149
100
AcDbEntity
  8
0
 62
7
100
AcDbSpline
 70
8
 71
3
 72
8
 73
4
 74
0
 40
0
 40
0
 40
0
 40
0
 40
1
 40
1
 40
1
 40
1
 10
112.361616
 20
282.282856
 30
0.0
 10
112.855660
 20
282.568092
 30
0.0
 10
113.464346
 20
282.568092
 30
0.0
 10
113.958390
 20
282.282856
 30
0.0
  0
SPLINE
  5
14a
100
AcDbEntity
  8
0
 62
7
100
AcDbSpline
 70
8
 71
3
 72
8
 73
4
 74
0
 40
0
 40
0
 40
0
 40
0
 40
1
 40
1
 40
1
 40
1
 10
113.958390
 20
282.282856
 30
0.0
 10
114.452434
 20
281.997619
 30
0.0
 10
114.756777
 20
281.470481
 30
0.0
 10
114.756777
 20
280.900009
 30
0.0
  0
LWPOLYLINE
  5
14b
100
AcDbEntity
  8
0
 62
7
100
AcDbPolyline
 90
1
 70
1
 10
222.915774
 20
280.900009
 30
0.0
  0
SPLINE
  5
14c
100
AcDbEntity
  8
0
 62
7
100
AcDbSpline
 70
8
 71
3
 72
8
 73
4
 74
0
 40
0
 40
0
 40
0
 40
0
 40
1
 40
1
 40
1
 40
1
 10
262.332692
 20
33.156590
 30
0.0
 10
263.658773
 20
33.156590
 30
0.0
 10
264.930673
 20
32.629804
 30
0.0
 10
265.868362
 20
31.692121
 30
0.0
  0
SPLINE
  5
14d
100
AcDbEntity
  8
0
 62
7
100
AcDbSpline
 70
8
 71
3
 72
8
 73
4
 74
0
 40
0
 40
0
 40
0
 40
0
 40
1
 40
1
 40
1
 40
1
 10
265.868362
 20
31.692121
 30
0.0
 10
266.806042
 20
30.754438
 30
0.0
 10
274.092659
 20
24.471933
 30
0.0
 10
275.011481
 20
23.568196
 30
0.0
  0
SPLINE
  5
14e
100
AcDbEntity
  8
0
 62
7
100
AcDbSpline
 70
8
 71
3
 72
8
 73
4
 74
0
 40
0
 40
0
 40
0
 40
0
 40
1
 40
1
 40
1
 40
1
 10
275.011481
 20
23.568196
 30
0.0
 10
275.930310
 20
22.664485
 30
0.0
 10
277.201151
 20
22.107008
 30
0.0
 10
278.609250
 20
22.107008
 30
0.0
  0
SPLINE
  5
14f
100
AcDbEntity
  8
0
 62
7
100
AcDbSpline
 70
8
 71
3
 72
8
 73
4
 74
0
 40
0
 40
0
 40
0
 40
0
 40
1
 40
1
 40
1
 40
1
 10
329.345621
 20
22.107008
 30
0.0
 10
332.161830
 20
22.107008
 30
0.0
 10
334.429021
 20
24.336916
 30
0.0
 10
334.429021
 20
27.106839
 30
0.0
  0
LWPOLYLINE
  5
150
100
AcDbEntity
  8
0
 62
7
100
AcDbPolyline
 90
1
 70
1
 10
114.756777
 20
280.900009
 30
0.0
  0
SPLINE
  5
151
100
AcDbEntity
  8
0
 62
7
100
AcDbSpline
 70
8
 71
3
 72
8
 73
4
 74
0
 40
0
 40
0
 40
0
 40
0
 40
1
 40
1
 40
1
 40
1
 10
334.427020
 20
153.033583
 30
0.0
 10
334.427020
 20
155.803585
 30
0.0
 10
332.197019
 20
158.033573
 30
0.0
 10
329.427031
 20
158.033573
 30
0.0
  0
LWPOLYLINE
  5
152
100
AcDbEntity
  8
0
 62
7
100
AcDbPolyline
 90
2
 70
0
 10
278.609250
 20
22.107008
 30
0.0
 10
329.345621
 20
22.107008
 30
0.0
  0
SPLINE
  5
153
100
AcDbEntity
  8
0
 62
7
100
AcDbSpline
 70
8
 71
3
 72
8
 73
4
 74
0
 40
0
 40
0
 40
0
 40
0
 40
1
 40
1
 40
1
 40
1
 10
4.999990
 20
158.033573
 30
0.0
 10
2.230014
 20
158.033573
 30
0.0
 10
0.000000
 20
155.803585
 30
0.0
 10
0.000000
 20
153.033583
 30
0.0
  0
LWPOLYLINE
  5
154
100
AcDbEntity
  8
0
 62
7
100
AcDbPolyline
 90
4
 70
0
 10
334.429021
 20
27.106839
 30
0.0
 10
334.429021
 20
34.514723
 30
0.0
 10
334.426904
 20
38.156580
 30
0.0
 10
334.426904
 20
153.033583
 30
0.0
  0
SPLINE
  5
155
100
AcDbEntity
  8
0
 62
7
100
AcDbSpline
 70
8
 71
3
 72
8
 73
4
 74
0
 40
0
 40
0
 40
0
 40
0
 40
1
 40
1
 40
1
 40
1
 10
0.000000
 20
38.156580
 30
0.0
 10
0.000000
 20
35.386578
 30
0.0
 10
2.230014
 20
33.156590
 30
0.0
 10
4.999990
 20
33.156590
 30
0.0
  0
LWPOLYLINE
  5
156
100
AcDbEntity
  8
0
 62
7
100
AcDbPolyline
 90
2
 70
0
 10
329.427031
 20
158.033573
 30
0.0
 10
4.999990
 20
158.033573
 30
0.0
  0
LWPOLYLINE
  5
157
100
AcDbEntity
  8
0
 62
7
100
AcDbPolyline
 90
2
 70
0
 10
0.000000
 20
153.033583
 30
0.0
 10
0.000000
 20
38.156580
 30
0.0
  0
SPLINE
  5
158
100
AcDbEntity
  8
0
 62
7
100
AcDbSpline
 70
8
 71
3
 72
8
 73
4
 74
0
 40
0
 40
0
 40
0
 40
0
 40
1
 40
1
 40
1
 40
1
 10
327.832246
 20
27.106999
 30
0.0
 10
327.832246
 20
27.677472
 30
0.0
 10
328.136590
 20
28.204610
 30
0.0
 10
328.630634
 20
28.489846
 30
0.0
  0
SPLINE
  5
159
100
AcDbEntity
  8
0
 62
7
100
AcDbSpline
 70
8
 71
3
 72
8
 73
4
 74
0
 40
0
 40
0
 40
0
 40
0
 40
1
 40
1
 40
1
 40
1
 10
328.630634
 20
28.489846
 30
0.0
 10
329.124677
 20
28.775083
 30
0.0
 10
329.733364
 20
28.775083
 30
0.0
 10
330.227408
 20
28.489846
 30
0.0
  0
SPLINE
  5
15a
100
AcDbEntity
  8
0
 62
7
100
AcDbSpline
 70
8
 71
3
 72
8
 73
4
 74
0
 40
0
 40
0
 40
0
 40
0
 40
1
 40
1
 40
1
 40
1
 10
330.227408
 20
28.489846
 30
0.0
 10
330.721451
 20
28.204610
 30
0.0
 10
331.025795
 20
27.677472
 30
0.0
 10
331.025795
 20
27.106999
 30
0.0
  0
SPLINE
  5
15b
100
AcDbEntity
  8
0
 62
7
100
AcDbSpline
 70
8
 71
3
 72
8
 73
4
 74
0
 40
0
 40
0
 40
0
 40
0
 40
1
 40
1
 40
1
 40
1
 10
331.025795
 20
27.106999
 30
0.0
 10
331.025795
 20
26.536527
 30
0.0
 10
330.721451
 20
26.009389
 30
0.0
 10
330.227408
 20
25.724152
 30
0.0
  0
SPLINE
  5
15c
100
AcDbEntity
  8
0
 62
7
100
AcDbSpline
 70
8
 71
3
 72
8
 73
4
 74
0
 40
0
 40
0
 40
0
 40
0
 40
1
 40
1
 40
1
 40
1
 10
330.227408
 20
25.724152
 30
0.0
 10
329.733364
 20
25.438916
 30
0.0
 10
329.124677
 20
25.438916
 30
0.0
 10
328.630634
 20
25.724152
 30
0.0
  0
SPLINE
  5
15d
100
AcDbEntity
  8
0
 62
7
100
AcDbSpline
 70
8
 71
3
 72
8
 73
4
 74
0
 40
0
 40
0
 40
0
 40
0
 40
1
 40
1
 40
1
 40
1
 10
328.630634
 20
25.724152
 30
0.0
 10
328.136590
 20
26.009389
 30
0.0
 10
327.832246
 20
26.536527
 30
0.0
 10
327.832246
 20
27.106999
 30
0.0
  0
LWPOLYLINE
  5
15e
100
AcDbEntity
  8
0
 62
7
100
AcDbPolyline
 90
3
 70
0
 10
4.999990
 20
33.156590
 30
0.0
 10
261.548443
 20
33.156590
 30
0.0
 10
262.332692
 20
33.156590
 30
0.0
  0
SPLINE
  5
15f
100
AcDbEntity
  8
0
 62
7
100
AcDbSpline
 70
8
 71
3
 72
8
 73
4
 74
0
 40
0
 40
0
 40
0
 40
0
 40
1
 40
1
 40
1
 40
1
 10
327.832246
 20
153.057001
 30
0.0
 10
327.832246
 20
153.627474
 30
0.0
 10
328.136590
 20
154.154612
 30
0.0
 10
328.630634
 20
154.439849
 30
0.0
  0
SPLINE
  5
160
100
AcDbEntity
  8
0
 62
7
100
AcDbSpline
 70
8
 71
3
 72
8
 73
4
 74
0
 40
0
 40
0
 40
0
 40
0
 40
1
 40
1
 40
1
 40
1
 10
328.630634
 20
154.439849
 30
0.0
 10
329.124677
 20
154.725085
 30
0.0
 10
329.733364
 20
154.725085
 30
0.0
 10
330.227408
 20
154.439849
 30
0.0
  0
SPLINE
  5
161
100
AcDbEntity
  8
0
 62
7
100
AcDbSpline
 70
8
 71
3
 72
8
 73
4
 74
0
 40
0
 40
0
 40
0
 40
0
 40
1
 40
1
 40
1
 40
1
 10
330.227408
 20
154.439849
 30
0.0
 10
330.721451
 20
154.154612
 30
0.0
 10
331.025795
 20
153.627474
 30
0.0
 10
331.025795
 20
153.057001
 30
0.0
  0
SPLINE
  5
162
100
AcDbEntity
  8
0
 62
7
100
AcDbSpline
 70
8
 71
3
 72
8
 73
4
 74
0
 40
0
 40
0
 40
0
 40
0
 40
1
 40
1
 40
1
 40
1
 10
331.025795
 20
153.057001
 30
0.0
 10
331.025795
 20
152.486529
 30
0.0
 10
330.721451
 20
151.959391
 30
0.0
 10
330.227408
 20
151.674154
 30
0.0
  0
SPLINE
  5
163
100
AcDbEntity
  8
0
 62
7
100
AcDbSpline
 70
8
 71
3
 72
8
 73
4
 74
0
 40
0
 40
0
 40
0
 40
0
 40
1
 40
1
 40
1
 40
1
 10
330.227408
 20
151.674154
 30
0.0
 10
329.733364
 20
151.388918
 30
0.0
 10
329.124677
 20
151.388918
 30
0.0
 10
328.630634
 20
151.674154
 30
0.0
  0
SPLINE
  5
164
100
AcDbEntity
  8
0
 62
7
100
AcDbSpline
 70
8
 71
3
 72
8
 73
4
 74
0
 40
0
 40
0
 40
0
 40
0
 40
1
 40
1
 40
1
 40
1
 10
328.630634
 20
151.674154
 30
0.0
 10
328.136590
 20
151.959391
 30
0.0
 10
327.832246
 20
152.486529
 30
0.0
 10
327.832246
 20
153.057001
 30
0.0
  0
LWPOLYLINE
  5
165
100
AcDbEntity
  8
0
 62
7
100
AcDbPolyline
 90
1
 70
1
 10
327.832246
 20
27.106999
 30
0.0
  0
SPLINE
  5
166
100
AcDbEntity
  8
0
 62
7
100
AcDbSpline
 70
8
 71
3
 72
8
 73
4
 74
0
 40
0
 40
0
 40
0
 40
0
 40
1
 40
1
 40
1
 40
1
 10
3.353262
 20
153.057001
 30
0.0
 10
3.353262
 20
153.627474
 30
0.0
 10
3.657606
 20
154.154612
 30
0.0
 10
4.151650
 20
154.439848
 30
0.0
  0
SPLINE
  5
167
100
AcDbEntity
  8
0
 62
7
100
AcDbSpline
 70
8
 71
3
 72
8
 73
4
 74
0
 40
0
 40
0
 40
0
 40
0
 40
1
 40
1
 40
1
 40
1
 10
4.151650
 20
154.439848
 30
0.0
 10
4.645693
 20
154.725085
 30
0.0
 10
5.254380
 20
154.725085
 30
0.0
 10
5.748424
 20
154.439848
 30
0.0
  0
SPLINE
  5
168
100
AcDbEntity
  8
0
 62
7
100
AcDbSpline
 70
8
 71
3
 72
8
 73
4
 74
0
 40
0
 40
0
 40
0
 40
0
 40
1
 40
1
 40
1
 40
1
 10
5.748424
 20
154.439848
 30
0.0
 10
6.242467
 20
154.154612
 30
0.0
 10
6.546811
 20
153.627474
 30
0.0
 10
6.546811
 20
153.057001
 30
0.0
  0
SPLINE
  5
169
100
AcDbEntity
  8
0
 62
7
100
AcDbSpline
 70
8
 71
3
 72
8
 73
4
 74
0
 40
0
 40
0
 40
0
 40
0
 40
1
 40
1
 40
1
 40
1
 10
6.546811
 20
153.057001
 30
0.0
 10
6.546811
 20
152.486529
 30
0.0
 10
6.242467
 20
151.959391
 30
0.0
 10
5.748424
 20
151.674154
 30
0.0
  0
SPLINE
  5
16a
100
AcDbEntity
  8
0
 62
7
100
AcDbSpline
 70
8
 71
3
 72
8
 73
4
 74
0
 40
0
 40
0
 40
0
 40
0
 40
1
 40
1
 40
1
 40
1
 10
5.748424
 20
151.674154
 30
0.0
 10
5.254380
 20
151.388918
 30
0.0
 10
4.645693
 20
151.388918
 30
0.0
 10
4.151650
 20
151.674154
 30
0.0
  0
SPLINE
  5
16b
100
AcDbEntity
  8
0
 62
7
100
AcDbSpline
 70
8
 71
3
 72
8
 73
4
 74
0
 40
0
 40
0
 40
0
 40
0
 40
1
 40
1
 40
1
 40
1
 10
4.151650
 20
151.674154
 30
0.0
 10
3.657606
 20
151.959391
 30
0.0
 10
3.353262
 20
152.486529
 30
0.0
 10
3.353262
 20
153.057001
 30
0.0
  0
LWPOLYLINE
  5
16c
100
AcDbEntity
  8
0
 62
7
100
AcDbPolyline
 90
1
 70
1
 10
327.832246
 20
153.057001
 30
0.0
  0
SPLINE
  5
16d
100
AcDbEntity
  8
0
 62
7
100
AcDbSpline
 70
8
 71
3
 72
8
 73
4
 74
0
 40
0
 40
0
 40
0
 40
0
 40
1
 40
1
 40
1
 40
1
 10
3.353262
 20
38.206999
 30
0.0
 10
3.353262
 20
38.777472
 30
0.0
 10
3.657606
 20
39.304610
 30
0.0
 10
4.151650
 20
39.589846
 30
0.0
  0
SPLINE
  5
16e
100
AcDbEntity
  8
0
 62
7
100
AcDbSpline
 70
8
 71
3
 72
8
 73
4
 74
0
 40
0
 40
0
 40
0
 40
0
 40
1
 40
1
 40
1
 40
1
 10
4.151650
 20
39.589846
 30
0.0
 10
4.645693
 20
39.875082
 30
0.0
 10
5.254380
 20
39.875082
 30
0.0
 10
5.748424
 20
39.589846
 30
0.0
  0
SPLINE
  5
16f
100
AcDbEntity
  8
0
 62
7
100
AcDbSpline
 70
8
 71
3
 72
8
 73
4
 74
0
 40
0
 40
0
 40
0
 40
0
 40
1
 40
1
 40
1
 40
1
 10
5.748424
 20
39.589846
 30
0.0
 10
6.242467
 20
39.304610
 30
0.0
 10
6.546811
 20
38.777472
 30
0.0
 10
6.546811
 20
38.206999
 30
0.0
  0
SPLINE
  5
170
100
AcDbEntity
  8
0
 62
7
100
AcDbSpline
 70
8
 71
3
 72
8
 73
4
 74
0
 40
0
 40
0
 40
0
 40
0
 40
1
 40
1
 40
1
 40
1
 10
6.546811
 20
38.206999
 30
0.0
 10
6.546811
 20
37.636527
 30
0.0
 10
6.242467
 20
37.109388
 30
0.0
 10
5.748424
 20
36.824152
 30
0.0
  0
SPLINE
  5
171
100
AcDbEntity
  8
0
 62
7
100
AcDbSpline
 70
8
 71
3
 72
8
 73
4
 74
0
 40
0
 40
0
 40
0
 40
0
 40
1
 40
1
 40
1
 40
1
 10
5.748424
 20
36.824152
 30
0.0
 10
5.254380
 20
36.538916
 30
0.0
 10
4.645693
 20
36.538916
 30
0.0
 10
4.151650
 20
36.824152
 30
0.0
  0
SPLINE
  5
172
100
AcDbEntity
  8
0
 62
7
100
AcDbSpline
 70
8
 71
3
 72
8
 73
4
 74
0
 40
0
 40
0
 40
0
 40
0
 40
1
 40
1
 40
1
 40
1
 10
4.151650
 20
36.824152
 30
0.0
 10
3.657606
 20
37.109388
 30
0.0
 10
3.353262
 20
37.636527
 30
0.0
 10
3.353262
 20
38.206999
 30
0.0
  0
LWPOLYLINE
  5
173
100
AcDbEntity
  8
0
 62
7
100
AcDbPolyline
 90
1
 70
1
 10
3.353262
 20
153.057001
 30
0.0
  0
SPLINE
  5
174
100
AcDbEntity
  8
0
 62
7
100
AcDbSpline
 70
8
 71
3
 72
8
 73
4
 74
0
 40
0
 40
0
 40
0
 40
0
 40
1
 40
1
 40
1
 40
1
 10
111.513246
 20
153.057001
 30
0.0
 10
111.513246
 20
153.627474
 30
0.0
 10
111.817590
 20
154.154612
 30
0.0
 10
112.311633
 20
154.439848
 30
0.0
  0
SPLINE
  5
175
100
AcDbEntity
  8
0
 62
7
100
AcDbSpline
 70
8
 71
3
 72
8
 73
4
 74
0
 40
0
 40
0
 40
0
 40
0
 40
1
 40
1
 40
1
 40
1
 10
112.311633
 20
154.439848
 30
0.0
 10
112.805677
 20
154.725085
 30
0.0
 10
113.414364
 20
154.725085
 30
0.0
 10
113.908408
 20
154.439848
 30
0.0
  0
SPLINE
  5
176
100
AcDbEntity
  8
0
 62
7
100
AcDbSpline
 70
8
 71
3
 72
8
 73
4
 74
0
 40
0
 40
0
 40
0
 40
0
 40
1
 40
1
 40
1
 40
1
 10
113.908408
 20
154.439848
 30
0.0
 10
114.402451
 20
154.154612
 30
0.0
 10
114.706795
 20
153.627474
 30
0.0
 10
114.706795
 20
153.057001
 30
0.0
  0
SPLINE
  5
177
100
AcDbEntity
  8
0
 62
7
100
AcDbSpline
 70
8
 71
3
 72
8
 73
4
 74
0
 40
0
 40
0
 40
0
 40
0
 40
1
 40
1
 40
1
 40
1
 10
114.706795
 20
153.057001
 30
0.0
 10
114.706795
 20
152.486529
 30
0.0
 10
114.402451
 20
151.959391
 30
0.0
 10
113.908408
 20
151.674154
 30
0.0
  0
SPLINE
  5
178
100
AcDbEntity
  8
0
 62
7
100
AcDbSpline
 70
8
 71
3
 72
8
 73
4
 74
0
 40
0
 40
0
 40
0
 40
0
 40
1
 40
1
 40
1
 40
1
 10
113.908408
 20
151.674154
 30
0.0
 10
113.414364
 20
151.388918
 30
0.0
 10
112.805677
 20
151.388918
 30
0.0
 10
112.311633
 20
151.674154
 30
0.0
  0
SPLINE
  5
179
100
AcDbEntity
  8
0
 62
7
100
AcDbSpline
 70
8
 71
3
 72
8
 73
4
 74
0
 40
0
 40
0
 40
0
 40
0
 40
1
 40
1
 40
1
 40
1
 10
112.311633
 20
151.674154
 30
0.0
 10
111.817590
 20
151.959391
 30
0.0
 10
111.513246
 20
152.486529
 30
0.0
 10
111.513246
 20
153.057001
 30
0.0
  0
LWPOLYLINE
  5
17a
100
AcDbEntity
  8
0
 62
7
100
AcDbPolyline
 90
1
 70
1
 10
3.353262
 20
38.206999
 30
0.0
  0
SPLINE
  5
17b
100
AcDbEntity
  8
0
 62
7
100
AcDbSpline
 70
8
 71
3
 72
8
 73
4
 74
0
 40
0
 40
0
 40
0
 40
0
 40
1
 40
1
 40
1
 40
1
 10
219.672243
 20
153.057001
 30
0.0
 10
219.672243
 20
153.627474
 30
0.0
 10
219.976587
 20
154.154612
 30
0.0
 10
220.470631
 20
154.439849
 30
0.0
  0
SPLINE
  5
17c
100
AcDbEntity
  8
0
 62
7
100
AcDbSpline
 70
8
 71
3
 72
8
 73
4
 74
0
 40
0
 40
0
 40
0
 40
0
 40
1
 40
1
 40
1
 40
1
 10
220.470631
 20
154.439849
 30
0.0
 10
220.964674
 20
154.725085
 30
0.0
 10
221.573361
 20
154.725085
 30
0.0
 10
222.067405
 20
154.439849
 30
0.0
  0
SPLINE
  5
17d
100
AcDbEntity
  8
0
 62
7
100
AcDbSpline
 70
8
 71
3
 72
8
 73
4
 74
0
 40
0
 40
0
 40
0
 40
0
 40
1
 40
1
 40
1
 40
1
 10
222.067405
 20
154.439849
 30
0.0
 10
222.561448
 20
154.154612
 30
0.0
 10
222.865792
 20
153.627474
 30
0.0
 10
222.865792
 20
153.057001
 30
0.0
  0
SPLINE
  5
17e
100
AcDbEntity
  8
0
 62
7
100
AcDbSpline
 70
8
 71
3
 72
8
 73
4
 74
0
 40
0
 40
0
 40
0
 40
0
 40
1
 40
1
 40
1
 40
1
 10
222.865792
 20
153.057001
 30
0.0
 10
222.865792
 20
152.486529
 30
0.0
 10
222.561448
 20
151.959391
 30
0.0
 10
222.067405
 20
151.674154
 30
0.0
  0
SPLINE
  5
17f
100
AcDbEntity
  8
0
 62
7
100
AcDbSpline
 70
8
 71
3
 72
8
 73
4
 74
0
 40
0
 40
0
 40
0
 40
0
 40
1
 40
1
 40
1
 40
1
 10
222.067405
 20
151.674154
 30
0.0
 10
221.573361
 20
151.388918
 30
0.0
 10
220.964674
 20
151.388918
 30
0.0
 10
220.470631
 20
151.674154
 30
0.0
  0
SPLINE
  5
180
100
AcDbEntity
  8
0
 62
7
100
AcDbSpline
 70
8
 71
3
 72
8
 73
4
 74
0
 40
0
 40
0
 40
0
 40
0
 40
1
 40
1
 40
1
 40
1
 10
220.470631
 20
151.674154
 30
0.0
 10
219.976587
 20
151.959391
 30
0.0
 10
219.672243
 20
152.486529
 30
0.0
 10
219.672243
 20
153.057001
 30
0.0
  0
LWPOLYLINE
  5
181
100
AcDbEntity
  8
0
 62
7
100
AcDbPolyline
 90
1
 70
1
 10
111.513246
 20
153.057001
 30
0.0
  0
SPLINE
  5
182
100
AcDbEntity
  8
0
 62
7
100
AcDbSpline
 70
8
 71
3
 72
8
 73
4
 74
0
 40
0
 40
0
 40
0
 40
0
 40
1
 40
1
 40
1
 40
1
 10
111.513246
 20
38.206999
 30
0.0
 10
111.513246
 20
38.777472
 30
0.0
 10
111.817590
 20
39.304610
 30
0.0
 10
112.311634
 20
39.589846
 30
0.0
  0
SPLINE
  5
183
100
AcDbEntity
  8
0
 62
7
100
AcDbSpline
 70
8
 71
3
 72
8
 73
4
 74
0
 40
0
 40
0
 40
0
 40
0
 40
1
 40
1
 40
1
 40
1
 10
112.311634
 20
39.589846
 30
0.0
 10
112.805677
 20
39.875082
 30
0.0
 10
113.414364
 20
39.875082
 30
0.0
 10
113.908408
 20
39.589846
 30
0.0
  0
SPLINE
  5
184
100
AcDbEntity
  8
0
 62
7
100
AcDbSpline
 70
8
 71
3
 72
8
 73
4
 74
0
 40
0
 40
0
 40
0
 40
0
 40
1
 40
1
 40
1
 40
1
 10
113.908408
 20
39.589846
 30
0.0
 10
114.402451
 20
39.304610
 30
0.0
 10
114.706795
 20
38.777472
 30
0.0
 10
114.706795
 20
38.206999
 30
0.0
  0
SPLINE
  5
185
100
AcDbEntity
  8
0
 62
7
100
AcDbSpline
 70
8
 71
3
 72
8
 73
4
 74
0
 40
0
 40
0
 40
0
 40
0
 40
1
 40
1
 40
1
 40
1
 10
114.706795
 20
38.206999
 30
0.0
 10
114.706795
 20
37.636527
 30
0.0
 10
114.402451
 20
37.109388
 30
0.0
 10
113.908408
 20
36.824152
 30
0.0
  0
SPLINE
  5
186
100
AcDbEntity
  8
0
 62
7
100
AcDbSpline
 70
8
 71
3
 72
8
 73
4
 74
0
 40
0
 40
0
 40
0
 40
0
 40
1
 40
1
 40
1
 40
1
 10
113.908408
 20
36.824152
 30
0.0
 10
113.414364
 20
36.538916
 30
0.0
 10
112.805677
 20
36.538916
 30
0.0
 10
112.311634
 20
36.824152
 30
0.0
  0
SPLINE
  5
187
100
AcDbEntity
  8
0
 62
7
100
AcDbSpline
 70
8
 71
3
 72
8
 73
4
 74
0
 40
0
 40
0
 40
0
 40
0
 40
1
 40
1
 40
1
 40
1
 10
112.311634
 20
36.824152
 30
0.0
 10
111.817590
 20
37.109388
 30
0.0
 10
111.513246
 20
37.636527
 30
0.0
 10
111.513246
 20
38.206999
 30
0.0
  0
LWPOLYLINE
  5
188
100
AcDbEntity
  8
0
 62
7
100
AcDbPolyline
 90
1
 70
1
 10
219.672243
 20
153.057001
 30
0.0
  0
SPLINE
  5
189
100
AcDbEntity
  8
0
 62
7
100
AcDbSpline
 70
8
 71
3
 72
8
 73
4
 74
0
 40
0
 40
0
 40
0
 40
0
 40
1
 40
1
 40
1
 40
1
 10
219.672243
 20
38.206999
 30
0.0
 10
219.672243
 20
38.777472
 30
0.0
 10
219.976587
 20
39.304610
 30
0.0
 10
220.470630
 20
39.589846
 30
0.0
  0
SPLINE
  5
18a
100
AcDbEntity
  8
0
 62
7
100
AcDbSpline
 70
8
 71
3
 72
8
 73
4
 74
0
 40
0
 40
0
 40
0
 40
0
 40
1
 40
1
 40
1
 40
1
 10
220.470630
 20
39.589846
 30
0.0
 10
220.964674
 20
39.875082
 30
0.0
 10
221.573361
 20
39.875082
 30
0.0
 10
222.067405
 20
39.589846
 30
0.0
  0
SPLINE
  5
18b
100
AcDbEntity
  8
0
 62
7
100
AcDbSpline
 70
8
 71
3
 72
8
 73
4
 74
0
 40
0
 40
0
 40
0
 40
0
 40
1
 40
1
 40
1
 40
1
 10
222.067405
 20
39.589846
 30
0.0
 10
222.561448
 20
39.304610
 30
0.0
 10
222.865792
 20
38.777472
 30
0.0
 10
222.865792
 20
38.206999
 30
0.0
  0
SPLINE
  5
18c
100
AcDbEntity
  8
0
 62
7
100
AcDbSpline
 70
8
 71
3
 72
8
 73
4
 74
0
 40
0
 40
0
 40
0
 40
0
 40
1
 40
1
 40
1
 40
1
 10
222.865792
 20
38.206999
 30
0.0
 10
222.865792
 20
37.636527
 30
0.0
 10
222.561448
 20
37.109388
 30
0.0
 10
222.067405
 20
36.824152
 30
0.0
  0
SPLINE
  5
18d
100
AcDbEntity
  8
0
 62
7
100
AcDbSpline
 70
8
 71
3
 72
8
 73
4
 74
0
 40
0
 40
0
 40
0
 40
0
 40
1
 40
1
 40
1
 40
1
 10
222.067405
 20
36.824152
 30
0.0
 10
221.573361
 20
36.538916
 30
0.0
 10
220.964674
 20
36.538916
 30
0.0
 10
220.470630
 20
36.824152
 30
0.0
  0
SPLINE
  5
18e
100
AcDbEntity
  8
0
 62
7
100
AcDbSpline
 70
8
 71
3
 72
8
 73
4
 74
0
 40
0
 40
0
 40
0
 40
0
 40
1
 40
1
 40
1
 40
1
 10
220.470630
 20
36.824152
 30
0.0
 10
219.976587
 20
37.109388
 30
0.0
 10
219.672243
 20
37.636527
 30
0.0
 10
219.672243
 20
38.206999
 30
0.0
  0
LWPOLYLINE
  5
18f
100
AcDbEntity
  8
0
 62
7
100
AcDbPolyline
 90
1
 70
1
 10
111.513246
 20
38.206999
 30
0.0
  0
LWPOLYLINE
  5
190
100
AcDbEntity
  8
0
 62
7
100
AcDbPolyline
 90
1
 70
1
 10
219.672243
 20
38.206999
 30
0.0
  0
LWPOLYLINE
  5
191
100
AcDbEntity
  8
0
 62
7
100
AcDbPolyline
 90
4
 70
1
 10
69.444026
 20
131.463235
 30
0.0
 10
69.444026
 20
145.463234
 30
0.0
 10
55.444026
 20
145.463234
 30
0.0
 10
55.444026
 20
131.463235
 30
0.0
  0
LWPOLYLINE
  5
192
100
AcDbEntity
  8
0
 62
7
100
AcDbPolyline
 90
4
 70
1
 10
50.394027
 20
131.463235
 30
0.0
 10
50.394027
 20
145.463234
 30
0.0
 10
36.394027
 20
145.463234
 30
0.0
 10
36.394027
 20
131.463235
 30
0.0
  0
LWPOLYLINE
  5
193
100
AcDbEntity
  8
0
 62
7
100
AcDbPolyline
 90
4
 70
1
 10
31.344028
 20
131.463235
 30
0.0
 10
31.344028
 20
145.463234
 30
0.0
 10
17.344028
 20
145.463234
 30
0.0
 10
17.344028
 20
131.463235
 30
0.0
  0
LWPOLYLINE
  5
194
100
AcDbEntity
  8
0
 62
7
100
AcDbPolyline
 90
4
 70
1
 10
319.475015
 20
126.700235
 30
0.0
 10
319.475015
 20
140.700235
 30
0.0
 10
305.475016
 20
140.700235
 30
0.0
 10
305.475016
 20
126.700235
 30
0.0
  0
LWPOLYLINE
  5
195
100
AcDbEntity
  8
0
 62
7
100
AcDbPolyline
 90
4
 70
1
 10
295.663016
 20
126.700235
 30
0.0
 10
295.663016
 20
140.700235
 30
0.0
 10
281.663017
 20
140.700235
 30
0.0
 10
281.663017
 20
126.700235
 30
0.0
  0
LWPOLYLINE
  5
196
100
AcDbEntity
  8
0
 62
7
100
AcDbPolyline
 90
4
 70
1
 10
271.850017
 20
126.700235
 30
0.0
 10
271.850017
 20
140.700235
 30
0.0
 10
257.850018
 20
140.700235
 30
0.0
 10
257.850018
 20
126.700235
 30
0.0
  0
LWPOLYLINE
  5
197
100
AcDbEntity
  8
0
 62
7
100
AcDbPolyline
 90
4
 70
1
 10
131.356023
 20
126.700235
 30
0.0
 10
131.356023
 20
140.700235
 30
0.0
 10
117.356024
 20
140.700235
 30
0.0
 10
117.356024
 20
126.700235
 30
0.0
  0
LWPOLYLINE
  5
198
100
AcDbEntity
  8
0
 62
7
100
AcDbPolyline
 90
4
 70
1
 10
112.306024
 20
126.700235
 30
0.0
 10
112.306024
 20
140.700235
 30
0.0
 10
98.306025
 20
140.700235
 30
0.0
 10
98.306025
 20
126.700235
 30
0.0
  0
LWPOLYLINE
  5
199
100
AcDbEntity
  8
0
 62
7
100
AcDbPolyline
 90
4
 70
1
 10
93.256025
 20
126.700235
 30
0.0
 10
93.256025
 20
140.700235
 30
0.0
 10
79.256025
 20
140.700235
 30
0.0
 10
79.256025
 20
126.700235
 30
0.0
  0
LWPOLYLINE
  5
19a
100
AcDbEntity
  8
0
 62
7
100
AcDbPolyline
 90
4
 70
1
 10
50.394027
 20
112.413236
 30
0.0
 10
50.394027
 20
126.413235
 30
0.0
 10
36.394027
 20
126.413235
 30
0.0
 10
36.394027
 20
112.413236
 30
0.0
  0
LWPOLYLINE
  5
19b
100
AcDbEntity
  8
0
 62
7
100
AcDbPolyline
 90
36
 70
1
 10
318.225015
 20
115.150236
 30
0.0
 10
318.225015
 20
121.420235
 30
0.0
 10
316.500016
 20
121.420235
 30
0.0
 10
316.500016
 20
122.620235
 30
0.0
 10
313.200016
 20
122.620235
 30
0.0
 10
313.200016
 20
121.420235
 30
0.0
 10
311.475016
 20
121.420235
 30
0.0
 10
311.475016
 20
116.950236
 30
0.0
 10
309.950016
 20
116.950236
 30
0.0
 10
309.950016
 20
121.650235
 30
0.0
 10
295.950016
 20
121.650235
 30
0.0
 10
295.950016
 20
116.950236
 30
0.0
 10
294.425016
 20
116.950236
 30
0.0
 10
294.425016
 20
121.420235
 30
0.0
 10
292.700017
 20
121.420235
 30
0.0
 10
292.700017
 20
122.620235
 30
0.0
 10
289.400017
 20
122.620235
 30
0.0
 10
289.400017
 20
121.420235
 30
0.0
 10
287.675017
 20
121.420235
 30
0.0
 10
287.675017
 20
115.150236
 30
0.0
 10
286.850017
 20
115.150236
 30
0.0
 10
286.850017
 20
112.350236
 30
0.0
 10
287.675017
 20
112.350236
 30
0.0
 10
287.675017
 20
109.120236
 30
0.0
 10
294.425016
 20
109.120236
 30
0.0
 10
294.425016
 20
112.350236
 30
0.0
 10
295.950016
 20
112.350236
 30
0.0
 10
295.950016
 20
107.650236
 30
0.0
 10
309.950016
 20
107.650236
 30
0.0
 10
309.950016
 20
112.350236
 30
0.0
 10
311.475016
 20
112.350236
 30
0.0
 10
311.475016
 20
109.120236
 30
0.0
 10
318.225015
 20
109.120236
 30
0.0
 10
318.225015
 20
112.350236
 30
0.0
 10
319.050015
 20
112.350236
 30
0.0
 10
319.050015
 20
115.150236
 30
0.0
  0
LWPOLYLINE
  5
19c
100
AcDbEntity
  8
0
 62
7
100
AcDbPolyline
 90
4
 70
1
 10
278.994017
 20
107.650236
 30
0.0
 10
278.994017
 20
121.650235
 30
0.0
 10
264.994018
 20
121.650235
 30
0.0
 10
264.994018
 20
107.650236
 30
0.0
  0
LWPOLYLINE
  5
19d
100
AcDbEntity
  8
0
 62
7
100
AcDbPolyline
 90
4
 70
1
 10
259.944018
 20
107.650236
 30
0.0
 10
259.944018
 20
121.650235
 30
0.0
 10
245.944018
 20
121.650235
 30
0.0
 10
245.944018
 20
107.650236
 30
0.0
  0
LWPOLYLINE
  5
19e
100
AcDbEntity
  8
0
 62
7
100
AcDbPolyline
 90
4
 70
1
 10
240.894019
 20
107.650236
 30
0.0
 10
240.894019
 20
121.650235
 30
0.0
 10
226.894019
 20
121.650235
 30
0.0
 10
226.894019
 20
107.650236
 30
0.0
  0
LWPOLYLINE
  5
19f
100
AcDbEntity
  8
0
 62
7
100
AcDbPolyline
 90
4
 70
1
 10
221.844019
 20
107.650236
 30
0.0
 10
221.844019
 20
121.650235
 30
0.0
 10
207.844020
 20
121.650235
 30
0.0
 10
207.844020
 20
107.650236
 30
0.0
  0
LWPOLYLINE
  5
1a0
100
AcDbEntity
  8
0
 62
7
100
AcDbPolyline
 90
4
 70
1
 10
202.794020
 20
107.650236
 30
0.0
 10
202.794020
 20
121.650235
 30
0.0
 10
188.794021
 20
121.650235
 30
0.0
 10
188.794021
 20
107.650236
 30
0.0
  0
LWPOLYLINE
  5
1a1
100
AcDbEntity
  8
0
 62
7
100
AcDbPolyline
 90
4
 70
1
 10
183.744021
 20
107.650236
 30
0.0
 10
183.744021
 20
121.650235
 30
0.0
 10
169.744022
 20
121.650235
 30
0.0
 10
169.744022
 20
107.650236
 30
0.0
  0
LWPOLYLINE
  5
1a2
100
AcDbEntity
  8
0
 62
7
100
AcDbPolyline
 90
4
 70
1
 10
164.694022
 20
107.650236
 30
0.0
 10
164.694022
 20
121.650235
 30
0.0
 10
150.694022
 20
121.650235
 30
0.0
 10
150.694022
 20
107.650236
 30
0.0
  0
LWPOLYLINE
  5
1a3
100
AcDbEntity
  8
0
 62
7
100
AcDbPolyline
 90
4
 70
1
 10
145.644023
 20
107.650236
 30
0.0
 10
145.644023
 20
121.650235
 30
0.0
 10
131.644023
 20
121.650235
 30
0.0
 10
131.644023
 20
107.650236
 30
0.0
  0
LWPOLYLINE
  5
1a4
100
AcDbEntity
  8
0
 62
7
100
AcDbPolyline
 90
4
 70
1
 10
126.594023
 20
107.650236
 30
0.0
 10
126.594023
 20
121.650235
 30
0.0
 10
112.594024
 20
121.650235
 30
0.0
 10
112.594024
 20
107.650236
 30
0.0
  0
LWPOLYLINE
  5
1a5
100
AcDbEntity
  8
0
 62
7
100
AcDbPolyline
 90
4
 70
1
 10
107.544024
 20
107.650236
 30
0.0
 10
107.544024
 20
121.650235
 30
0.0
 10
93.544025
 20
121.650235
 30
0.0
 10
93.544025
 20
107.650236
 30
0.0
  0
LWPOLYLINE
  5
1a6
100
AcDbEntity
  8
0
 62
7
100
AcDbPolyline
 90
4
 70
1
 10
81.350025
 20
107.650236
 30
0.0
 10
81.350025
 20
121.650235
 30
0.0
 10
67.350026
 20
121.650235
 30
0.0
 10
67.350026
 20
107.650236
 30
0.0
  0
LWPOLYLINE
  5
1a7
100
AcDbEntity
  8
0
 62
7
100
AcDbPolyline
 90
4
 70
1
 10
26.581028
 20
107.650236
 30
0.0
 10
26.581028
 20
121.650235
 30
0.0
 10
12.581028
 20
121.650235
 30
0.0
 10
12.581028
 20
107.650236
 30
0.0
  0
LWPOLYLINE
  5
1a8
100
AcDbEntity
  8
0
 62
7
100
AcDbPolyline
 90
36
 70
1
 10
75.338026
 20
96.100236
 30
0.0
 10
75.338026
 20
102.370236
 30
0.0
 10
73.613026
 20
102.370236
 30
0.0
 10
73.613026
 20
103.570236
 30
0.0
 10
70.313026
 20
103.570236
 30
0.0
 10
70.313026
 20
102.370236
 30
0.0
 10
68.588026
 20
102.370236
 30
0.0
 10
68.588026
 20
97.900236
 30
0.0
 10
67.063026
 20
97.900236
 30
0.0
 10
67.063026
 20
102.600236
 30
0.0
 10
53.063027
 20
102.600236
 30
0.0
 10
53.063027
 20
97.900236
 30
0.0
 10
51.538027
 20
97.900236
 30
0.0
 10
51.538027
 20
102.370236
 30
0.0
 10
49.813027
 20
102.370236
 30
0.0
 10
49.813027
 20
103.570236
 30
0.0
 10
46.513027
 20
103.570236
 30
0.0
 10
46.513027
 20
102.370236
 30
0.0
 10
44.788027
 20
102.370236
 30
0.0
 10
44.788027
 20
96.100236
 30
0.0
 10
43.963027
 20
96.100236
 30
0.0
 10
43.963027
 20
93.300237
 30
0.0
 10
44.788027
 20
93.300237
 30
0.0
 10
44.788027
 20
90.070237
 30
0.0
 10
51.538027
 20
90.070237
 30
0.0
 10
51.538027
 20
93.300237
 30
0.0
 10
53.063027
 20
93.300237
 30
0.0
 10
53.063027
 20
88.600237
 30
0.0
 10
67.063026
 20
88.600237
 30
0.0
 10
67.063026
 20
93.300237
 30
0.0
 10
68.588026
 20
93.300237
 30
0.0
 10
68.588026
 20
90.070237
 30
0.0
 10
75.338026
 20
90.070237
 30
0.0
 10
75.338026
 20
93.300237
 30
0.0
 10
76.163026
 20
93.300237
 30
0.0
 10
76.163026
 20
96.100236
 30
0.0
  0
LWPOLYLINE
  5
1a9
100
AcDbEntity
  8
0
 62
7
100
AcDbPolyline
 90
4
 70
1
 10
314.713016
 20
88.600237
 30
0.0
 10
314.713016
 20
102.600236
 30
0.0
 10
300.713016
 20
102.600236
 30
0.0
 10
300.713016
 20
88.600237
 30
0.0
  0
LWPOLYLINE
  5
1aa
100
AcDbEntity
  8
0
 62
7
100
AcDbPolyline
 90
4
 70
1
 10
288.519017
 20
88.600237
 30
0.0
 10
288.519017
 20
102.600236
 30
0.0
 10
274.520017
 20
102.600236
 30
0.0
 10
274.520017
 20
88.600237
 30
0.0
  0
LWPOLYLINE
  5
1ab
100
AcDbEntity
  8
0
 62
7
100
AcDbPolyline
 90
4
 70
1
 10
269.469017
 20
88.600237
 30
0.0
 10
269.469017
 20
102.600236
 30
0.0
 10
255.469018
 20
102.600236
 30
0.0
 10
255.469018
 20
88.600237
 30
0.0
  0
LWPOLYLINE
  5
1ac
100
AcDbEntity
  8
0
 62
7
100
AcDbPolyline
 90
4
 70
1
 10
250.419018
 20
88.600237
 30
0.0
 10
250.419018
 20
102.600236
 30
0.0
 10
236.419019
 20
102.600236
 30
0.0
 10
236.419019
 20
88.600237
 30
0.0
  0
LWPOLYLINE
  5
1ad
100
AcDbEntity
  8
0
 62
7
100
AcDbPolyline
 90
4
 70
1
 10
231.369019
 20
88.600237
 30
0.0
 10
231.369019
 20
102.600236
 30
0.0
 10
217.369020
 20
102.600236
 30
0.0
 10
217.369020
 20
88.600237
 30
0.0
  0
LWPOLYLINE
  5
1ae
100
AcDbEntity
  8
0
 62
7
100
AcDbPolyline
 90
4
 70
1
 10
212.319020
 20
88.600237
 30
0.0
 10
212.319020
 20
102.600236
 30
0.0
 10
198.319020
 20
102.600236
 30
0.0
 10
198.319020
 20
88.600237
 30
0.0
  0
LWPOLYLINE
  5
1af
100
AcDbEntity
  8
0
 62
7
100
AcDbPolyline
 90
4
 70
1
 10
193.269021
 20
88.600237
 30
0.0
 10
193.269021
 20
102.600236
 30
0.0
 10
179.269021
 20
102.600236
 30
0.0
 10
179.269021
 20
88.600237
 30
0.0
  0
LWPOLYLINE
  5
1b0
100
AcDbEntity
  8
0
 62
7
100
AcDbPolyline
 90
4
 70
1
 10
174.219021
 20
88.600237
 30
0.0
 10
174.219021
 20
102.600236
 30
0.0
 10
160.219022
 20
102.600236
 30
0.0
 10
160.219022
 20
88.600237
 30
0.0
  0
LWPOLYLINE
  5
1b1
100
AcDbEntity
  8
0
 62
7
100
AcDbPolyline
 90
4
 70
1
 10
155.169022
 20
88.600237
 30
0.0
 10
155.169022
 20
102.600236
 30
0.0
 10
141.169023
 20
102.600236
 30
0.0
 10
141.169023
 20
88.600237
 30
0.0
  0
LWPOLYLINE
  5
1b2
100
AcDbEntity
  8
0
 62
7
100
AcDbPolyline
 90
4
 70
1
 10
136.119023
 20
88.600237
 30
0.0
 10
136.119023
 20
102.600236
 30
0.0
 10
122.119024
 20
102.600236
 30
0.0
 10
122.119024
 20
88.600237
 30
0.0
  0
LWPOLYLINE
  5
1b3
100
AcDbEntity
  8
0
 62
7
100
AcDbPolyline
 90
4
 70
1
 10
117.069024
 20
88.600237
 30
0.0
 10
117.069024
 20
102.600236
 30
0.0
 10
103.069024
 20
102.600236
 30
0.0
 10
103.069024
 20
88.600237
 30
0.0
  0
LWPOLYLINE
  5
1b4
100
AcDbEntity
  8
0
 62
7
100
AcDbPolyline
 90
4
 70
1
 10
98.019025
 20
88.600237
 30
0.0
 10
98.019025
 20
102.600236
 30
0.0
 10
84.019025
 20
102.600236
 30
0.0
 10
84.019025
 20
88.600237
 30
0.0
  0
LWPOLYLINE
  5
1b5
100
AcDbEntity
  8
0
 62
7
100
AcDbPolyline
 90
4
 70
1
 10
26.581028
 20
88.600237
 30
0.0
 10
26.581028
 20
102.600236
 30
0.0
 10
12.581028
 20
102.600236
 30
0.0
 10
12.581028
 20
88.600237
 30
0.0
  0
LWPOLYLINE
  5
1b6
100
AcDbEntity
  8
0
 62
7
100
AcDbPolyline
 90
4
 70
1
 10
317.094015
 20
69.550238
 30
0.0
 10
317.094015
 20
83.550237
 30
0.0
 10
303.094016
 20
83.550237
 30
0.0
 10
303.094016
 20
69.550238
 30
0.0
  0
LWPOLYLINE
  5
1b7
100
AcDbEntity
  8
0
 62
7
100
AcDbPolyline
 90
4
 70
1
 10
293.281016
 20
69.550238
 30
0.0
 10
293.281016
 20
83.550237
 30
0.0
 10
279.281017
 20
83.550237
 30
0.0
 10
279.281017
 20
69.550238
 30
0.0
  0
LWPOLYLINE
  5
1b8
100
AcDbEntity
  8
0
 62
7
100
AcDbPolyline
 90
4
 70
1
 10
274.231017
 20
69.550238
 30
0.0
 10
274.231017
 20
83.550237
 30
0.0
 10
260.231018
 20
83.550237
 30
0.0
 10
260.231018
 20
69.550238
 30
0.0
  0
LWPOLYLINE
  5
1b9
100
AcDbEntity
  8
0
 62
7
100
AcDbPolyline
 90
4
 70
1
 10
255.181018
 20
69.550238
 30
0.0
 10
255.181018
 20
83.550237
 30
0.0
 10
241.181019
 20
83.550237
 30
0.0
 10
241.181019
 20
69.550238
 30
0.0
  0
LWPOLYLINE
  5
1ba
100
AcDbEntity
  8
0
 62
7
100
AcDbPolyline
 90
4
 70
1
 10
236.131019
 20
69.550238
 30
0.0
 10
236.131019
 20
83.550237
 30
0.0
 10
222.131019
 20
83.550237
 30
0.0
 10
222.131019
 20
69.550238
 30
0.0
  0
LWPOLYLINE
  5
1bb
100
AcDbEntity
  8
0
 62
7
100
AcDbPolyline
 90
4
 70
1
 10
217.081020
 20
69.550238
 30
0.0
 10
217.081020
 20
83.550237
 30
0.0
 10
203.081020
 20
83.550237
 30
0.0
 10
203.081020
 20
69.550238
 30
0.0
  0
LWPOLYLINE
  5
1bc
100
AcDbEntity
  8
0
 62
7
100
AcDbPolyline
 90
4
 70
1
 10
198.031020
 20
69.550238
 30
0.0
 10
198.031020
 20
83.550237
 30
0.0
 10
184.031021
 20
83.550237
 30
0.0
 10
184.031021
 20
69.550238
 30
0.0
  0
LWPOLYLINE
  5
1bd
100
AcDbEntity
  8
0
 62
7
100
AcDbPolyline
 90
4
 70
1
 10
178.981021
 20
69.550238
 30
0.0
 10
178.981021
 20
83.550237
 30
0.0
 10
164.981022
 20
83.550237
 30
0.0
 10
164.981022
 20
69.550238
 30
0.0
  0
LWPOLYLINE
  5
1be
100
AcDbEntity
  8
0
 62
7
100
AcDbPolyline
 90
4
 70
1
 10
159.931022
 20
69.550238
 30
0.0
 10
159.931022
 20
83.550237
 30
0.0
 10
145.931023
 20
83.550237
 30
0.0
 10
145.931023
 20
69.550238
 30
0.0
  0
LWPOLYLINE
  5
1bf
100
AcDbEntity
  8
0
 62
7
100
AcDbPolyline
 90
4
 70
1
 10
140.881023
 20
69.550238
 30
0.0
 10
140.881023
 20
83.550237
 30
0.0
 10
126.881023
 20
83.550237
 30
0.0
 10
126.881023
 20
69.550238
 30
0.0
  0
LWPOLYLINE
  5
1c0
100
AcDbEntity
  8
0
 62
7
100
AcDbPolyline
 90
4
 70
1
 10
121.831024
 20
69.550238
 30
0.0
 10
121.831024
 20
83.550237
 30
0.0
 10
107.831024
 20
83.550237
 30
0.0
 10
107.831024
 20
69.550238
 30
0.0
  0
LWPOLYLINE
  5
1c1
100
AcDbEntity
  8
0
 62
7
100
AcDbPolyline
 90
4
 70
1
 10
102.781024
 20
69.550238
 30
0.0
 10
102.781024
 20
83.550237
 30
0.0
 10
88.781025
 20
83.550237
 30
0.0
 10
88.781025
 20
69.550238
 30
0.0
  0
LWPOLYLINE
  5
1c2
100
AcDbEntity
  8
0
 62
7
100
AcDbPolyline
 90
4
 70
1
 10
83.731025
 20
69.550238
 30
0.0
 10
83.731025
 20
83.550237
 30
0.0
 10
69.731026
 20
83.550237
 30
0.0
 10
69.731026
 20
69.550238
 30
0.0
  0
LWPOLYLINE
  5
1c3
100
AcDbEntity
  8
0
 62
7
100
AcDbPolyline
 90
4
 70
1
 10
59.919026
 20
69.550238
 30
0.0
 10
59.919026
 20
83.550237
 30
0.0
 10
45.919027
 20
83.550237
 30
0.0
 10
45.919027
 20
69.550238
 30
0.0
  0
LWPOLYLINE
  5
1c4
100
AcDbEntity
  8
0
 62
7
100
AcDbPolyline
 90
4
 70
1
 10
26.581028
 20
69.550238
 30
0.0
 10
26.581028
 20
83.550237
 30
0.0
 10
12.581028
 20
83.550237
 30
0.0
 10
12.581028
 20
69.550238
 30
0.0
  0
LWPOLYLINE
  5
1c5
100
AcDbEntity
  8
0
 62
7
100
AcDbPolyline
 90
36
 70
1
 10
72.956026
 20
58.000238
 30
0.0
 10
72.956026
 20
64.270238
 30
0.0
 10
71.231026
 20
64.270238
 30
0.0
 10
71.231026
 20
65.470238
 30
0.0
 10
67.931026
 20
65.470238
 30
0.0
 10
67.931026
 20
64.270238
 30
0.0
 10
66.206026
 20
64.270238
 30
0.0
 10
66.206026
 20
59.800238
 30
0.0
 10
64.681026
 20
59.800238
 30
0.0
 10
64.681026
 20
64.500238
 30
0.0
 10
50.681027
 20
64.500238
 30
0.0
 10
50.681027
 20
59.800238
 30
0.0
 10
49.156027
 20
59.800238
 30
0.0
 10
49.156027
 20
64.270238
 30
0.0
 10
47.431027
 20
64.270238
 30
0.0
 10
47.431027
 20
65.470238
 30
0.0
 10
44.131027
 20
65.470238
 30
0.0
 10
44.131027
 20
64.270238
 30
0.0
 10
42.406027
 20
64.270238
 30
0.0
 10
42.406027
 20
58.000238
 30
0.0
 10
41.581027
 20
58.000238
 30
0.0
 10
41.581027
 20
55.200238
 30
0.0
 10
42.406027
 20
55.200238
 30
0.0
 10
42.406027
 20
51.970238
 30
0.0
 10
49.156027
 20
51.970238
 30
0.0
 10
49.156027
 20
55.200238
 30
0.0
 10
50.681027
 20
55.200238
 30
0.0
 10
50.681027
 20
50.500238
 30
0.0
 10
64.681026
 20
50.500238
 30
0.0
 10
64.681026
 20
55.200238
 30
0.0
 10
66.206026
 20
55.200238
 30
0.0
 10
66.206026
 20
51.970238
 30
0.0
 10
72.956026
 20
51.970238
 30
0.0
 10
72.956026
 20
55.200238
 30
0.0
 10
73.781026
 20
55.200238
 30
0.0
 10
73.781026
 20
58.000238
 30
0.0
  0
LWPOLYLINE
  5
1c6
100
AcDbEntity
  8
0
 62
7
100
AcDbPolyline
 90
4
 70
1
 10
321.856015
 20
50.500238
 30
0.0
 10
321.856015
 20
64.500238
 30
0.0
 10
307.856016
 20
64.500238
 30
0.0
 10
307.856016
 20
50.500238
 30
0.0
  0
LWPOLYLINE
  5
1c7
100
AcDbEntity
  8
0
 62
7
100
AcDbPolyline
 90
4
 70
1
 10
302.806016
 20
50.500238
 30
0.0
 10
302.806016
 20
64.500238
 30
0.0
 10
288.806017
 20
64.500238
 30
0.0
 10
288.806017
 20
50.500238
 30
0.0
  0
LWPOLYLINE
  5
1c8
100
AcDbEntity
  8
0
 62
7
100
AcDbPolyline
 90
4
 70
1
 10
283.756017
 20
50.500238
 30
0.0
 10
283.756017
 20
64.500238
 30
0.0
 10
269.756017
 20
64.500238
 30
0.0
 10
269.756017
 20
50.500238
 30
0.0
  0
LWPOLYLINE
  5
1c9
100
AcDbEntity
  8
0
 62
7
100
AcDbPolyline
 90
4
 70
1
 10
264.706018
 20
50.500238
 30
0.0
 10
264.706018
 20
64.500238
 30
0.0
 10
250.706018
 20
64.500238
 30
0.0
 10
250.706018
 20
50.500238
 30
0.0
  0
LWPOLYLINE
  5
1ca
100
AcDbEntity
  8
0
 62
7
100
AcDbPolyline
 90
4
 70
1
 10
245.656018
 20
50.500238
 30
0.0
 10
245.656018
 20
64.500238
 30
0.0
 10
231.656019
 20
64.500238
 30
0.0
 10
231.656019
 20
50.500238
 30
0.0
  0
LWPOLYLINE
  5
1cb
100
AcDbEntity
  8
0
 62
7
100
AcDbPolyline
 90
4
 70
1
 10
226.607019
 20
50.500238
 30
0.0
 10
226.607019
 20
64.500238
 30
0.0
 10
212.607020
 20
64.500238
 30
0.0
 10
212.607020
 20
50.500238
 30
0.0
  0
LWPOLYLINE
  5
1cc
100
AcDbEntity
  8
0
 62
7
100
AcDbPolyline
 90
4
 70
1
 10
207.556020
 20
50.500238
 30
0.0
 10
207.556020
 20
64.500238
 30
0.0
 10
193.556021
 20
64.500238
 30
0.0
 10
193.556021
 20
50.500238
 30
0.0
  0
LWPOLYLINE
  5
1cd
100
AcDbEntity
  8
0
 62
7
100
AcDbPolyline
 90
4
 70
1
 10
188.506021
 20
50.500238
 30
0.0
 10
188.506021
 20
64.500238
 30
0.0
 10
174.506021
 20
64.500238
 30
0.0
 10
174.506021
 20
50.500238
 30
0.0
  0
LWPOLYLINE
  5
1ce
100
AcDbEntity
  8
0
 62
7
100
AcDbPolyline
 90
4
 70
1
 10
169.456022
 20
50.500238
 30
0.0
 10
169.456022
 20
64.500238
 30
0.0
 10
155.456022
 20
64.500238
 30
0.0
 10
155.456022
 20
50.500238
 30
0.0
  0
LWPOLYLINE
  5
1cf
100
AcDbEntity
  8
0
 62
7
100
AcDbPolyline
 90
4
 70
1
 10
150.406022
 20
50.500238
 30
0.0
 10
150.406022
 20
64.500238
 30
0.0
 10
136.406023
 20
64.500238
 30
0.0
 10
136.406023
 20
50.500238
 30
0.0
  0
LWPOLYLINE
  5
1d0
100
AcDbEntity
  8
0
 62
7
100
AcDbPolyline
 90
4
 70
1
 10
131.356023
 20
50.500238
 30
0.0
 10
131.356023
 20
64.500238
 30
0.0
 10
117.356024
 20
64.500238
 30
0.0
 10
117.356024
 20
50.500238
 30
0.0
  0
LWPOLYLINE
  5
1d1
100
AcDbEntity
  8
0
 62
7
100
AcDbPolyline
 90
4
 70
1
 10
112.306024
 20
50.500238
 30
0.0
 10
112.306024
 20
64.500238
 30
0.0
 10
98.306025
 20
64.500238
 30
0.0
 10
98.306025
 20
50.500238
 30
0.0
  0
LWPOLYLINE
  5
1d2
100
AcDbEntity
  8
0
 62
7
100
AcDbPolyline
 90
4
 70
1
 10
93.256025
 20
50.500238
 30
0.0
 10
93.256025
 20
64.500238
 30
0.0
 10
79.256025
 20
64.500238
 30
0.0
 10
79.256025
 20
50.500238
 30
0.0
  0
LWPOLYLINE
  5
1d3
100
AcDbEntity
  8
0
 62
7
100
AcDbPolyline
 90
4
 70
1
 10
26.641134
 20
44.633407
 30
0.0
 10
12.740905
 20
44.633407
 30
0.0
 10
12.740905
 20
60.633614
 30
0.0
 10
26.641134
 20
60.633614
 30
0.0
  0
LWPOLYLINE
  5
1d4
100
AcDbEntity
  8
0
 62
7
100
AcDbPolyline
 90
4
 70
1
 10
323.128591
 20
29.207429
 30
0.0
 10
283.229448
 20
29.207429
 30
0.0
 10
283.229448
 20
43.306570
 30
0.0
 10
323.128591
 20
43.306570
 30
0.0
  0
SPLINE
  5
1d5
100
AcDbEntity
  8
0
 62
7
100
AcDbSpline
 70
8
 71
3
 72
8
 73
4
 74
0
 40
0
 40
0
 40
0
 40
0
 40
1
 40
1
 40
1
 40
1
 10
72.096328
 20
19.057590
 30
0.0
 10
70.770247
 20
19.057590
 30
0.0
 10
69.498348
 20
19.584375
 30
0.0
 10
68.560659
 20
20.522058
 30
0.0
  0
SPLINE
  5
1d6
100
AcDbEntity
  8
0
 62
7
100
AcDbSpline
 70
8
 71
3
 72
8
 73
4
 74
0
 40
0
 40
0
 40
0
 40
0
 40
1
 40
1
 40
1
 40
1
 10
68.560659
 20
20.522058
 30
0.0
 10
67.622978
 20
21.459742
 30
0.0
 10
60.336361
 20
27.742246
 30
0.0
 10
59.417540
 20
28.645984
 30
0.0
  0
SPLINE
  5
1d7
100
AcDbEntity
  8
0
 62
7
100
AcDbSpline
 70
8
 71
3
 72
8
 73
4
 74
0
 40
0
 40
0
 40
0
 40
0
 40
1
 40
1
 40
1
 40
1
 10
59.417540
 20
28.645984
 30
0.0
 10
58.498711
 20
29.549695
 30
0.0
 10
57.227870
 20
30.107172
 30
0.0
 10
55.819770
 20
30.107172
 30
0.0
  0
SPLINE
  5
1d8
100
AcDbEntity
  8
0
 62
7
100
AcDbSpline
 70
8
 71
3
 72
8
 73
4
 74
0
 40
0
 40
0
 40
0
 40
0
 40
1
 40
1
 40
1
 40
1
 10
5.083400
 20
30.107172
 30
0.0
 10
2.267191
 20
30.107172
 30
0.0
 10
0.000000
 20
27.877263
 30
0.0
 10
0.000000
 20
25.107340
 30
0.0
  0
LWPOLYLINE
  5
1d9
100
AcDbEntity
  8
0
 62
7
100
AcDbPolyline
 90
36
 70
1
 10
140.038021
 20
133.200234
 30
0.0
 10
140.038021
 20
126.930233
 30
0.0
 10
141.763022
 20
126.930233
 30
0.0
 10
141.763022
 20
125.730234
 30
0.0
 10
145.063022
 20
125.730234
 30
0.0
 10
145.063022
 20
126.930233
 30
0.0
 10
146.788021
 20
126.930233
 30
0.0
 10
146.788021
 20
131.400234
 30
0.0
 10
186.413021
 20
131.400234
 30
0.0
 10
186.413021
 20
126.700234
 30
0.0
 10
200.413019
 20
126.700234
 30
0.0
 10
200.413019
 20
131.400234
 30
0.0
 10
240.038020
 20
131.400234
 30
0.0
 10
240.038020
 20
126.930233
 30
0.0
 10
241.763018
 20
126.930233
 30
0.0
 10
241.763018
 20
125.730234
 30
0.0
 10
245.063018
 20
125.730234
 30
0.0
 10
245.063018
 20
126.930233
 30
0.0
 10
246.788019
 20
126.930233
 30
0.0
 10
246.788019
 20
133.200234
 30
0.0
 10
247.613019
 20
133.200234
 30
0.0
 10
247.613019
 20
136.000232
 30
0.0
 10
246.788019
 20
136.000232
 30
0.0
 10
246.788019
 20
139.230234
 30
0.0
 10
240.038020
 20
139.230234
 30
0.0
 10
240.038020
 20
136.000232
 30
0.0
 10
200.413019
 20
136.000232
 30
0.0
 10
200.413019
 20
140.700232
 30
0.0
 10
186.413021
 20
140.700232
 30
0.0
 10
186.413021
 20
136.000232
 30
0.0
 10
146.788021
 20
136.000232
 30
0.0
 10
146.788021
 20
139.230234
 30
0.0
 10
140.038021
 20
139.230234
 30
0.0
 10
140.038021
 20
136.000232
 30
0.0
 10
139.213021
 20
136.000232
 30
0.0
 10
139.213021
 20
133.200234
 30
0.0
  0
SPLINE
  5
1da
100
AcDbEntity
  8
0
 62
7
100
AcDbSpline
 70
8
 71
3
 72
8
 73
4
 74
0
 40
0
 40
0
 40
0
 40
0
 40
1
 40
1
 40
1
 40
1
 10
0.002000
 20
-100.819404
 30
0.0
 10
0.002000
 20
-103.589406
 30
0.0
 10
2.232001
 20
-105.819394
 30
0.0
 10
5.001990
 20
-105.819394
 30
0.0
  0
LWPOLYLINE
  5
1db
100
AcDbEntity
  8
0
 62
7
100
AcDbPolyline
 90
2
 70
0
 10
55.819770
 20
30.107172
 30
0.0
 10
5.083400
 20
30.107172
 30
0.0
  0
SPLINE
  5
1dc
100
AcDbEntity
  8
0
 62
7
100
AcDbSpline
 70
8
 71
3
 72
8
 73
4
 74
0
 40
0
 40
0
 40
0
 40
0
 40
1
 40
1
 40
1
 40
1
 10
329.429031
 20
-105.819394
 30
0.0
 10
332.199006
 20
-105.819394
 30
0.0
 10
334.429021
 20
-103.589406
 30
0.0
 10
334.429021
 20
-100.819404
 30
0.0
  0
LWPOLYLINE
  5
1dd
100
AcDbEntity
  8
0
 62
7
100
AcDbPolyline
 90
4
 70
0
 10
0.000000
 20
25.107340
 30
0.0
 10
0.000000
 20
17.699457
 30
0.0
 10
0.002117
 20
14.057600
 30
0.0
 10
0.002117
 20
-100.819404
 30
0.0
  0
SPLINE
  5
1de
100
AcDbEntity
  8
0
 62
7
100
AcDbSpline
 70
8
 71
3
 72
8
 73
4
 74
0
 40
0
 40
0
 40
0
 40
0
 40
1
 40
1
 40
1
 40
1
 10
334.429021
 20
14.057600
 30
0.0
 10
334.429021
 20
16.827602
 30
0.0
 10
332.199006
 20
19.057590
 30
0.0
 10
329.429031
 20
19.057590
 30
0.0
  0
LWPOLYLINE
  5
1df
100
AcDbEntity
  8
0
 62
7
100
AcDbPolyline
 90
2
 70
0
 10
5.001990
 20
-105.819394
 30
0.0
 10
329.429031
 20
-105.819394
 30
0.0
  0
LWPOLYLINE
  5
1e0
100
AcDbEntity
  8
0
 62
7
100
AcDbPolyline
 90
2
 70
0
 10
334.429021
 20
-100.819404
 30
0.0
 10
334.429021
 20
14.057600
 30
0.0
  0
SPLINE
  5
1e1
100
AcDbEntity
  8
0
 62
7
100
AcDbSpline
 70
8
 71
3
 72
8
 73
4
 74
0
 40
0
 40
0
 40
0
 40
0
 40
1
 40
1
 40
1
 40
1
 10
6.596774
 20
25.107009
 30
0.0
 10
6.596774
 20
24.536536
 30
0.0
 10
6.292431
 20
24.009398
 30
0.0
 10
5.798387
 20
23.724162
 30
0.0
  0
SPLINE
  5
1e2
100
AcDbEntity
  8
0
 62
7
100
AcDbSpline
 70
8
 71
3
 72
8
 73
4
 74
0
 40
0
 40
0
 40
0
 40
0
 40
1
 40
1
 40
1
 40
1
 10
5.798387
 20
23.724162
 30
0.0
 10
5.304343
 20
23.438925
 30
0.0
 10
4.695657
 20
23.438925
 30
0.0
 10
4.201613
 20
23.724162
 30
0.0
  0
SPLINE
  5
1e3
100
AcDbEntity
  8
0
 62
7
100
AcDbSpline
 70
8
 71
3
 72
8
 73
4
 74
0
 40
0
 40
0
 40
0
 40
0
 40
1
 40
1
 40
1
 40
1
 10
4.201613
 20
23.724162
 30
0.0
 10
3.707569
 20
24.009398
 30
0.0
 10
3.403226
 20
24.536536
 30
0.0
 10
3.403226
 20
25.107009
 30
0.0
  0
SPLINE
  5
1e4
100
AcDbEntity
  8
0
 62
7
100
AcDbSpline
 70
8
 71
3
 72
8
 73
4
 74
0
 40
0
 40
0
 40
0
 40
0
 40
1
 40
1
 40
1
 40
1
 10
3.403226
 20
25.107009
 30
0.0
 10
3.403226
 20
25.677481
 30
0.0
 10
3.707569
 20
26.204619
 30
0.0
 10
4.201613
 20
26.489856
 30
0.0
  0
SPLINE
  5
1e5
100
AcDbEntity
  8
0
 62
7
100
AcDbSpline
 70
8
 71
3
 72
8
 73
4
 74
0
 40
0
 40
0
 40
0
 40
0
 40
1
 40
1
 40
1
 40
1
 10
4.201613
 20
26.489856
 30
0.0
 10
4.695657
 20
26.775092
 30
0.0
 10
5.304343
 20
26.775092
 30
0.0
 10
5.798387
 20
26.489856
 30
0.0
  0
SPLINE
  5
1e6
100
AcDbEntity
  8
0
 62
7
100
AcDbSpline
 70
8
 71
3
 72
8
 73
4
 74
0
 40
0
 40
0
 40
0
 40
0
 40
1
 40
1
 40
1
 40
1
 10
5.798387
 20
26.489856
 30
0.0
 10
6.292431
 20
26.204619
 30
0.0
 10
6.596774
 20
25.677481
 30
0.0
 10
6.596774
 20
25.107009
 30
0.0
  0
LWPOLYLINE
  5
1e7
100
AcDbEntity
  8
0
 62
7
100
AcDbPolyline
 90
3
 70
0
 10
329.429031
 20
19.057590
 30
0.0
 10
72.880577
 20
19.057590
 30
0.0
 10
72.096328
 20
19.057590
 30
0.0
  0
SPLINE
  5
1e8
100
AcDbEntity
  8
0
 62
7
100
AcDbSpline
 70
8
 71
3
 72
8
 73
4
 74
0
 40
0
 40
0
 40
0
 40
0
 40
1
 40
1
 40
1
 40
1
 10
6.596774
 20
-100.842991
 30
0.0
 10
6.596774
 20
-101.413464
 30
0.0
 10
6.292431
 20
-101.940602
 30
0.0
 10
5.798387
 20
-102.225838
 30
0.0
  0
SPLINE
  5
1e9
100
AcDbEntity
  8
0
 62
7
100
AcDbSpline
 70
8
 71
3
 72
8
 73
4
 74
0
 40
0
 40
0
 40
0
 40
0
 40
1
 40
1
 40
1
 40
1
 10
5.798387
 20
-102.225838
 30
0.0
 10
5.304343
 20
-102.511075
 30
0.0
 10
4.695657
 20
-102.511075
 30
0.0
 10
4.201613
 20
-102.225838
 30
0.0
  0
SPLINE
  5
1ea
100
AcDbEntity
  8
0
 62
7
100
AcDbSpline
 70
8
 71
3
 72
8
 73
4
 74
0
 40
0
 40
0
 40
0
 40
0
 40
1
 40
1
 40
1
 40
1
 10
4.201613
 20
-102.225838
 30
0.0
 10
3.707569
 20
-101.940602
 30
0.0
 10
3.403226
 20
-101.413464
 30
0.0
 10
3.403226
 20
-100.842991
 30
0.0
  0
SPLINE
  5
1eb
100
AcDbEntity
  8
0
 62
7
100
AcDbSpline
 70
8
 71
3
 72
8
 73
4
 74
0
 40
0
 40
0
 40
0
 40
0
 40
1
 40
1
 40
1
 40
1
 10
3.403226
 20
-100.842991
 30
0.0
 10
3.403226
 20
-100.272519
 30
0.0
 10
3.707569
 20
-99.745381
 30
0.0
 10
4.201613
 20
-99.460144
 30
0.0
  0
SPLINE
  5
1ec
100
AcDbEntity
  8
0
 62
7
100
AcDbSpline
 70
8
 71
3
 72
8
 73
4
 74
0
 40
0
 40
0
 40
0
 40
0
 40
1
 40
1
 40
1
 40
1
 10
4.201613
 20
-99.460144
 30
0.0
 10
4.695657
 20
-99.174908
 30
0.0
 10
5.304343
 20
-99.174908
 30
0.0
 10
5.798387
 20
-99.460144
 30
0.0
  0
SPLINE
  5
1ed
100
AcDbEntity
  8
0
 62
7
100
AcDbSpline
 70
8
 71
3
 72
8
 73
4
 74
0
 40
0
 40
0
 40
0
 40
0
 40
1
 40
1
 40
1
 40
1
 10
5.798387
 20
-99.460144
 30
0.0
 10
6.292431
 20
-99.745381
 30
0.0
 10
6.596774
 20
-100.272519
 30
0.0
 10
6.596774
 20
-100.842991
 30
0.0
  0
LWPOLYLINE
  5
1ee
100
AcDbEntity
  8
0
 62
7
100
AcDbPolyline
 90
1
 70
1
 10
6.596774
 20
25.107009
 30
0.0
  0
SPLINE
  5
1ef
100
AcDbEntity
  8
0
 62
7
100
AcDbSpline
 70
8
 71
3
 72
8
 73
4
 74
0
 40
0
 40
0
 40
0
 40
0
 40
1
 40
1
 40
1
 40
1
 10
331.075758
 20
-100.842991
 30
0.0
 10
331.075758
 20
-101.413464
 30
0.0
 10
330.771415
 20
-101.940602
 30
0.0
 10
330.277371
 20
-102.225838
 30
0.0
  0
SPLINE
  5
1f0
100
AcDbEntity
  8
0
 62
7
100
AcDbSpline
 70
8
 71
3
 72
8
 73
4
 74
0
 40
0
 40
0
 40
0
 40
0
 40
1
 40
1
 40
1
 40
1
 10
330.277371
 20
-102.225838
 30
0.0
 10
329.783327
 20
-102.511075
 30
0.0
 10
329.174641
 20
-102.511075
 30
0.0
 10
328.680597
 20
-102.225838
 30
0.0
  0
SPLINE
  5
1f1
100
AcDbEntity
  8
0
 62
7
100
AcDbSpline
 70
8
 71
3
 72
8
 73
4
 74
0
 40
0
 40
0
 40
0
 40
0
 40
1
 40
1
 40
1
 40
1
 10
328.680597
 20
-102.225838
 30
0.0
 10
328.186553
 20
-101.940602
 30
0.0
 10
327.882210
 20
-101.413464
 30
0.0
 10
327.882210
 20
-100.842991
 30
0.0
  0
SPLINE
  5
1f2
100
AcDbEntity
  8
0
 62
7
100
AcDbSpline
 70
8
 71
3
 72
8
 73
4
 74
0
 40
0
 40
0
 40
0
 40
0
 40
1
 40
1
 40
1
 40
1
 10
327.882210
 20
-100.842991
 30
0.0
 10
327.882210
 20
-100.272519
 30
0.0
 10
328.186553
 20
-99.745381
 30
0.0
 10
328.680597
 20
-99.460144
 30
0.0
  0
SPLINE
  5
1f3
100
AcDbEntity
  8
0
 62
7
100
AcDbSpline
 70
8
 71
3
 72
8
 73
4
 74
0
 40
0
 40
0
 40
0
 40
0
 40
1
 40
1
 40
1
 40
1
 10
328.680597
 20
-99.460144
 30
0.0
 10
329.174641
 20
-99.174908
 30
0.0
 10
329.783327
 20
-99.174908
 30
0.0
 10
330.277371
 20
-99.460144
 30
0.0
  0
SPLINE
  5
1f4
100
AcDbEntity
  8
0
 62
7
100
AcDbSpline
 70
8
 71
3
 72
8
 73
4
 74
0
 40
0
 40
0
 40
0
 40
0
 40
1
 40
1
 40
1
 40
1
 10
330.277371
 20
-99.460144
 30
0.0
 10
330.771415
 20
-99.745381
 30
0.0
 10
331.075758
 20
-100.272519
 30
0.0
 10
331.075758
 20
-100.842991
 30
0.0
  0
LWPOLYLINE
  5
1f5
100
AcDbEntity
  8
0
 62
7
100
AcDbPolyline
 90
1
 70
1
 10
6.596774
 20
-100.842991
 30
0.0
  0
SPLINE
  5
1f6
100
AcDbEntity
  8
0
 62
7
100
AcDbSpline
 70
8
 71
3
 72
8
 73
4
 74
0
 40
0
 40
0
 40
0
 40
0
 40
1
 40
1
 40
1
 40
1
 10
331.075758
 20
14.007009
 30
0.0
 10
331.075758
 20
13.436536
 30
0.0
 10
330.771415
 20
12.909398
 30
0.0
 10
330.277371
 20
12.624162
 30
0.0
  0
SPLINE
  5
1f7
100
AcDbEntity
  8
0
 62
7
100
AcDbSpline
 70
8
 71
3
 72
8
 73
4
 74
0
 40
0
 40
0
 40
0
 40
0
 40
1
 40
1
 40
1
 40
1
 10
330.277371
 20
12.624162
 30
0.0
 10
329.783327
 20
12.338926
 30
0.0
 10
329.174641
 20
12.338926
 30
0.0
 10
328.680597
 20
12.624162
 30
0.0
  0
SPLINE
  5
1f8
100
AcDbEntity
  8
0
 62
7
100
AcDbSpline
 70
8
 71
3
 72
8
 73
4
 74
0
 40
0
 40
0
 40
0
 40
0
 40
1
 40
1
 40
1
 40
1
 10
328.680597
 20
12.624162
 30
0.0
 10
328.186553
 20
12.909398
 30
0.0
 10
327.882210
 20
13.436536
 30
0.0
 10
327.882210
 20
14.007009
 30
0.0
  0
SPLINE
  5
1f9
100
AcDbEntity
  8
0
 62
7
100
AcDbSpline
 70
8
 71
3
 72
8
 73
4
 74
0
 40
0
 40
0
 40
0
 40
0
 40
1
 40
1
 40
1
 40
1
 10
327.882210
 20
14.007009
 30
0.0
 10
327.882210
 20
14.577481
 30
0.0
 10
328.186553
 20
15.104620
 30
0.0
 10
328.680597
 20
15.389856
 30
0.0
  0
SPLINE
  5
1fa
100
AcDbEntity
  8
0
 62
7
100
AcDbSpline
 70
8
 71
3
 72
8
 73
4
 74
0
 40
0
 40
0
 40
0
 40
0
 40
1
 40
1
 40
1
 40
1
 10
328.680597
 20
15.389856
 30
0.0
 10
329.174641
 20
15.675092
 30
0.0
 10
329.783327
 20
15.675092
 30
0.0
 10
330.277371
 20
15.389856
 30
0.0
  0
SPLINE
  5
1fb
100
AcDbEntity
  8
0
 62
7
100
AcDbSpline
 70
8
 71
3
 72
8
 73
4
 74
0
 40
0
 40
0
 40
0
 40
0
 40
1
 40
1
 40
1
 40
1
 10
330.277371
 20
15.389856
 30
0.0
 10
330.771415
 20
15.104620
 30
0.0
 10
331.075758
 20
14.577481
 30
0.0
 10
331.075758
 20
14.007009
 30
0.0
  0
LWPOLYLINE
  5
1fc
100
AcDbEntity
  8
0
 62
7
100
AcDbPolyline
 90
1
 70
1
 10
331.075758
 20
-100.842991
 30
0.0
  0
SPLINE
  5
1fd
100
AcDbEntity
  8
0
 62
7
100
AcDbSpline
 70
8
 71
3
 72
8
 73
4
 74
0
 40
0
 40
0
 40
0
 40
0
 40
1
 40
1
 40
1
 40
1
 10
222.915774
 20
-100.842991
 30
0.0
 10
222.915774
 20
-101.413464
 30
0.0
 10
222.611431
 20
-101.940602
 30
0.0
 10
222.117387
 20
-102.225838
 30
0.0
  0
SPLINE
  5
1fe
100
AcDbEntity
  8
0
 62
7
100
AcDbSpline
 70
8
 71
3
 72
8
 73
4
 74
0
 40
0
 40
0
 40
0
 40
0
 40
1
 40
1
 40
1
 40
1
 10
222.117387
 20
-102.225838
 30
0.0
 10
221.623343
 20
-102.511075
 30
0.0
 10
221.014657
 20
-102.511075
 30
0.0
 10
220.520613
 20
-102.225838
 30
0.0
  0
SPLINE
  5
1ff
100
AcDbEntity
  8
0
 62
7
100
AcDbSpline
 70
8
 71
3
 72
8
 73
4
 74
0
 40
0
 40
0
 40
0
 40
0
 40
1
 40
1
 40
1
 40
1
 10
220.520613
 20
-102.225838
 30
0.0
 10
220.026569
 20
-101.940602
 30
0.0
 10
219.722226
 20
-101.413464
 30
0.0
 10
219.722226
 20
-100.842991
 30
0.0
  0
SPLINE
  5
200
100
AcDbEntity
  8
0
 62
7
100
AcDbSpline
 70
8
 71
3
 72
8
 73
4
 74
0
 40
0
 40
0
 40
0
 40
0
 40
1
 40
1
 40
1
 40
1
 10
219.722226
 20
-100.842991
 30
0.0
 10
219.722226
 20
-100.272519
 30
0.0
 10
220.026569
 20
-99.745381
 30
0.0
 10
220.520613
 20
-99.460144
 30
0.0
  0
SPLINE
  5
201
100
AcDbEntity
  8
0
 62
7
100
AcDbSpline
 70
8
 71
3
 72
8
 73
4
 74
0
 40
0
 40
0
 40
0
 40
0
 40
1
 40
1
 40
1
 40
1
 10
220.520613
 20
-99.460144
 30
0.0
 10
221.014657
 20
-99.174908
 30
0.0
 10
221.623343
 20
-99.174908
 30
0.0
 10
222.117387
 20
-99.460144
 30
0.0
  0
SPLINE
  5
202
100
AcDbEntity
  8
0
 62
7
100
AcDbSpline
 70
8
 71
3
 72
8
 73
4
 74
0
 40
0
 40
0
 40
0
 40
0
 40
1
 40
1
 40
1
 40
1
 10
222.117387
 20
-99.460144
 30
0.0
 10
222.611431
 20
-99.745381
 30
0.0
 10
222.915774
 20
-100.272519
 30
0.0
 10
222.915774
 20
-100.842991
 30
0.0
  0
LWPOLYLINE
  5
203
100
AcDbEntity
  8
0
 62
7
100
AcDbPolyline
 90
1
 70
1
 10
331.075758
 20
14.007009
 30
0.0
  0
SPLINE
  5
204
100
AcDbEntity
  8
0
 62
7
100
AcDbSpline
 70
8
 71
3
 72
8
 73
4
 74
0
 40
0
 40
0
 40
0
 40
0
 40
1
 40
1
 40
1
 40
1
 10
114.756777
 20
-100.842991
 30
0.0
 10
114.756777
 20
-101.413464
 30
0.0
 10
114.452434
 20
-101.940602
 30
0.0
 10
113.958390
 20
-102.225838
 30
0.0
  0
SPLINE
  5
205
100
AcDbEntity
  8
0
 62
7
100
AcDbSpline
 70
8
 71
3
 72
8
 73
4
 74
0
 40
0
 40
0
 40
0
 40
0
 40
1
 40
1
 40
1
 40
1
 10
113.958390
 20
-102.225838
 30
0.0
 10
113.464346
 20
-102.511075
 30
0.0
 10
112.855660
 20
-102.511075
 30
0.0
 10
112.361616
 20
-102.225838
 30
0.0
  0
SPLINE
  5
206
100
AcDbEntity
  8
0
 62
7
100
AcDbSpline
 70
8
 71
3
 72
8
 73
4
 74
0
 40
0
 40
0
 40
0
 40
0
 40
1
 40
1
 40
1
 40
1
 10
112.361616
 20
-102.225838
 30
0.0
 10
111.867572
 20
-101.940602
 30
0.0
 10
111.563229
 20
-101.413464
 30
0.0
 10
111.563229
 20
-100.842991
 30
0.0
  0
SPLINE
  5
207
100
AcDbEntity
  8
0
 62
7
100
AcDbSpline
 70
8
 71
3
 72
8
 73
4
 74
0
 40
0
 40
0
 40
0
 40
0
 40
1
 40
1
 40
1
 40
1
 10
111.563229
 20
-100.842991
 30
0.0
 10
111.563229
 20
-100.272519
 30
0.0
 10
111.867572
 20
-99.745381
 30
0.0
 10
112.361616
 20
-99.460144
 30
0.0
  0
SPLINE
  5
208
100
AcDbEntity
  8
0
 62
7
100
AcDbSpline
 70
8
 71
3
 72
8
 73
4
 74
0
 40
0
 40
0
 40
0
 40
0
 40
1
 40
1
 40
1
 40
1
 10
112.361616
 20
-99.460144
 30
0.0
 10
112.855660
 20
-99.174908
 30
0.0
 10
113.464346
 20
-99.174908
 30
0.0
 10
113.958390
 20
-99.460144
 30
0.0
  0
SPLINE
  5
209
100
AcDbEntity
  8
0
 62
7
100
AcDbSpline
 70
8
 71
3
 72
8
 73
4
 74
0
 40
0
 40
0
 40
0
 40
0
 40
1
 40
1
 40
1
 40
1
 10
113.958390
 20
-99.460144
 30
0.0
 10
114.452434
 20
-99.745381
 30
0.0
 10
114.756777
 20
-100.272519
 30
0.0
 10
114.756777
 20
-100.842991
 30
0.0
  0
LWPOLYLINE
  5
20a
100
AcDbEntity
  8
0
 62
7
100
AcDbPolyline
 90
1
 70
1
 10
222.915774
 20
-100.842991
 30
0.0
  0
SPLINE
  5
20b
100
AcDbEntity
  8
0
 62
7
100
AcDbSpline
 70
8
 71
3
 72
8
 73
4
 74
0
 40
0
 40
0
 40
0
 40
0
 40
1
 40
1
 40
1
 40
1
 10
222.915774
 20
14.007009
 30
0.0
 10
222.915774
 20
13.436536
 30
0.0
 10
222.611431
 20
12.909398
 30
0.0
 10
222.117387
 20
12.624162
 30
0.0
  0
SPLINE
  5
20c
100
AcDbEntity
  8
0
 62
7
100
AcDbSpline
 70
8
 71
3
 72
8
 73
4
 74
0
 40
0
 40
0
 40
0
 40
0
 40
1
 40
1
 40
1
 40
1
 10
222.117387
 20
12.624162
 30
0.0
 10
221.623343
 20
12.338926
 30
0.0
 10
221.014657
 20
12.338926
 30
0.0
 10
220.520613
 20
12.624162
 30
0.0
  0
SPLINE
  5
20d
100
AcDbEntity
  8
0
 62
7
100
AcDbSpline
 70
8
 71
3
 72
8
 73
4
 74
0
 40
0
 40
0
 40
0
 40
0
 40
1
 40
1
 40
1
 40
1
 10
220.520613
 20
12.624162
 30
0.0
 10
220.026569
 20
12.909398
 30
0.0
 10
219.722226
 20
13.436536
 30
0.0
 10
219.722226
 20
14.007009
 30
0.0
  0
SPLINE
  5
20e
100
AcDbEntity
  8
0
 62
7
100
AcDbSpline
 70
8
 71
3
 72
8
 73
4
 74
0
 40
0
 40
0
 40
0
 40
0
 40
1
 40
1
 40
1
 40
1
 10
219.722226
 20
14.007009
 30
0.0
 10
219.722226
 20
14.577481
 30
0.0
 10
220.026569
 20
15.104620
 30
0.0
 10
220.520613
 20
15.389856
 30
0.0
  0
SPLINE
  5
20f
100
AcDbEntity
  8
0
 62
7
100
AcDbSpline
 70
8
 71
3
 72
8
 73
4
 74
0
 40
0
 40
0
 40
0
 40
0
 40
1
 40
1
 40
1
 40
1
 10
220.520613
 20
15.389856
 30
0.0
 10
221.014657
 20
15.675092
 30
0.0
 10
221.623343
 20
15.675092
 30
0.0
 10
222.117387
 20
15.389856
 30
0.0
  0
SPLINE
  5
210
100
AcDbEntity
  8
0
 62
7
100
AcDbSpline
 70
8
 71
3
 72
8
 73
4
 74
0
 40
0
 40
0
 40
0
 40
0
 40
1
 40
1
 40
1
 40
1
 10
222.117387
 20
15.389856
 30
0.0
 10
222.611431
 20
15.104620
 30
0.0
 10
222.915774
 20
14.577481
 30
0.0
 10
222.915774
 20
14.007009
 30
0.0
  0
LWPOLYLINE
  5
211
100
AcDbEntity
  8
0
 62
7
100
AcDbPolyline
 90
1
 70
1
 10
114.756777
 20
-100.842991
 30
0.0
  0
SPLINE
  5
212
100
AcDbEntity
  8
0
 62
7
100
AcDbSpline
 70
8
 71
3
 72
8
 73
4
 74
0
 40
0
 40
0
 40
0
 40
0
 40
1
 40
1
 40
1
 40
1
 10
114.756777
 20
14.007009
 30
0.0
 10
114.756777
 20
13.436536
 30
0.0
 10
114.452434
 20
12.909398
 30
0.0
 10
113.958390
 20
12.624162
 30
0.0
  0
SPLINE
  5
213
100
AcDbEntity
  8
0
 62
7
100
AcDbSpline
 70
8
 71
3
 72
8
 73
4
 74
0
 40
0
 40
0
 40
0
 40
0
 40
1
 40
1
 40
1
 40
1
 10
113.958390
 20
12.624162
 30
0.0
 10
113.464346
 20
12.338926
 30
0.0
 10
112.855660
 20
12.338926
 30
0.0
 10
112.361616
 20
12.624162
 30
0.0
  0
SPLINE
  5
214
100
AcDbEntity
  8
0
 62
7
100
AcDbSpline
 70
8
 71
3
 72
8
 73
4
 74
0
 40
0
 40
0
 40
0
 40
0
 40
1
 40
1
 40
1
 40
1
 10
112.361616
 20
12.624162
 30
0.0
 10
111.867572
 20
12.909398
 30
0.0
 10
111.563229
 20
13.436536
 30
0.0
 10
111.563229
 20
14.007009
 30
0.0
  0
SPLINE
  5
215
100
AcDbEntity
  8
0
 62
7
100
AcDbSpline
 70
8
 71
3
 72
8
 73
4
 74
0
 40
0
 40
0
 40
0
 40
0
 40
1
 40
1
 40
1
 40
1
 10
111.563229
 20
14.007009
 30
0.0
 10
111.563229
 20
14.577481
 30
0.0
 10
111.867572
 20
15.104620
 30
0.0
 10
112.361616
 20
15.389856
 30
0.0
  0
SPLINE
  5
216
100
AcDbEntity
  8
0
 62
7
100
AcDbSpline
 70
8
 71
3
 72
8
 73
4
 74
0
 40
0
 40
0
 40
0
 40
0
 40
1
 40
1
 40
1
 40
1
 10
112.361616
 20
15.389856
 30
0.0
 10
112.855660
 20
15.675092
 30
0.0
 10
113.464346
 20
15.675092
 30
0.0
 10
113.958390
 20
15.389856
 30
0.0
  0
SPLINE
  5
217
100
AcDbEntity
  8
0
 62
7
100
AcDbSpline
 70
8
 71
3
 72
8
 73
4
 74
0
 40
0
 40
0
 40
0
 40
0
 40
1
 40
1
 40
1
 40
1
 10
113.958390
 20
15.389856
 30
0.0
 10
114.452434
 20
15.104620
 30
0.0
 10
114.756777
 20
14.577481
 30
0.0
 10
114.756777
 20
14.007009
 30
0.0
  0
LWPOLYLINE
  5
218
100
AcDbEntity
  8
0
 62
7
100
AcDbPolyline
 90
1
 70
1
 10
222.915774
 20
14.007009
 30
0.0
  0
LWPOLYLINE
  5
219
100
AcDbEntity
  8
0
 62
7
100
AcDbPolyline
 90
1
 70
1
 10
114.756777
 20
14.007009
 30
0.0
  0
ENDSEC
  0
SECTION
  2
OBJECTS
  0
DICTIONARY
  5
C
330
0
100
AcDbDictionary
  3
ACAD_GROUP
350
D
  3
ACAD_MLINESTYLE
350
17
  0
DICTIONARY
  5
D
330
C
100
AcDbDictionary
  0
DICTIONARY
  5
1A
330
C
100
AcDbDictionary
  0
DICTIONARY
  5
17
330
C
100
AcDbDictionary
  3
STANDARD
350
18
  0
DICTIONARY
  5
19
330
C
100
AcDbDictionary
  0
ENDSEC
  0
EOF
