  0
SECTION
  2
HEADER
  9
$ACADVER
  1
AC1014
  9
$HANDSEED
  5
FFFF
  9
$MEASUREMENT
 70
     1
  0
ENDSEC
  0
SECTION
  2
TABLES
  0
TABLE
  2
VPORT
  5
8
330
0
100
AcDbSymbolTable
 70
     4
  0
VPORT
  5
2E
330
8
100
AcDbSymbolTableRecord
100
AcDbViewportTableRecord
  2
*ACTIVE
 70
     0
 10
0.0
 20
0.0
 11
1.0
 21
1.0
 12
210.0
 22
148.5
 13
0.0
 23
0.0
 14
10.0
 24
10.0
 15
10.0
 25
10.0
 16
0.0
 26
0.0
 36
1.0
 17
0.0
 27
0.0
 37
0.0
 40
341.0
 41
1.24
 42
50.0
 43
0.0
 44
0.0
 50
0.0
 51
0.0
 71
     0
 72
   100
 73
     1
 74
     3
 75
     0
 76
     0
 77
     0
 78
     0
  0
ENDTAB
  0
TABLE
  2
LTYPE
  5
5
330
0
100
AcDbSymbolTable
 70
     1
  0
LTYPE
  5
14
330
5
100
AcDbSymbolTableRecord
100
AcDbLinetypeTableRecord
  2
BYBLOCK
 70
     0
  3

 72
    65
 73
     0
 40
0.0
  0
LTYPE
  5
15
330
5
100
AcDbSymbolTableRecord
100
AcDbLinetypeTableRecord
  2
BYLAYER
 70
     0
  3

 72
    65
 73
     0
 40
0.0
  0
LTYPE
  5
16
330
5
100
AcDbSymbolTableRecord
100
AcDbLinetypeTableRecord
  2
CONTINUOUS
 70
     0
  3
Solid line
 72
    65
 73
     0
 40
0.0
  0
ENDTAB
  0
TABLE
  2
LAYER
  5
2
100
AcDbSymbolTable
 70
1
  0
LAYER
  5
50
100
AcDbSymbolTableRecord
100
AcDbLayerTableRecord
  2
0
 70
0
  6
CONTINUOUS
  0
ENDTAB
  0
TABLE
  2
STYLE
  5
3
330
0
100
AcDbSymbolTable
 70
     1
  0
STYLE
  5
11
330
3
100
AcDbSymbolTableRecord
100
AcDbTextStyleTableRecord
  2
STANDARD
 70
     0
 40
0.0
 41
1.0
 50
0.0
 71
     0
 42
2.5
  3
txt
  4

  0
ENDTAB
  0
TABLE
  2
VIEW
  5
6
330
0
100
AcDbSymbolTable
 70
     0
  0
ENDTAB
  0
TABLE
  2
UCS
  5
7
330
0
100
AcDbSymbolTable
 70
     0
  0
ENDTAB
  0
TABLE
  2
APPID
  5
9
330
0
100
AcDbSymbolTable
 70
     2
  0
APPID
  5
12
330
9
100
AcDbSymbolTableRecord
100
AcDbRegAppTableRecord
  2
ACAD
 70
     0
  0
ENDTAB
  0
TABLE
  2
DIMSTYLE
  5
A
330
0
100
AcDbSymbolTable
 70
     1
  0
DIMSTYLE
105
27
330
A
100
AcDbSymbolTableRecord
100
AcDbDimStyleTableRecord
  2
ISO-25
 70
     0
  3

  4

  5

  6

  7

 40
1.0
 41
2.5
 42
0.625
 43
3.75
 44
1.25
 45
0.0
 46
0.0
 47
0.0
 48
0.0
140
2.5
141
2.5
142
0.0
143
0.03937007874016
144
1.0
145
0.0
146
1.0
147
0.625
 71
     0
 72
     0
 73
     0
 74
     0
 75
     0
 76
     0
 77
     1
 78
     8
170
     0
171
     3
172
     1
173
     0
174
     0
175
     0
176
     0
177
     0
178
     0
270
     2
271
     2
272
     2
273
     2
274
     3
340
11
275
     0
280
     0
281
     0
282
     0
283
     0
284
     8
285
     0
286
     0
287
     3
288
     0
  0
ENDTAB
  0
TABLE
  2
BLOCK_RECORD
  5
1
330
0
100
AcDbSymbolTable
 70
     1
  0
BLOCK_RECORD
  5
1F
330
1
100
AcDbSymbolTableRecord
100
AcDbBlockTableRecord
  2
*MODEL_SPACE
  0
BLOCK_RECORD
  5
1B
330
1
100
AcDbSymbolTableRecord
100
AcDbBlockTableRecord
  2
*PAPER_SPACE
  0
ENDTAB
  0
ENDSEC
  0
SECTION
  2
BLOCKS
  0
BLOCK
  5
20
330
1F
100
AcDbEntity
  8
0
100
AcDbBlockBegin
  2
*MODEL_SPACE
 70
     0
 10
0.0
 20
0.0
 30
0.0
  3
*MODEL_SPACE
  1

  0
ENDBLK
  5
21
330
1F
100
AcDbEntity
  8
0
100
AcDbBlockEnd
  0
BLOCK
  5
1C
330
1B
100
AcDbEntity
 67
     1
  8
0
100
AcDbBlockBegin
  2
*PAPER_SPACE
  1

  0
ENDBLK
  5
1D
330
1B
100
AcDbEntity
 67
     1
  8
0
100
AcDbBlockEnd
  0
ENDSEC
  0
SECTION
  2
ENTITIES
  0
SPLINE
  5
100
100
AcDbEntity
  8
0
 62
7
100
AcDbSpline
 70
8
 71
3
 72
8
 73
4
 74
0
 40
0
 40
0
 40
0
 40
0
 40
1
 40
1
 40
1
 40
1
 10
72.096328
 20
285.950418
 30
0.0
 10
70.770247
 20
285.950418
 30
0.0
 10
69.498348
 20
286.477203
 30
0.0
 10
68.560659
 20
287.414887
 30
0.0
  0
SPLINE
  5
101
100
AcDbEntity
  8
0
 62
7
100
AcDbSpline
 70
8
 71
3
 72
8
 73
4
 74
0
 40
0
 40
0
 40
0
 40
0
 40
1
 40
1
 40
1
 40
1
 10
68.560659
 20
287.414887
 30
0.0
 10
67.622978
 20
288.352570
 30
0.0
 10
60.336361
 20
294.635075
 30
0.0
 10
59.417540
 20
295.538812
 30
0.0
  0
SPLINE
  5
102
100
AcDbEntity
  8
0
 62
7
100
AcDbSpline
 70
8
 71
3
 72
8
 73
4
 74
0
 40
0
 40
0
 40
0
 40
0
 40
1
 40
1
 40
1
 40
1
 10
59.417540
 20
295.538812
 30
0.0
 10
58.498711
 20
296.442523
 30
0.0
 10
57.227870
 20
297.000000
 30
0.0
 10
55.819770
 20
297.000000
 30
0.0
  0
SPLINE
  5
103
100
AcDbEntity
  8
0
 62
7
100
AcDbSpline
 70
8
 71
3
 72
8
 73
4
 74
0
 40
0
 40
0
 40
0
 40
0
 40
1
 40
1
 40
1
 40
1
 10
5.083400
 20
297.000000
 30
0.0
 10
2.267191
 20
297.000000
 30
0.0
 10
0.000000
 20
294.770092
 30
0.0
 10
0.000000
 20
292.000169
 30
0.0
  0
SPLINE
  5
104
100
AcDbEntity
  8
0
 62
7
100
AcDbSpline
 70
8
 71
3
 72
8
 73
4
 74
0
 40
0
 40
0
 40
0
 40
0
 40
1
 40
1
 40
1
 40
1
 10
0.002000
 20
166.073425
 30
0.0
 10
0.002000
 20
163.303422
 30
0.0
 10
2.232001
 20
161.073435
 30
0.0
 10
5.001990
 20
161.073435
 30
0.0
  0
LWPOLYLINE
  5
105
100
AcDbEntity
  8
0
 62
7
100
AcDbPolyline
 90
2
 70
0
 10
55.819770
 20
297.000000
 30
0.0
 10
5.083400
 20
297.000000
 30
0.0
  0
SPLINE
  5
106
100
AcDbEntity
  8
0
 62
7
100
AcDbSpline
 70
8
 71
3
 72
8
 73
4
 74
0
 40
0
 40
0
 40
0
 40
0
 40
1
 40
1
 40
1
 40
1
 10
329.429031
 20
161.073435
 30
0.0
 10
332.199006
 20
161.073435
 30
0.0
 10
334.429021
 20
163.303422
 30
0.0
 10
334.429021
 20
166.073425
 30
0.0
  0
LWPOLYLINE
  5
107
100
AcDbEntity
  8
0
 62
7
100
AcDbPolyline
 90
4
 70
0
 10
0.000000
 20
292.000169
 30
0.0
 10
0.000000
 20
284.592285
 30
0.0
 10
0.002117
 20
280.950428
 30
0.0
 10
0.002117
 20
166.073425
 30
0.0
  0
SPLINE
  5
108
100
AcDbEntity
  8
0
 62
7
100
AcDbSpline
 70
8
 71
3
 72
8
 73
4
 74
0
 40
0
 40
0
 40
0
 40
0
 40
1
 40
1
 40
1
 40
1
 10
334.429021
 20
280.950428
 30
0.0
 10
334.429021
 20
283.720430
 30
0.0
 10
332.199006
 20
285.950418
 30
0.0
 10
329.429031
 20
285.950418
 30
0.0
  0
LWPOLYLINE
  5
109
100
AcDbEntity
  8
0
 62
7
100
AcDbPolyline
 90
2
 70
0
 10
5.001990
 20
161.073435
 30
0.0
 10
329.429031
 20
161.073435
 30
0.0
  0
LWPOLYLINE
  5
10a
100
AcDbEntity
  8
0
 62
7
100
AcDbPolyline
 90
2
 70
0
 10
334.429021
 20
166.073425
 30
0.0
 10
334.429021
 20
280.950428
 30
0.0
  0
SPLINE
  5
10b
100
AcDbEntity
  8
0
 62
7
100
AcDbSpline
 70
8
 71
3
 72
8
 73
4
 74
0
 40
0
 40
0
 40
0
 40
0
 40
1
 40
1
 40
1
 40
1
 10
6.596774
 20
292.000008
 30
0.0
 10
6.596774
 20
291.429536
 30
0.0
 10
6.292431
 20
290.902398
 30
0.0
 10
5.798387
 20
290.617161
 30
0.0
  0
SPLINE
  5
10c
100
AcDbEntity
  8
0
 62
7
100
AcDbSpline
 70
8
 71
3
 72
8
 73
4
 74
0
 40
0
 40
0
 40
0
 40
0
 40
1
 40
1
 40
1
 40
1
 10
5.798387
 20
290.617161
 30
0.0
 10
5.304344
 20
290.331925
 30
0.0
 10
4.695657
 20
290.331925
 30
0.0
 10
4.201613
 20
290.617161
 30
0.0
  0
SPLINE
  5
10d
100
AcDbEntity
  8
0
 62
7
100
AcDbSpline
 70
8
 71
3
 72
8
 73
4
 74
0
 40
0
 40
0
 40
0
 40
0
 40
1
 40
1
 40
1
 40
1
 10
4.201613
 20
290.617161
 30
0.0
 10
3.707569
 20
290.902398
 30
0.0
 10
3.403226
 20
291.429536
 30
0.0
 10
3.403226
 20
292.000008
 30
0.0
  0
SPLINE
  5
10e
100
AcDbEntity
  8
0
 62
7
100
AcDbSpline
 70
8
 71
3
 72
8
 73
4
 74
0
 40
0
 40
0
 40
0
 40
0
 40
1
 40
1
 40
1
 40
1
 10
3.403226
 20
292.000008
 30
0.0
 10
3.403226
 20
292.570481
 30
0.0
 10
3.707569
 20
293.097619
 30
0.0
 10
4.201613
 20
293.382855
 30
0.0
  0
SPLINE
  5
10f
100
AcDbEntity
  8
0
 62
7
100
AcDbSpline
 70
8
 71
3
 72
8
 73
4
 74
0
 40
0
 40
0
 40
0
 40
0
 40
1
 40
1
 40
1
 40
1
 10
4.201613
 20
293.382855
 30
0.0
 10
4.695657
 20
293.668092
 30
0.0
 10
5.304344
 20
293.668092
 30
0.0
 10
5.798387
 20
293.382855
 30
0.0
  0
SPLINE
  5
110
100
AcDbEntity
  8
0
 62
7
100
AcDbSpline
 70
8
 71
3
 72
8
 73
4
 74
0
 40
0
 40
0
 40
0
 40
0
 40
1
 40
1
 40
1
 40
1
 10
5.798387
 20
293.382855
 30
0.0
 10
6.292431
 20
293.097619
 30
0.0
 10
6.596774
 20
292.570481
 30
0.0
 10
6.596774
 20
292.000008
 30
0.0
  0
LWPOLYLINE
  5
111
100
AcDbEntity
  8
0
 62
7
100
AcDbPolyline
 90
3
 70
0
 10
329.429031
 20
285.950418
 30
0.0
 10
72.880577
 20
285.950418
 30
0.0
 10
72.096328
 20
285.950418
 30
0.0
  0
SPLINE
  5
112
100
AcDbEntity
  8
0
 62
7
100
AcDbSpline
 70
8
 71
3
 72
8
 73
4
 74
0
 40
0
 40
0
 40
0
 40
0
 40
1
 40
1
 40
1
 40
1
 10
6.596774
 20
166.050006
 30
0.0
 10
6.596774
 20
165.479534
 30
0.0
 10
6.292431
 20
164.952396
 30
0.0
 10
5.798387
 20
164.667159
 30
0.0
  0
SPLINE
  5
113
100
AcDbEntity
  8
0
 62
7
100
AcDbSpline
 70
8
 71
3
 72
8
 73
4
 74
0
 40
0
 40
0
 40
0
 40
0
 40
1
 40
1
 40
1
 40
1
 10
5.798387
 20
164.667159
 30
0.0
 10
5.304344
 20
164.381923
 30
0.0
 10
4.695657
 20
164.381923
 30
0.0
 10
4.201613
 20
164.667159
 30
0.0
  0
SPLINE
  5
114
100
AcDbEntity
  8
0
 62
7
100
AcDbSpline
 70
8
 71
3
 72
8
 73
4
 74
0
 40
0
 40
0
 40
0
 40
0
 40
1
 40
1
 40
1
 40
1
 10
4.201613
 20
164.667159
 30
0.0
 10
3.707569
 20
164.952396
 30
0.0
 10
3.403226
 20
165.479534
 30
0.0
 10
3.403226
 20
166.050006
 30
0.0
  0
SPLINE
  5
115
100
AcDbEntity
  8
0
 62
7
100
AcDbSpline
 70
8
 71
3
 72
8
 73
4
 74
0
 40
0
 40
0
 40
0
 40
0
 40
1
 40
1
 40
1
 40
1
 10
3.403226
 20
166.050006
 30
0.0
 10
3.403226
 20
166.620479
 30
0.0
 10
3.707569
 20
167.147617
 30
0.0
 10
4.201613
 20
167.432853
 30
0.0
  0
SPLINE
  5
116
100
AcDbEntity
  8
0
 62
7
100
AcDbSpline
 70
8
 71
3
 72
8
 73
4
 74
0
 40
0
 40
0
 40
0
 40
0
 40
1
 40
1
 40
1
 40
1
 10
4.201613
 20
167.432853
 30
0.0
 10
4.695657
 20
167.718089
 30
0.0
 10
5.304344
 20
167.718089
 30
0.0
 10
5.798387
 20
167.432853
 30
0.0
  0
SPLINE
  5
117
100
AcDbEntity
  8
0
 62
7
100
AcDbSpline
 70
8
 71
3
 72
8
 73
4
 74
0
 40
0
 40
0
 40
0
 40
0
 40
1
 40
1
 40
1
 40
1
 10
5.798387
 20
167.432853
 30
0.0
 10
6.292431
 20
167.147617
 30
0.0
 10
6.596774
 20
166.620479
 30
0.0
 10
6.596774
 20
166.050006
 30
0.0
  0
LWPOLYLINE
  5
118
100
AcDbEntity
  8
0
 62
7
100
AcDbPolyline
 90
1
 70
1
 10
6.596774
 20
292.000008
 30
0.0
  0
SPLINE
  5
119
100
AcDbEntity
  8
0
 62
7
100
AcDbSpline
 70
8
 71
3
 72
8
 73
4
 74
0
 40
0
 40
0
 40
0
 40
0
 40
1
 40
1
 40
1
 40
1
 10
331.075758
 20
166.050006
 30
0.0
 10
331.075758
 20
165.479534
 30
0.0
 10
330.771415
 20
164.952396
 30
0.0
 10
330.277371
 20
164.667159
 30
0.0
  0
SPLINE
  5
11a
100
AcDbEntity
  8
0
 62
7
100
AcDbSpline
 70
8
 71
3
 72
8
 73
4
 74
0
 40
0
 40
0
 40
0
 40
0
 40
1
 40
1
 40
1
 40
1
 10
330.277371
 20
164.667159
 30
0.0
 10
329.783327
 20
164.381923
 30
0.0
 10
329.174641
 20
164.381923
 30
0.0
 10
328.680597
 20
164.667159
 30
0.0
  0
SPLINE
  5
11b
100
AcDbEntity
  8
0
 62
7
100
AcDbSpline
 70
8
 71
3
 72
8
 73
4
 74
0
 40
0
 40
0
 40
0
 40
0
 40
1
 40
1
 40
1
 40
1
 10
328.680597
 20
164.667159
 30
0.0
 10
328.186553
 20
164.952396
 30
0.0
 10
327.882210
 20
165.479534
 30
0.0
 10
327.882210
 20
166.050006
 30
0.0
  0
SPLINE
  5
11c
100
AcDbEntity
  8
0
 62
7
100
AcDbSpline
 70
8
 71
3
 72
8
 73
4
 74
0
 40
0
 40
0
 40
0
 40
0
 40
1
 40
1
 40
1
 40
1
 10
327.882210
 20
166.050006
 30
0.0
 10
327.882210
 20
166.620479
 30
0.0
 10
328.186553
 20
167.147617
 30
0.0
 10
328.680597
 20
167.432853
 30
0.0
  0
SPLINE
  5
11d
100
AcDbEntity
  8
0
 62
7
100
AcDbSpline
 70
8
 71
3
 72
8
 73
4
 74
0
 40
0
 40
0
 40
0
 40
0
 40
1
 40
1
 40
1
 40
1
 10
328.680597
 20
167.432853
 30
0.0
 10
329.174641
 20
167.718089
 30
0.0
 10
329.783327
 20
167.718089
 30
0.0
 10
330.277371
 20
167.432853
 30
0.0
  0
SPLINE
  5
11e
100
AcDbEntity
  8
0
 62
7
100
AcDbSpline
 70
8
 71
3
 72
8
 73
4
 74
0
 40
0
 40
0
 40
0
 40
0
 40
1
 40
1
 40
1
 40
1
 10
330.277371
 20
167.432853
 30
0.0
 10
330.771415
 20
167.147617
 30
0.0
 10
331.075758
 20
166.620479
 30
0.0
 10
331.075758
 20
166.050006
 30
0.0
  0
LWPOLYLINE
  5
11f
100
AcDbEntity
  8
0
 62
7
100
AcDbPolyline
 90
1
 70
1
 10
6.596774
 20
166.050006
 30
0.0
  0
SPLINE
  5
120
100
AcDbEntity
  8
0
 62
7
100
AcDbSpline
 70
8
 71
3
 72
8
 73
4
 74
0
 40
0
 40
0
 40
0
 40
0
 40
1
 40
1
 40
1
 40
1
 10
331.075758
 20
280.900009
 30
0.0
 10
331.075758
 20
280.329536
 30
0.0
 10
330.771415
 20
279.802398
 30
0.0
 10
330.277371
 20
279.517162
 30
0.0
  0
SPLINE
  5
121
100
AcDbEntity
  8
0
 62
7
100
AcDbSpline
 70
8
 71
3
 72
8
 73
4
 74
0
 40
0
 40
0
 40
0
 40
0
 40
1
 40
1
 40
1
 40
1
 10
330.277371
 20
279.517162
 30
0.0
 10
329.783327
 20
279.231925
 30
0.0
 10
329.174641
 20
279.231925
 30
0.0
 10
328.680597
 20
279.517162
 30
0.0
  0
SPLINE
  5
122
100
AcDbEntity
  8
0
 62
7
100
AcDbSpline
 70
8
 71
3
 72
8
 73
4
 74
0
 40
0
 40
0
 40
0
 40
0
 40
1
 40
1
 40
1
 40
1
 10
328.680597
 20
279.517162
 30
0.0
 10
328.186553
 20
279.802398
 30
0.0
 10
327.882210
 20
280.329536
 30
0.0
 10
327.882210
 20
280.900009
 30
0.0
  0
SPLINE
  5
123
100
AcDbEntity
  8
0
 62
7
100
AcDbSpline
 70
8
 71
3
 72
8
 73
4
 74
0
 40
0
 40
0
 40
0
 40
0
 40
1
 40
1
 40
1
 40
1
 10
327.882210
 20
280.900009
 30
0.0
 10
327.882210
 20
281.470481
 30
0.0
 10
328.186553
 20
281.997619
 30
0.0
 10
328.680597
 20
282.282856
 30
0.0
  0
SPLINE
  5
124
100
AcDbEntity
  8
0
 62
7
100
AcDbSpline
 70
8
 71
3
 72
8
 73
4
 74
0
 40
0
 40
0
 40
0
 40
0
 40
1
 40
1
 40
1
 40
1
 10
328.680597
 20
282.282856
 30
0.0
 10
329.174641
 20
282.568092
 30
0.0
 10
329.783327
 20
282.568092
 30
0.0
 10
330.277371
 20
282.282856
 30
0.0
  0
SPLINE
  5
125
100
AcDbEntity
  8
0
 62
7
100
AcDbSpline
 70
8
 71
3
 72
8
 73
4
 74
0
 40
0
 40
0
 40
0
 40
0
 40
1
 40
1
 40
1
 40
1
 10
330.277371
 20
282.282856
 30
0.0
 10
330.771415
 20
281.997619
 30
0.0
 10
331.075758
 20
281.470481
 30
0.0
 10
331.075758
 20
280.900009
 30
0.0
  0
LWPOLYLINE
  5
126
100
AcDbEntity
  8
0
 62
7
100
AcDbPolyline
 90
1
 70
1
 10
331.075758
 20
166.050006
 30
0.0
  0
SPLINE
  5
127
100
AcDbEntity
  8
0
 62
7
100
AcDbSpline
 70
8
 71
3
 72
8
 73
4
 74
0
 40
0
 40
0
 40
0
 40
0
 40
1
 40
1
 40
1
 40
1
 10
222.915774
 20
166.050006
 30
0.0
 10
222.915774
 20
165.479534
 30
0.0
 10
222.611431
 20
164.952396
 30
0.0
 10
222.117387
 20
164.667159
 30
0.0
  0
SPLINE
  5
128
100
AcDbEntity
  8
0
 62
7
100
AcDbSpline
 70
8
 71
3
 72
8
 73
4
 74
0
 40
0
 40
0
 40
0
 40
0
 40
1
 40
1
 40
1
 40
1
 10
222.117387
 20
164.667159
 30
0.0
 10
221.623343
 20
164.381923
 30
0.0
 10
221.014657
 20
164.381923
 30
0.0
 10
220.520613
 20
164.667159
 30
0.0
  0
SPLINE
  5
129
100
AcDbEntity
  8
0
 62
7
100
AcDbSpline
 70
8
 71
3
 72
8
 73
4
 74
0
 40
0
 40
0
 40
0
 40
0
 40
1
 40
1
 40
1
 40
1
 10
220.520613
 20
164.667159
 30
0.0
 10
220.026569
 20
164.952396
 30
0.0
 10
219.722226
 20
165.479534
 30
0.0
 10
219.722226
 20
166.050006
 30
0.0
  0
SPLINE
  5
12a
100
AcDbEntity
  8
0
 62
7
100
AcDbSpline
 70
8
 71
3
 72
8
 73
4
 74
0
 40
0
 40
0
 40
0
 40
0
 40
1
 40
1
 40
1
 40
1
 10
219.722226
 20
166.050006
 30
0.0
 10
219.722226
 20
166.620479
 30
0.0
 10
220.026569
 20
167.147617
 30
0.0
 10
220.520613
 20
167.432853
 30
0.0
  0
SPLINE
  5
12b
100
AcDbEntity
  8
0
 62
7
100
AcDbSpline
 70
8
 71
3
 72
8
 73
4
 74
0
 40
0
 40
0
 40
0
 40
0
 40
1
 40
1
 40
1
 40
1
 10
220.520613
 20
167.432853
 30
0.0
 10
221.014657
 20
167.718089
 30
0.0
 10
221.623343
 20
167.718089
 30
0.0
 10
222.117387
 20
167.432853
 30
0.0
  0
SPLINE
  5
12c
100
AcDbEntity
  8
0
 62
7
100
AcDbSpline
 70
8
 71
3
 72
8
 73
4
 74
0
 40
0
 40
0
 40
0
 40
0
 40
1
 40
1
 40
1
 40
1
 10
222.117387
 20
167.432853
 30
0.0
 10
222.611431
 20
167.147617
 30
0.0
 10
222.915774
 20
166.620479
 30
0.0
 10
222.915774
 20
166.050006
 30
0.0
  0
LWPOLYLINE
  5
12d
100
AcDbEntity
  8
0
 62
7
100
AcDbPolyline
 90
1
 70
1
 10
331.075758
 20
280.900009
 30
0.0
  0
SPLINE
  5
12e
100
AcDbEntity
  8
0
 62
7
100
AcDbSpline
 70
8
 71
3
 72
8
 73
4
 74
0
 40
0
 40
0
 40
0
 40
0
 40
1
 40
1
 40
1
 40
1
 10
114.756777
 20
166.050006
 30
0.0
 10
114.756777
 20
165.479534
 30
0.0
 10
114.452434
 20
164.952396
 30
0.0
 10
113.958390
 20
164.667159
 30
0.0
  0
SPLINE
  5
12f
100
AcDbEntity
  8
0
 62
7
100
AcDbSpline
 70
8
 71
3
 72
8
 73
4
 74
0
 40
0
 40
0
 40
0
 40
0
 40
1
 40
1
 40
1
 40
1
 10
113.958390
 20
164.667159
 30
0.0
 10
113.464346
 20
164.381923
 30
0.0
 10
112.855660
 20
164.381923
 30
0.0
 10
112.361616
 20
164.667159
 30
0.0
  0
SPLINE
  5
130
100
AcDbEntity
  8
0
 62
7
100
AcDbSpline
 70
8
 71
3
 72
8
 73
4
 74
0
 40
0
 40
0
 40
0
 40
0
 40
1
 40
1
 40
1
 40
1
 10
112.361616
 20
164.667159
 30
0.0
 10
111.867572
 20
164.952396
 30
0.0
 10
111.563229
 20
165.479534
 30
0.0
 10
111.563229
 20
166.050006
 30
0.0
  0
SPLINE
  5
131
100
AcDbEntity
  8
0
 62
7
100
AcDbSpline
 70
8
 71
3
 72
8
 73
4
 74
0
 40
0
 40
0
 40
0
 40
0
 40
1
 40
1
 40
1
 40
1
 10
111.563229
 20
166.050006
 30
0.0
 10
111.563229
 20
166.620479
 30
0.0
 10
111.867572
 20
167.147617
 30
0.0
 10
112.361616
 20
167.432853
 30
0.0
  0
SPLINE
  5
132
100
AcDbEntity
  8
0
 62
7
100
AcDbSpline
 70
8
 71
3
 72
8
 73
4
 74
0
 40
0
 40
0
 40
0
 40
0
 40
1
 40
1
 40
1
 40
1
 10
112.361616
 20
167.432853
 30
0.0
 10
112.855660
 20
167.718089
 30
0.0
 10
113.464346
 20
167.718089
 30
0.0
 10
113.958390
 20
167.432853
 30
0.0
  0
SPLINE
  5
133
100
AcDbEntity
  8
0
 62
7
100
AcDbSpline
 70
8
 71
3
 72
8
 73
4
 74
0
 40
0
 40
0
 40
0
 40
0
 40
1
 40
1
 40
1
 40
1
 10
113.958390
 20
167.432853
 30
0.0
 10
114.452434
 20
167.147617
 30
0.0
 10
114.756777
 20
166.620479
 30
0.0
 10
114.756777
 20
166.050006
 30
0.0
  0
LWPOLYLINE
  5
134
100
AcDbEntity
  8
0
 62
7
100
AcDbPolyline
 90
1
 70
1
 10
222.915774
 20
166.050006
 30
0.0
  0
SPLINE
  5
135
100
AcDbEntity
  8
0
 62
7
100
AcDbSpline
 70
8
 71
3
 72
8
 73
4
 74
0
 40
0
 40
0
 40
0
 40
0
 40
1
 40
1
 40
1
 40
1
 10
222.915774
 20
280.900009
 30
0.0
 10
222.915774
 20
280.329536
 30
0.0
 10
222.611431
 20
279.802398
 30
0.0
 10
222.117387
 20
279.517162
 30
0.0
  0
SPLINE
  5
136
100
AcDbEntity
  8
0
 62
7
100
AcDbSpline
 70
8
 71
3
 72
8
 73
4
 74
0
 40
0
 40
0
 40
0
 40
0
 40
1
 40
1
 40
1
 40
1
 10
222.117387
 20
279.517162
 30
0.0
 10
221.623343
 20
279.231925
 30
0.0
 10
221.014657
 20
279.231925
 30
0.0
 10
220.520613
 20
279.517162
 30
0.0
  0
SPLINE
  5
137
100
AcDbEntity
  8
0
 62
7
100
AcDbSpline
 70
8
 71
3
 72
8
 73
4
 74
0
 40
0
 40
0
 40
0
 40
0
 40
1
 40
1
 40
1
 40
1
 10
220.520613
 20
279.517162
 30
0.0
 10
220.026569
 20
279.802398
 30
0.0
 10
219.722226
 20
280.329536
 30
0.0
 10
219.722226
 20
280.900009
 30
0.0
  0
SPLINE
  5
138
100
AcDbEntity
  8
0
 62
7
100
AcDbSpline
 70
8
 71
3
 72
8
 73
4
 74
0
 40
0
 40
0
 40
0
 40
0
 40
1
 40
1
 40
1
 40
1
 10
219.722226
 20
280.900009
 30
0.0
 10
219.722226
 20
281.470481
 30
0.0
 10
220.026569
 20
281.997619
 30
0.0
 10
220.520613
 20
282.282856
 30
0.0
  0
SPLINE
  5
139
100
AcDbEntity
  8
0
 62
7
100
AcDbSpline
 70
8
 71
3
 72
8
 73
4
 74
0
 40
0
 40
0
 40
0
 40
0
 40
1
 40
1
 40
1
 40
1
 10
220.520613
 20
282.282856
 30
0.0
 10
221.014657
 20
282.568092
 30
0.0
 10
221.623343
 20
282.568092
 30
0.0
 10
222.117387
 20
282.282856
 30
0.0
  0
SPLINE
  5
13a
100
AcDbEntity
  8
0
 62
7
100
AcDbSpline
 70
8
 71
3
 72
8
 73
4
 74
0
 40
0
 40
0
 40
0
 40
0
 40
1
 40
1
 40
1
 40
1
 10
222.117387
 20
282.282856
 30
0.0
 10
222.611431
 20
281.997619
 30
0.0
 10
222.915774
 20
281.470481
 30
0.0
 10
222.915774
 20
280.900009
 30
0.0
  0
LWPOLYLINE
  5
13b
100
AcDbEntity
  8
0
 62
7
100
AcDbPolyline
 90
1
 70
1
 10
114.756777
 20
166.050006
 30
0.0
  0
SPLINE
  5
13c
100
AcDbEntity
  8
0
 62
7
100
AcDbSpline
 70
8
 71
3
 72
8
 73
4
 74
0
 40
0
 40
0
 40
0
 40
0
 40
1
 40
1
 40
1
 40
1
 10
114.756777
 20
280.900009
 30
0.0
 10
114.756777
 20
280.329536
 30
0.0
 10
114.452434
 20
279.802398
 30
0.0
 10
113.958390
 20
279.517162
 30
0.0
  0
SPLINE
  5
13d
100
AcDbEntity
  8
0
 62
7
100
AcDbSpline
 70
8
 71
3
 72
8
 73
4
 74
0
 40
0
 40
0
 40
0
 40
0
 40
1
 40
1
 40
1
 40
1
 10
113.958390
 20
279.517162
 30
0.0
 10
113.464346
 20
279.231925
 30
0.0
 10
112.855660
 20
279.231925
 30
0.0
 10
112.361616
 20
279.517162
 30
0.0
  0
SPLINE
  5
13e
100
AcDbEntity
  8
0
 62
7
100
AcDbSpline
 70
8
 71
3
 72
8
 73
4
 74
0
 40
0
 40
0
 40
0
 40
0
 40
1
 40
1
 40
1
 40
1
 10
112.361616
 20
279.517162
 30
0.0
 10
111.867572
 20
279.802398
 30
0.0
 10
111.563229
 20
280.329536
 30
0.0
 10
111.563229
 20
280.900009
 30
0.0
  0
SPLINE
  5
13f
100
AcDbEntity
  8
0
 62
7
100
AcDbSpline
 70
8
 71
3
 72
8
 73
4
 74
0
 40
0
 40
0
 40
0
 40
0
 40
1
 40
1
 40
1
 40
1
 10
111.563229
 20
280.900009
 30
0.0
 10
111.563229
 20
281.470481
 30
0.0
 10
111.867572
 20
281.997619
 30
0.0
 10
112.361616
 20
282.282856
 30
0.0
  0
SPLINE
  5
140
100
AcDbEntity
  8
0
 62
7
100
AcDbSpline
 70
8
 71
3
 72
8
 73
4
 74
0
 40
0
 40
0
 40
0
 40
0
 40
1
 40
1
 40
1
 40
1
 10
112.361616
 20
282.282856
 30
0.0
 10
112.855660
 20
282.568092
 30
0.0
 10
113.464346
 20
282.568092
 30
0.0
 10
113.958390
 20
282.282856
 30
0.0
  0
SPLINE
  5
141
100
AcDbEntity
  8
0
 62
7
100
AcDbSpline
 70
8
 71
3
 72
8
 73
4
 74
0
 40
0
 40
0
 40
0
 40
0
 40
1
 40
1
 40
1
 40
1
 10
113.958390
 20
282.282856
 30
0.0
 10
114.452434
 20
281.997619
 30
0.0
 10
114.756777
 20
281.470481
 30
0.0
 10
114.756777
 20
280.900009
 30
0.0
  0
LWPOLYLINE
  5
142
100
AcDbEntity
  8
0
 62
7
100
AcDbPolyline
 90
1
 70
1
 10
222.915774
 20
280.900009
 30
0.0
  0
LWPOLYLINE
  5
143
100
AcDbEntity
  8
0
 62
7
100
AcDbPolyline
 90
1
 70
1
 10
114.756777
 20
280.900009
 30
0.0
  0
LWPOLYLINE
  5
144
100
AcDbEntity
  8
0
 62
7
100
AcDbPolyline
 90
8
 70
1
 10
10.015500
 20
291.011617
 30
0.0
 10
24.547799
 20
291.002399
 30
0.0
 10
39.080096
 20
291.010019
 30
0.0
 10
50.609000
 20
291.010008
 30
0.0
 10
68.144694
 20
275.951851
 30
0.0
 10
324.421870
 20
275.951851
 30
0.0
 10
324.421870
 20
171.072499
 30
0.0
 10
10.015500
 20
171.072499
 30
0.0
  0
ENDSEC
  0
SECTION
  2
OBJECTS
  0
DICTIONARY
  5
C
330
0
100
AcDbDictionary
  3
ACAD_GROUP
350
D
  3
ACAD_MLINESTYLE
350
17
  0
DICTIONARY
  5
D
330
C
100
AcDbDictionary
  0
DICTIONARY
  5
1A
330
C
100
AcDbDictionary
  0
DICTIONARY
  5
17
330
C
100
AcDbDictionary
  3
STANDARD
350
18
  0
DICTIONARY
  5
19
330
C
100
AcDbDictionary
  0
ENDSEC
  0
EOF
