  0
SECTION
  2
HEADER
  9
$ACADVER
  1
AC1014
  9
$HANDSEED
  5
FFFF
  9
$MEASUREMENT
 70
     1
  0
ENDSEC
  0
SECTION
  2
TABLES
  0
TABLE
  2
VPORT
  5
8
330
0
100
AcDbSymbolTable
 70
     4
  0
VPORT
  5
2E
330
8
100
AcDbSymbolTableRecord
100
AcDbViewportTableRecord
  2
*ACTIVE
 70
     0
 10
0.0
 20
0.0
 11
1.0
 21
1.0
 12
210.0
 22
148.5
 13
0.0
 23
0.0
 14
10.0
 24
10.0
 15
10.0
 25
10.0
 16
0.0
 26
0.0
 36
1.0
 17
0.0
 27
0.0
 37
0.0
 40
341.0
 41
1.24
 42
50.0
 43
0.0
 44
0.0
 50
0.0
 51
0.0
 71
     0
 72
   100
 73
     1
 74
     3
 75
     0
 76
     0
 77
     0
 78
     0
  0
ENDTAB
  0
TABLE
  2
LTYPE
  5
5
330
0
100
AcDbSymbolTable
 70
     1
  0
LTYPE
  5
14
330
5
100
AcDbSymbolTableRecord
100
AcDbLinetypeTableRecord
  2
BYBLOCK
 70
     0
  3

 72
    65
 73
     0
 40
0.0
  0
LTYPE
  5
15
330
5
100
AcDbSymbolTableRecord
100
AcDbLinetypeTableRecord
  2
BYLAYER
 70
     0
  3

 72
    65
 73
     0
 40
0.0
  0
LTYPE
  5
16
330
5
100
AcDbSymbolTableRecord
100
AcDbLinetypeTableRecord
  2
CONTINUOUS
 70
     0
  3
Solid line
 72
    65
 73
     0
 40
0.0
  0
ENDTAB
  0
TABLE
  2
LAYER
  5
2
100
AcDbSymbolTable
 70
1
  0
LAYER
  5
50
100
AcDbSymbolTableRecord
100
AcDbLayerTableRecord
  2
0
 70
0
  6
CONTINUOUS
  0
ENDTAB
  0
TABLE
  2
STYLE
  5
3
330
0
100
AcDbSymbolTable
 70
     1
  0
STYLE
  5
11
330
3
100
AcDbSymbolTableRecord
100
AcDbTextStyleTableRecord
  2
STANDARD
 70
     0
 40
0.0
 41
1.0
 50
0.0
 71
     0
 42
2.5
  3
txt
  4

  0
ENDTAB
  0
TABLE
  2
VIEW
  5
6
330
0
100
AcDbSymbolTable
 70
     0
  0
ENDTAB
  0
TABLE
  2
UCS
  5
7
330
0
100
AcDbSymbolTable
 70
     0
  0
ENDTAB
  0
TABLE
  2
APPID
  5
9
330
0
100
AcDbSymbolTable
 70
     2
  0
APPID
  5
12
330
9
100
AcDbSymbolTableRecord
100
AcDbRegAppTableRecord
  2
ACAD
 70
     0
  0
ENDTAB
  0
TABLE
  2
DIMSTYLE
  5
A
330
0
100
AcDbSymbolTable
 70
     1
  0
DIMSTYLE
105
27
330
A
100
AcDbSymbolTableRecord
100
AcDbDimStyleTableRecord
  2
ISO-25
 70
     0
  3

  4

  5

  6

  7

 40
1.0
 41
2.5
 42
0.625
 43
3.75
 44
1.25
 45
0.0
 46
0.0
 47
0.0
 48
0.0
140
2.5
141
2.5
142
0.0
143
0.03937007874016
144
1.0
145
0.0
146
1.0
147
0.625
 71
     0
 72
     0
 73
     0
 74
     0
 75
     0
 76
     0
 77
     1
 78
     8
170
     0
171
     3
172
     1
173
     0
174
     0
175
     0
176
     0
177
     0
178
     0
270
     2
271
     2
272
     2
273
     2
274
     3
340
11
275
     0
280
     0
281
     0
282
     0
283
     0
284
     8
285
     0
286
     0
287
     3
288
     0
  0
ENDTAB
  0
TABLE
  2
BLOCK_RECORD
  5
1
330
0
100
AcDbSymbolTable
 70
     1
  0
BLOCK_RECORD
  5
1F
330
1
100
AcDbSymbolTableRecord
100
AcDbBlockTableRecord
  2
*MODEL_SPACE
  0
BLOCK_RECORD
  5
1B
330
1
100
AcDbSymbolTableRecord
100
AcDbBlockTableRecord
  2
*PAPER_SPACE
  0
ENDTAB
  0
ENDSEC
  0
SECTION
  2
BLOCKS
  0
BLOCK
  5
20
330
1F
100
AcDbEntity
  8
0
100
AcDbBlockBegin
  2
*MODEL_SPACE
 70
     0
 10
0.0
 20
0.0
 30
0.0
  3
*MODEL_SPACE
  1

  0
ENDBLK
  5
21
330
1F
100
AcDbEntity
  8
0
100
AcDbBlockEnd
  0
BLOCK
  5
1C
330
1B
100
AcDbEntity
 67
     1
  8
0
100
AcDbBlockBegin
  2
*PAPER_SPACE
  1

  0
ENDBLK
  5
1D
330
1B
100
AcDbEntity
 67
     1
  8
0
100
AcDbBlockEnd
  0
ENDSEC
  0
SECTION
  2
ENTITIES
  0
SPLINE
  5
100
100
AcDbEntity
  8
0
 62
7
100
AcDbSpline
 70
8
 71
3
 72
8
 73
4
 74
0
 40
0
 40
0
 40
0
 40
0
 40
1
 40
1
 40
1
 40
1
 10
72.249276
 20
285.804629
 30
0.0
 10
70.923195
 20
285.804629
 30
0.0
 10
69.651295
 20
286.331414
 30
0.0
 10
68.713607
 20
287.269098
 30
0.0
  0
SPLINE
  5
101
100
AcDbEntity
  8
0
 62
7
100
AcDbSpline
 70
8
 71
3
 72
8
 73
4
 74
0
 40
0
 40
0
 40
0
 40
0
 40
1
 40
1
 40
1
 40
1
 10
68.713607
 20
287.269098
 30
0.0
 10
67.775926
 20
288.206781
 30
0.0
 10
60.489309
 20
294.489286
 30
0.0
 10
59.570488
 20
295.393023
 30
0.0
  0
SPLINE
  5
102
100
AcDbEntity
  8
0
 62
7
100
AcDbSpline
 70
8
 71
3
 72
8
 73
4
 74
0
 40
0
 40
0
 40
0
 40
0
 40
1
 40
1
 40
1
 40
1
 10
59.570488
 20
295.393023
 30
0.0
 10
58.651659
 20
296.296734
 30
0.0
 10
57.380817
 20
296.854211
 30
0.0
 10
55.972718
 20
296.854211
 30
0.0
  0
SPLINE
  5
103
100
AcDbEntity
  8
0
 62
7
100
AcDbSpline
 70
8
 71
3
 72
8
 73
4
 74
0
 40
0
 40
0
 40
0
 40
0
 40
1
 40
1
 40
1
 40
1
 10
5.236347
 20
296.854211
 30
0.0
 10
2.420138
 20
296.854211
 30
0.0
 10
0.152947
 20
294.624302
 30
0.0
 10
0.152947
 20
291.854380
 30
0.0
  0
SPLINE
  5
104
100
AcDbEntity
  8
0
 62
7
100
AcDbSpline
 70
8
 71
3
 72
8
 73
4
 74
0
 40
0
 40
0
 40
0
 40
0
 40
1
 40
1
 40
1
 40
1
 10
0.154948
 20
165.927647
 30
0.0
 10
0.154948
 20
163.157645
 30
0.0
 10
2.384949
 20
160.927657
 30
0.0
 10
5.154937
 20
160.927657
 30
0.0
  0
SPLINE
  5
105
100
AcDbEntity
  8
0
 62
7
100
AcDbSpline
 70
8
 71
3
 72
8
 73
4
 74
0
 40
0
 40
0
 40
0
 40
0
 40
1
 40
1
 40
1
 40
1
 10
329.581986
 20
160.927657
 30
0.0
 10
332.351962
 20
160.927657
 30
0.0
 10
334.581976
 20
163.157645
 30
0.0
 10
334.581976
 20
165.927647
 30
0.0
  0
LWPOLYLINE
  5
106
100
AcDbEntity
  8
0
 62
7
100
AcDbPolyline
 90
2
 70
0
 10
55.972718
 20
296.854211
 30
0.0
 10
5.236347
 20
296.854211
 30
0.0
  0
SPLINE
  5
107
100
AcDbEntity
  8
0
 62
7
100
AcDbSpline
 70
8
 71
3
 72
8
 73
4
 74
0
 40
0
 40
0
 40
0
 40
0
 40
1
 40
1
 40
1
 40
1
 10
334.581976
 20
280.804639
 30
0.0
 10
334.581976
 20
283.574641
 30
0.0
 10
332.351962
 20
285.804629
 30
0.0
 10
329.581986
 20
285.804629
 30
0.0
  0
LWPOLYLINE
  5
108
100
AcDbEntity
  8
0
 62
7
100
AcDbPolyline
 90
4
 70
0
 10
0.152947
 20
291.854380
 30
0.0
 10
0.152947
 20
284.446496
 30
0.0
 10
0.155064
 20
280.804639
 30
0.0
 10
0.155064
 20
165.927647
 30
0.0
  0
LWPOLYLINE
  5
109
100
AcDbEntity
  8
0
 62
7
100
AcDbPolyline
 90
2
 70
0
 10
5.154937
 20
160.927657
 30
0.0
 10
329.581986
 20
160.927657
 30
0.0
  0
SPLINE
  5
10a
100
AcDbEntity
  8
0
 62
7
100
AcDbSpline
 70
8
 71
3
 72
8
 73
4
 74
0
 40
0
 40
0
 40
0
 40
0
 40
1
 40
1
 40
1
 40
1
 10
6.749722
 20
291.854221
 30
0.0
 10
6.749722
 20
291.283747
 30
0.0
 10
6.445378
 20
290.756608
 30
0.0
 10
5.951334
 20
290.471373
 30
0.0
  0
SPLINE
  5
10b
100
AcDbEntity
  8
0
 62
7
100
AcDbSpline
 70
8
 71
3
 72
8
 73
4
 74
0
 40
0
 40
0
 40
0
 40
0
 40
1
 40
1
 40
1
 40
1
 10
5.951334
 20
290.471373
 30
0.0
 10
5.457291
 20
290.186137
 30
0.0
 10
4.848604
 20
290.186137
 30
0.0
 10
4.354560
 20
290.471373
 30
0.0
  0
SPLINE
  5
10c
100
AcDbEntity
  8
0
 62
7
100
AcDbSpline
 70
8
 71
3
 72
8
 73
4
 74
0
 40
0
 40
0
 40
0
 40
0
 40
1
 40
1
 40
1
 40
1
 10
4.354560
 20
290.471373
 30
0.0
 10
3.860517
 20
290.756608
 30
0.0
 10
3.556173
 20
291.283747
 30
0.0
 10
3.556173
 20
291.854221
 30
0.0
  0
SPLINE
  5
10d
100
AcDbEntity
  8
0
 62
7
100
AcDbSpline
 70
8
 71
3
 72
8
 73
4
 74
0
 40
0
 40
0
 40
0
 40
0
 40
1
 40
1
 40
1
 40
1
 10
3.556173
 20
291.854221
 30
0.0
 10
3.556173
 20
292.424692
 30
0.0
 10
3.860517
 20
292.951829
 30
0.0
 10
4.354560
 20
293.237066
 30
0.0
  0
SPLINE
  5
10e
100
AcDbEntity
  8
0
 62
7
100
AcDbSpline
 70
8
 71
3
 72
8
 73
4
 74
0
 40
0
 40
0
 40
0
 40
0
 40
1
 40
1
 40
1
 40
1
 10
4.354560
 20
293.237066
 30
0.0
 10
4.848604
 20
293.522302
 30
0.0
 10
5.457291
 20
293.522302
 30
0.0
 10
5.951334
 20
293.237066
 30
0.0
  0
SPLINE
  5
10f
100
AcDbEntity
  8
0
 62
7
100
AcDbSpline
 70
8
 71
3
 72
8
 73
4
 74
0
 40
0
 40
0
 40
0
 40
0
 40
1
 40
1
 40
1
 40
1
 10
5.951334
 20
293.237066
 30
0.0
 10
6.445378
 20
292.951829
 30
0.0
 10
6.749722
 20
292.424692
 30
0.0
 10
6.749722
 20
291.854221
 30
0.0
  0
LWPOLYLINE
  5
110
100
AcDbEntity
  8
0
 62
7
100
AcDbPolyline
 90
2
 70
0
 10
334.581976
 20
165.927647
 30
0.0
 10
334.581976
 20
280.804639
 30
0.0
  0
SPLINE
  5
111
100
AcDbEntity
  8
0
 62
7
100
AcDbSpline
 70
8
 71
3
 72
8
 73
4
 74
0
 40
0
 40
0
 40
0
 40
0
 40
1
 40
1
 40
1
 40
1
 10
6.749722
 20
165.904231
 30
0.0
 10
6.749722
 20
165.333737
 30
0.0
 10
6.445378
 20
164.806608
 30
0.0
 10
5.951334
 20
164.521360
 30
0.0
  0
SPLINE
  5
112
100
AcDbEntity
  8
0
 62
7
100
AcDbSpline
 70
8
 71
3
 72
8
 73
4
 74
0
 40
0
 40
0
 40
0
 40
0
 40
1
 40
1
 40
1
 40
1
 10
5.951334
 20
164.521360
 30
0.0
 10
5.457291
 20
164.236139
 30
0.0
 10
4.848604
 20
164.236139
 30
0.0
 10
4.354560
 20
164.521360
 30
0.0
  0
SPLINE
  5
113
100
AcDbEntity
  8
0
 62
7
100
AcDbSpline
 70
8
 71
3
 72
8
 73
4
 74
0
 40
0
 40
0
 40
0
 40
0
 40
1
 40
1
 40
1
 40
1
 10
4.354560
 20
164.521360
 30
0.0
 10
3.860517
 20
164.806608
 30
0.0
 10
3.556173
 20
165.333737
 30
0.0
 10
3.556173
 20
165.904231
 30
0.0
  0
SPLINE
  5
114
100
AcDbEntity
  8
0
 62
7
100
AcDbSpline
 70
8
 71
3
 72
8
 73
4
 74
0
 40
0
 40
0
 40
0
 40
0
 40
1
 40
1
 40
1
 40
1
 10
3.556173
 20
165.904231
 30
0.0
 10
3.556173
 20
166.474700
 30
0.0
 10
3.860517
 20
167.001829
 30
0.0
 10
4.354560
 20
167.287076
 30
0.0
  0
SPLINE
  5
115
100
AcDbEntity
  8
0
 62
7
100
AcDbSpline
 70
8
 71
3
 72
8
 73
4
 74
0
 40
0
 40
0
 40
0
 40
0
 40
1
 40
1
 40
1
 40
1
 10
4.354560
 20
167.287076
 30
0.0
 10
4.848604
 20
167.572297
 30
0.0
 10
5.457291
 20
167.572297
 30
0.0
 10
5.951334
 20
167.287076
 30
0.0
  0
SPLINE
  5
116
100
AcDbEntity
  8
0
 62
7
100
AcDbSpline
 70
8
 71
3
 72
8
 73
4
 74
0
 40
0
 40
0
 40
0
 40
0
 40
1
 40
1
 40
1
 40
1
 10
5.951334
 20
167.287076
 30
0.0
 10
6.445378
 20
167.001829
 30
0.0
 10
6.749722
 20
166.474700
 30
0.0
 10
6.749722
 20
165.904231
 30
0.0
  0
SPLINE
  5
117
100
AcDbEntity
  8
0
 62
7
100
AcDbSpline
 70
8
 71
3
 72
8
 73
4
 74
0
 40
0
 40
0
 40
0
 40
0
 40
1
 40
1
 40
1
 40
1
 10
331.228726
 20
165.904231
 30
0.0
 10
331.228726
 20
165.333737
 30
0.0
 10
330.924376
 20
164.806608
 30
0.0
 10
330.430320
 20
164.521360
 30
0.0
  0
SPLINE
  5
118
100
AcDbEntity
  8
0
 62
7
100
AcDbSpline
 70
8
 71
3
 72
8
 73
4
 74
0
 40
0
 40
0
 40
0
 40
0
 40
1
 40
1
 40
1
 40
1
 10
330.430320
 20
164.521360
 30
0.0
 10
329.936290
 20
164.236139
 30
0.0
 10
329.327589
 20
164.236139
 30
0.0
 10
328.833559
 20
164.521360
 30
0.0
  0
SPLINE
  5
119
100
AcDbEntity
  8
0
 62
7
100
AcDbSpline
 70
8
 71
3
 72
8
 73
4
 74
0
 40
0
 40
0
 40
0
 40
0
 40
1
 40
1
 40
1
 40
1
 10
328.833559
 20
164.521360
 30
0.0
 10
328.339503
 20
164.806608
 30
0.0
 10
328.035153
 20
165.333737
 30
0.0
 10
328.035153
 20
165.904231
 30
0.0
  0
SPLINE
  5
11a
100
AcDbEntity
  8
0
 62
7
100
AcDbSpline
 70
8
 71
3
 72
8
 73
4
 74
0
 40
0
 40
0
 40
0
 40
0
 40
1
 40
1
 40
1
 40
1
 10
328.035153
 20
165.904231
 30
0.0
 10
328.035153
 20
166.474700
 30
0.0
 10
328.339503
 20
167.001829
 30
0.0
 10
328.833559
 20
167.287076
 30
0.0
  0
SPLINE
  5
11b
100
AcDbEntity
  8
0
 62
7
100
AcDbSpline
 70
8
 71
3
 72
8
 73
4
 74
0
 40
0
 40
0
 40
0
 40
0
 40
1
 40
1
 40
1
 40
1
 10
328.833559
 20
167.287076
 30
0.0
 10
329.327589
 20
167.572297
 30
0.0
 10
329.936290
 20
167.572297
 30
0.0
 10
330.430320
 20
167.287076
 30
0.0
  0
SPLINE
  5
11c
100
AcDbEntity
  8
0
 62
7
100
AcDbSpline
 70
8
 71
3
 72
8
 73
4
 74
0
 40
0
 40
0
 40
0
 40
0
 40
1
 40
1
 40
1
 40
1
 10
330.430320
 20
167.287076
 30
0.0
 10
330.924376
 20
167.001829
 30
0.0
 10
331.228726
 20
166.474700
 30
0.0
 10
331.228726
 20
165.904231
 30
0.0
  0
SPLINE
  5
11d
100
AcDbEntity
  8
0
 62
7
100
AcDbSpline
 70
8
 71
3
 72
8
 73
4
 74
0
 40
0
 40
0
 40
0
 40
0
 40
1
 40
1
 40
1
 40
1
 10
331.228726
 20
280.754220
 30
0.0
 10
331.228726
 20
280.183746
 30
0.0
 10
330.924376
 20
279.656609
 30
0.0
 10
330.430320
 20
279.371372
 30
0.0
  0
SPLINE
  5
11e
100
AcDbEntity
  8
0
 62
7
100
AcDbSpline
 70
8
 71
3
 72
8
 73
4
 74
0
 40
0
 40
0
 40
0
 40
0
 40
1
 40
1
 40
1
 40
1
 10
330.430320
 20
279.371372
 30
0.0
 10
329.936290
 20
279.086136
 30
0.0
 10
329.327589
 20
279.086136
 30
0.0
 10
328.833559
 20
279.371372
 30
0.0
  0
SPLINE
  5
11f
100
AcDbEntity
  8
0
 62
7
100
AcDbSpline
 70
8
 71
3
 72
8
 73
4
 74
0
 40
0
 40
0
 40
0
 40
0
 40
1
 40
1
 40
1
 40
1
 10
328.833559
 20
279.371372
 30
0.0
 10
328.339503
 20
279.656609
 30
0.0
 10
328.035153
 20
280.183746
 30
0.0
 10
328.035153
 20
280.754220
 30
0.0
  0
SPLINE
  5
120
100
AcDbEntity
  8
0
 62
7
100
AcDbSpline
 70
8
 71
3
 72
8
 73
4
 74
0
 40
0
 40
0
 40
0
 40
0
 40
1
 40
1
 40
1
 40
1
 10
328.035153
 20
280.754220
 30
0.0
 10
328.035153
 20
281.324691
 30
0.0
 10
328.339503
 20
281.851831
 30
0.0
 10
328.833559
 20
282.137067
 30
0.0
  0
SPLINE
  5
121
100
AcDbEntity
  8
0
 62
7
100
AcDbSpline
 70
8
 71
3
 72
8
 73
4
 74
0
 40
0
 40
0
 40
0
 40
0
 40
1
 40
1
 40
1
 40
1
 10
328.833559
 20
282.137067
 30
0.0
 10
329.327589
 20
282.422304
 30
0.0
 10
329.936290
 20
282.422304
 30
0.0
 10
330.430320
 20
282.137067
 30
0.0
  0
SPLINE
  5
122
100
AcDbEntity
  8
0
 62
7
100
AcDbSpline
 70
8
 71
3
 72
8
 73
4
 74
0
 40
0
 40
0
 40
0
 40
0
 40
1
 40
1
 40
1
 40
1
 10
330.430320
 20
282.137067
 30
0.0
 10
330.924376
 20
281.851831
 30
0.0
 10
331.228726
 20
281.324691
 30
0.0
 10
331.228726
 20
280.754220
 30
0.0
  0
SPLINE
  5
123
100
AcDbEntity
  8
0
 62
7
100
AcDbSpline
 70
8
 71
3
 72
8
 73
4
 74
0
 40
0
 40
0
 40
0
 40
0
 40
1
 40
1
 40
1
 40
1
 10
223.068724
 20
165.904231
 30
0.0
 10
223.068724
 20
165.333737
 30
0.0
 10
222.764379
 20
164.806608
 30
0.0
 10
222.270336
 20
164.521360
 30
0.0
  0
SPLINE
  5
124
100
AcDbEntity
  8
0
 62
7
100
AcDbSpline
 70
8
 71
3
 72
8
 73
4
 74
0
 40
0
 40
0
 40
0
 40
0
 40
1
 40
1
 40
1
 40
1
 10
222.270336
 20
164.521360
 30
0.0
 10
221.776293
 20
164.236139
 30
0.0
 10
221.167605
 20
164.236139
 30
0.0
 10
220.673560
 20
164.521360
 30
0.0
  0
SPLINE
  5
125
100
AcDbEntity
  8
0
 62
7
100
AcDbSpline
 70
8
 71
3
 72
8
 73
4
 74
0
 40
0
 40
0
 40
0
 40
0
 40
1
 40
1
 40
1
 40
1
 10
220.673560
 20
164.521360
 30
0.0
 10
220.179519
 20
164.806608
 30
0.0
 10
219.875174
 20
165.333737
 30
0.0
 10
219.875174
 20
165.904231
 30
0.0
  0
SPLINE
  5
126
100
AcDbEntity
  8
0
 62
7
100
AcDbSpline
 70
8
 71
3
 72
8
 73
4
 74
0
 40
0
 40
0
 40
0
 40
0
 40
1
 40
1
 40
1
 40
1
 10
219.875174
 20
165.904231
 30
0.0
 10
219.875174
 20
166.474700
 30
0.0
 10
220.179519
 20
167.001829
 30
0.0
 10
220.673560
 20
167.287076
 30
0.0
  0
SPLINE
  5
127
100
AcDbEntity
  8
0
 62
7
100
AcDbSpline
 70
8
 71
3
 72
8
 73
4
 74
0
 40
0
 40
0
 40
0
 40
0
 40
1
 40
1
 40
1
 40
1
 10
220.673560
 20
167.287076
 30
0.0
 10
221.167605
 20
167.572297
 30
0.0
 10
221.776293
 20
167.572297
 30
0.0
 10
222.270336
 20
167.287076
 30
0.0
  0
SPLINE
  5
128
100
AcDbEntity
  8
0
 62
7
100
AcDbSpline
 70
8
 71
3
 72
8
 73
4
 74
0
 40
0
 40
0
 40
0
 40
0
 40
1
 40
1
 40
1
 40
1
 10
222.270336
 20
167.287076
 30
0.0
 10
222.764379
 20
167.001829
 30
0.0
 10
223.068724
 20
166.474700
 30
0.0
 10
223.068724
 20
165.904231
 30
0.0
  0
SPLINE
  5
129
100
AcDbEntity
  8
0
 62
7
100
AcDbSpline
 70
8
 71
3
 72
8
 73
4
 74
0
 40
0
 40
0
 40
0
 40
0
 40
1
 40
1
 40
1
 40
1
 10
114.909727
 20
165.904231
 30
0.0
 10
114.909727
 20
165.333737
 30
0.0
 10
114.605382
 20
164.806608
 30
0.0
 10
114.111339
 20
164.521360
 30
0.0
  0
SPLINE
  5
12a
100
AcDbEntity
  8
0
 62
7
100
AcDbSpline
 70
8
 71
3
 72
8
 73
4
 74
0
 40
0
 40
0
 40
0
 40
0
 40
1
 40
1
 40
1
 40
1
 10
114.111339
 20
164.521360
 30
0.0
 10
113.617296
 20
164.236139
 30
0.0
 10
113.008608
 20
164.236139
 30
0.0
 10
112.514563
 20
164.521360
 30
0.0
  0
SPLINE
  5
12b
100
AcDbEntity
  8
0
 62
7
100
AcDbSpline
 70
8
 71
3
 72
8
 73
4
 74
0
 40
0
 40
0
 40
0
 40
0
 40
1
 40
1
 40
1
 40
1
 10
112.514563
 20
164.521360
 30
0.0
 10
112.020522
 20
164.806608
 30
0.0
 10
111.716177
 20
165.333737
 30
0.0
 10
111.716177
 20
165.904231
 30
0.0
  0
SPLINE
  5
12c
100
AcDbEntity
  8
0
 62
7
100
AcDbSpline
 70
8
 71
3
 72
8
 73
4
 74
0
 40
0
 40
0
 40
0
 40
0
 40
1
 40
1
 40
1
 40
1
 10
111.716177
 20
165.904231
 30
0.0
 10
111.716177
 20
166.474700
 30
0.0
 10
112.020522
 20
167.001829
 30
0.0
 10
112.514563
 20
167.287076
 30
0.0
  0
SPLINE
  5
12d
100
AcDbEntity
  8
0
 62
7
100
AcDbSpline
 70
8
 71
3
 72
8
 73
4
 74
0
 40
0
 40
0
 40
0
 40
0
 40
1
 40
1
 40
1
 40
1
 10
112.514563
 20
167.287076
 30
0.0
 10
113.008608
 20
167.572297
 30
0.0
 10
113.617296
 20
167.572297
 30
0.0
 10
114.111339
 20
167.287076
 30
0.0
  0
SPLINE
  5
12e
100
AcDbEntity
  8
0
 62
7
100
AcDbSpline
 70
8
 71
3
 72
8
 73
4
 74
0
 40
0
 40
0
 40
0
 40
0
 40
1
 40
1
 40
1
 40
1
 10
114.111339
 20
167.287076
 30
0.0
 10
114.605382
 20
167.001829
 30
0.0
 10
114.909727
 20
166.474700
 30
0.0
 10
114.909727
 20
165.904231
 30
0.0
  0
SPLINE
  5
12f
100
AcDbEntity
  8
0
 62
7
100
AcDbSpline
 70
8
 71
3
 72
8
 73
4
 74
0
 40
0
 40
0
 40
0
 40
0
 40
1
 40
1
 40
1
 40
1
 10
223.068724
 20
280.754220
 30
0.0
 10
223.068724
 20
280.183746
 30
0.0
 10
222.764379
 20
279.656609
 30
0.0
 10
222.270336
 20
279.371372
 30
0.0
  0
SPLINE
  5
130
100
AcDbEntity
  8
0
 62
7
100
AcDbSpline
 70
8
 71
3
 72
8
 73
4
 74
0
 40
0
 40
0
 40
0
 40
0
 40
1
 40
1
 40
1
 40
1
 10
222.270336
 20
279.371372
 30
0.0
 10
221.776293
 20
279.086136
 30
0.0
 10
221.167605
 20
279.086136
 30
0.0
 10
220.673560
 20
279.371372
 30
0.0
  0
SPLINE
  5
131
100
AcDbEntity
  8
0
 62
7
100
AcDbSpline
 70
8
 71
3
 72
8
 73
4
 74
0
 40
0
 40
0
 40
0
 40
0
 40
1
 40
1
 40
1
 40
1
 10
220.673560
 20
279.371372
 30
0.0
 10
220.179519
 20
279.656609
 30
0.0
 10
219.875174
 20
280.183746
 30
0.0
 10
219.875174
 20
280.754220
 30
0.0
  0
SPLINE
  5
132
100
AcDbEntity
  8
0
 62
7
100
AcDbSpline
 70
8
 71
3
 72
8
 73
4
 74
0
 40
0
 40
0
 40
0
 40
0
 40
1
 40
1
 40
1
 40
1
 10
219.875174
 20
280.754220
 30
0.0
 10
219.875174
 20
281.324691
 30
0.0
 10
220.179519
 20
281.851831
 30
0.0
 10
220.673560
 20
282.137067
 30
0.0
  0
SPLINE
  5
133
100
AcDbEntity
  8
0
 62
7
100
AcDbSpline
 70
8
 71
3
 72
8
 73
4
 74
0
 40
0
 40
0
 40
0
 40
0
 40
1
 40
1
 40
1
 40
1
 10
220.673560
 20
282.137067
 30
0.0
 10
221.167605
 20
282.422304
 30
0.0
 10
221.776293
 20
282.422304
 30
0.0
 10
222.270336
 20
282.137067
 30
0.0
  0
SPLINE
  5
134
100
AcDbEntity
  8
0
 62
7
100
AcDbSpline
 70
8
 71
3
 72
8
 73
4
 74
0
 40
0
 40
0
 40
0
 40
0
 40
1
 40
1
 40
1
 40
1
 10
222.270336
 20
282.137067
 30
0.0
 10
222.764379
 20
281.851831
 30
0.0
 10
223.068724
 20
281.324691
 30
0.0
 10
223.068724
 20
280.754220
 30
0.0
  0
SPLINE
  5
135
100
AcDbEntity
  8
0
 62
7
100
AcDbSpline
 70
8
 71
3
 72
8
 73
4
 74
0
 40
0
 40
0
 40
0
 40
0
 40
1
 40
1
 40
1
 40
1
 10
114.909727
 20
280.754220
 30
0.0
 10
114.909727
 20
280.183746
 30
0.0
 10
114.605382
 20
279.656609
 30
0.0
 10
114.111339
 20
279.371372
 30
0.0
  0
SPLINE
  5
136
100
AcDbEntity
  8
0
 62
7
100
AcDbSpline
 70
8
 71
3
 72
8
 73
4
 74
0
 40
0
 40
0
 40
0
 40
0
 40
1
 40
1
 40
1
 40
1
 10
114.111339
 20
279.371372
 30
0.0
 10
113.617296
 20
279.086136
 30
0.0
 10
113.008608
 20
279.086136
 30
0.0
 10
112.514563
 20
279.371372
 30
0.0
  0
SPLINE
  5
137
100
AcDbEntity
  8
0
 62
7
100
AcDbSpline
 70
8
 71
3
 72
8
 73
4
 74
0
 40
0
 40
0
 40
0
 40
0
 40
1
 40
1
 40
1
 40
1
 10
112.514563
 20
279.371372
 30
0.0
 10
112.020522
 20
279.656609
 30
0.0
 10
111.716177
 20
280.183746
 30
0.0
 10
111.716177
 20
280.754220
 30
0.0
  0
SPLINE
  5
138
100
AcDbEntity
  8
0
 62
7
100
AcDbSpline
 70
8
 71
3
 72
8
 73
4
 74
0
 40
0
 40
0
 40
0
 40
0
 40
1
 40
1
 40
1
 40
1
 10
111.716177
 20
280.754220
 30
0.0
 10
111.716177
 20
281.324691
 30
0.0
 10
112.020522
 20
281.851831
 30
0.0
 10
112.514563
 20
282.137067
 30
0.0
  0
SPLINE
  5
139
100
AcDbEntity
  8
0
 62
7
100
AcDbSpline
 70
8
 71
3
 72
8
 73
4
 74
0
 40
0
 40
0
 40
0
 40
0
 40
1
 40
1
 40
1
 40
1
 10
112.514563
 20
282.137067
 30
0.0
 10
113.008608
 20
282.422304
 30
0.0
 10
113.617296
 20
282.422304
 30
0.0
 10
114.111339
 20
282.137067
 30
0.0
  0
SPLINE
  5
13a
100
AcDbEntity
  8
0
 62
7
100
AcDbSpline
 70
8
 71
3
 72
8
 73
4
 74
0
 40
0
 40
0
 40
0
 40
0
 40
1
 40
1
 40
1
 40
1
 10
114.111339
 20
282.137067
 30
0.0
 10
114.605382
 20
281.851831
 30
0.0
 10
114.909727
 20
281.324691
 30
0.0
 10
114.909727
 20
280.754220
 30
0.0
  0
LWPOLYLINE
  5
13b
100
AcDbEntity
  8
0
 62
7
100
AcDbPolyline
 90
3
 70
0
 10
329.581986
 20
285.804629
 30
0.0
 10
73.033525
 20
285.804629
 30
0.0
 10
72.249276
 20
285.804629
 30
0.0
  0
LWPOLYLINE
  5
13c
100
AcDbEntity
  8
0
 62
7
100
AcDbPolyline
 90
4
 70
1
 10
265.137953
 20
187.497983
 30
0.0
 10
265.137953
 20
173.497985
 30
0.0
 10
279.137957
 20
173.497985
 30
0.0
 10
279.137957
 20
187.497983
 30
0.0
  0
LWPOLYLINE
  5
13d
100
AcDbEntity
  8
0
 62
7
100
AcDbPolyline
 90
4
 70
1
 10
284.187953
 20
187.497983
 30
0.0
 10
284.187953
 20
173.497985
 30
0.0
 10
298.187957
 20
173.497985
 30
0.0
 10
298.187957
 20
187.497983
 30
0.0
  0
LWPOLYLINE
  5
13e
100
AcDbEntity
  8
0
 62
7
100
AcDbPolyline
 90
4
 70
1
 10
303.237953
 20
187.497983
 30
0.0
 10
303.237953
 20
173.497985
 30
0.0
 10
317.237957
 20
173.497985
 30
0.0
 10
317.237957
 20
187.497983
 30
0.0
  0
LWPOLYLINE
  5
13f
100
AcDbEntity
  8
0
 62
7
100
AcDbPolyline
 90
4
 70
1
 10
15.106953
 20
192.260986
 30
0.0
 10
15.106953
 20
178.260985
 30
0.0
 10
29.106953
 20
178.260985
 30
0.0
 10
29.106953
 20
192.260986
 30
0.0
  0
LWPOLYLINE
  5
140
100
AcDbEntity
  8
0
 62
7
100
AcDbPolyline
 90
4
 70
1
 10
38.918952
 20
192.260986
 30
0.0
 10
38.918952
 20
178.260985
 30
0.0
 10
52.918953
 20
178.260985
 30
0.0
 10
52.918953
 20
192.260986
 30
0.0
  0
LWPOLYLINE
  5
141
100
AcDbEntity
  8
0
 62
7
100
AcDbPolyline
 90
4
 70
1
 10
62.731952
 20
192.260986
 30
0.0
 10
62.731952
 20
178.260985
 30
0.0
 10
76.731950
 20
178.260985
 30
0.0
 10
76.731950
 20
192.260986
 30
0.0
  0
LWPOLYLINE
  5
142
100
AcDbEntity
  8
0
 62
7
100
AcDbPolyline
 90
4
 70
1
 10
203.225945
 20
192.260986
 30
0.0
 10
203.225945
 20
178.260985
 30
0.0
 10
217.225943
 20
178.260985
 30
0.0
 10
217.225943
 20
192.260983
 30
0.0
  0
LWPOLYLINE
  5
143
100
AcDbEntity
  8
0
 62
7
100
AcDbPolyline
 90
4
 70
1
 10
222.275945
 20
192.260983
 30
0.0
 10
222.275945
 20
178.260985
 30
0.0
 10
236.275944
 20
178.260985
 30
0.0
 10
236.275944
 20
192.260983
 30
0.0
  0
LWPOLYLINE
  5
144
100
AcDbEntity
  8
0
 62
7
100
AcDbPolyline
 90
4
 70
1
 10
241.325942
 20
192.260983
 30
0.0
 10
241.325942
 20
178.260985
 30
0.0
 10
255.325943
 20
178.260985
 30
0.0
 10
255.325943
 20
192.260983
 30
0.0
  0
LWPOLYLINE
  5
145
100
AcDbEntity
  8
0
 62
7
100
AcDbPolyline
 90
4
 70
1
 10
284.187953
 20
206.547983
 30
0.0
 10
284.187953
 20
192.547985
 30
0.0
 10
298.187957
 20
192.547985
 30
0.0
 10
298.187957
 20
206.547983
 30
0.0
  0
LWPOLYLINE
  5
146
100
AcDbEntity
  8
0
 62
7
100
AcDbPolyline
 90
36
 70
1
 10
16.356953
 20
203.810985
 30
0.0
 10
16.356953
 20
197.540985
 30
0.0
 10
18.081952
 20
197.540985
 30
0.0
 10
18.081952
 20
196.340985
 30
0.0
 10
21.381952
 20
196.340985
 30
0.0
 10
21.381952
 20
197.540985
 30
0.0
 10
23.106952
 20
197.540985
 30
0.0
 10
23.106952
 20
202.010985
 30
0.0
 10
24.631952
 20
202.010985
 30
0.0
 10
24.631952
 20
197.310985
 30
0.0
 10
38.631953
 20
197.310985
 30
0.0
 10
38.631953
 20
202.010985
 30
0.0
 10
40.156953
 20
202.010985
 30
0.0
 10
40.156953
 20
197.540985
 30
0.0
 10
41.881952
 20
197.540985
 30
0.0
 10
41.881952
 20
196.340985
 30
0.0
 10
45.181951
 20
196.340985
 30
0.0
 10
45.181951
 20
197.540985
 30
0.0
 10
46.906953
 20
197.540985
 30
0.0
 10
46.906953
 20
203.810985
 30
0.0
 10
47.731953
 20
203.810985
 30
0.0
 10
47.731953
 20
206.610983
 30
0.0
 10
46.906953
 20
206.610983
 30
0.0
 10
46.906953
 20
209.840985
 30
0.0
 10
40.156953
 20
209.840985
 30
0.0
 10
40.156953
 20
206.610983
 30
0.0
 10
38.631953
 20
206.610983
 30
0.0
 10
38.631953
 20
211.310983
 30
0.0
 10
24.631952
 20
211.310983
 30
0.0
 10
24.631952
 20
206.610983
 30
0.0
 10
23.106952
 20
206.610983
 30
0.0
 10
23.106952
 20
209.840985
 30
0.0
 10
16.356953
 20
209.840985
 30
0.0
 10
16.356953
 20
206.610983
 30
0.0
 10
15.531953
 20
206.610983
 30
0.0
 10
15.531953
 20
203.810985
 30
0.0
  0
LWPOLYLINE
  5
147
100
AcDbEntity
  8
0
 62
7
100
AcDbPolyline
 90
4
 70
1
 10
55.587953
 20
211.310983
 30
0.0
 10
55.587953
 20
197.310985
 30
0.0
 10
69.587951
 20
197.310985
 30
0.0
 10
69.587951
 20
211.310983
 30
0.0
  0
LWPOLYLINE
  5
148
100
AcDbEntity
  8
0
 62
7
100
AcDbPolyline
 90
4
 70
1
 10
74.637950
 20
211.310983
 30
0.0
 10
74.637950
 20
197.310985
 30
0.0
 10
88.637951
 20
197.310985
 30
0.0
 10
88.637951
 20
211.310983
 30
0.0
  0
LWPOLYLINE
  5
149
100
AcDbEntity
  8
0
 62
7
100
AcDbPolyline
 90
4
 70
1
 10
93.687950
 20
211.310983
 30
0.0
 10
93.687950
 20
197.310985
 30
0.0
 10
107.687949
 20
197.310985
 30
0.0
 10
107.687949
 20
211.310983
 30
0.0
  0
LWPOLYLINE
  5
14a
100
AcDbEntity
  8
0
 62
7
100
AcDbPolyline
 90
4
 70
1
 10
112.737950
 20
211.310983
 30
0.0
 10
112.737950
 20
197.310985
 30
0.0
 10
126.737949
 20
197.310985
 30
0.0
 10
126.737949
 20
211.310983
 30
0.0
  0
LWPOLYLINE
  5
14b
100
AcDbEntity
  8
0
 62
7
100
AcDbPolyline
 90
4
 70
1
 10
131.787948
 20
211.310983
 30
0.0
 10
131.787948
 20
197.310985
 30
0.0
 10
145.787949
 20
197.310985
 30
0.0
 10
145.787949
 20
211.310983
 30
0.0
  0
LWPOLYLINE
  5
14c
100
AcDbEntity
  8
0
 62
7
100
AcDbPolyline
 90
4
 70
1
 10
150.837948
 20
211.310983
 30
0.0
 10
150.837948
 20
197.310985
 30
0.0
 10
164.837946
 20
197.310985
 30
0.0
 10
164.837946
 20
211.310983
 30
0.0
  0
LWPOLYLINE
  5
14d
100
AcDbEntity
  8
0
 62
7
100
AcDbPolyline
 90
4
 70
1
 10
169.887948
 20
211.310983
 30
0.0
 10
169.887948
 20
197.310985
 30
0.0
 10
183.887946
 20
197.310985
 30
0.0
 10
183.887946
 20
211.310983
 30
0.0
  0
LWPOLYLINE
  5
14e
100
AcDbEntity
  8
0
 62
7
100
AcDbPolyline
 90
4
 70
1
 10
188.937945
 20
211.310983
 30
0.0
 10
188.937945
 20
197.310985
 30
0.0
 10
202.937946
 20
197.310985
 30
0.0
 10
202.937946
 20
211.310983
 30
0.0
  0
LWPOLYLINE
  5
14f
100
AcDbEntity
  8
0
 62
7
100
AcDbPolyline
 90
4
 70
1
 10
207.987945
 20
211.310983
 30
0.0
 10
207.987945
 20
197.310985
 30
0.0
 10
221.987943
 20
197.310985
 30
0.0
 10
221.987943
 20
211.310983
 30
0.0
  0
LWPOLYLINE
  5
150
100
AcDbEntity
  8
0
 62
7
100
AcDbPolyline
 90
4
 70
1
 10
227.037945
 20
211.310983
 30
0.0
 10
227.037945
 20
197.310985
 30
0.0
 10
241.037943
 20
197.310985
 30
0.0
 10
241.037943
 20
211.310983
 30
0.0
  0
LWPOLYLINE
  5
151
100
AcDbEntity
  8
0
 62
7
100
AcDbPolyline
 90
4
 70
1
 10
253.231944
 20
211.310983
 30
0.0
 10
253.231944
 20
197.310985
 30
0.0
 10
267.231945
 20
197.310985
 30
0.0
 10
267.231945
 20
211.310983
 30
0.0
  0
LWPOLYLINE
  5
152
100
AcDbEntity
  8
0
 62
7
100
AcDbPolyline
 90
4
 70
1
 10
308.000956
 20
211.310983
 30
0.0
 10
308.000956
 20
197.310985
 30
0.0
 10
322.000959
 20
197.310985
 30
0.0
 10
322.000959
 20
211.310983
 30
0.0
  0
LWPOLYLINE
  5
153
100
AcDbEntity
  8
0
 62
7
100
AcDbPolyline
 90
36
 70
1
 10
259.243944
 20
222.860985
 30
0.0
 10
259.243944
 20
216.590985
 30
0.0
 10
260.968942
 20
216.590985
 30
0.0
 10
260.968942
 20
215.390983
 30
0.0
 10
264.268945
 20
215.390983
 30
0.0
 10
264.268945
 20
216.590985
 30
0.0
 10
265.993959
 20
216.590985
 30
0.0
 10
265.993959
 20
221.060985
 30
0.0
 10
267.518938
 20
221.060985
 30
0.0
 10
267.518938
 20
216.360985
 30
0.0
 10
281.518942
 20
216.360985
 30
0.0
 10
281.518942
 20
221.060985
 30
0.0
 10
283.043947
 20
221.060985
 30
0.0
 10
283.043947
 20
216.590985
 30
0.0
 10
284.768951
 20
216.590985
 30
0.0
 10
284.768951
 20
215.390983
 30
0.0
 10
288.068941
 20
215.390983
 30
0.0
 10
288.068941
 20
216.590985
 30
0.0
 10
289.793945
 20
216.590985
 30
0.0
 10
289.793945
 20
222.860985
 30
0.0
 10
290.618942
 20
222.860985
 30
0.0
 10
290.618942
 20
225.660983
 30
0.0
 10
289.793945
 20
225.660983
 30
0.0
 10
289.793945
 20
228.890982
 30
0.0
 10
283.043948
 20
228.890982
 30
0.0
 10
283.043948
 20
225.660983
 30
0.0
 10
281.518942
 20
225.660983
 30
0.0
 10
281.518942
 20
230.360983
 30
0.0
 10
267.518938
 20
230.360983
 30
0.0
 10
267.518938
 20
225.660983
 30
0.0
 10
265.993959
 20
225.660983
 30
0.0
 10
265.993959
 20
228.890982
 30
0.0
 10
259.243944
 20
228.890982
 30
0.0
 10
259.243944
 20
225.660983
 30
0.0
 10
258.418944
 20
225.660983
 30
0.0
 10
258.418944
 20
222.860985
 30
0.0
  0
LWPOLYLINE
  5
154
100
AcDbEntity
  8
0
 62
7
100
AcDbPolyline
 90
4
 70
1
 10
19.868952
 20
230.360983
 30
0.0
 10
19.868952
 20
216.360985
 30
0.0
 10
33.868953
 20
216.360985
 30
0.0
 10
33.868953
 20
230.360983
 30
0.0
  0
LWPOLYLINE
  5
155
100
AcDbEntity
  8
0
 62
7
100
AcDbPolyline
 90
4
 70
1
 10
46.062953
 20
230.360983
 30
0.0
 10
46.062953
 20
216.360985
 30
0.0
 10
60.061951
 20
216.360985
 30
0.0
 10
60.061951
 20
230.360983
 30
0.0
  0
LWPOLYLINE
  5
156
100
AcDbEntity
  8
0
 62
7
100
AcDbPolyline
 90
4
 70
1
 10
65.112953
 20
230.360983
 30
0.0
 10
65.112953
 20
216.360985
 30
0.0
 10
79.112951
 20
216.360985
 30
0.0
 10
79.112951
 20
230.360983
 30
0.0
  0
LWPOLYLINE
  5
157
100
AcDbEntity
  8
0
 62
7
100
AcDbPolyline
 90
4
 70
1
 10
84.162950
 20
230.360983
 30
0.0
 10
84.162950
 20
216.360985
 30
0.0
 10
98.162949
 20
216.360985
 30
0.0
 10
98.162949
 20
230.360983
 30
0.0
  0
LWPOLYLINE
  5
158
100
AcDbEntity
  8
0
 62
7
100
AcDbPolyline
 90
4
 70
1
 10
103.212950
 20
230.360983
 30
0.0
 10
103.212950
 20
216.360985
 30
0.0
 10
117.212949
 20
216.360985
 30
0.0
 10
117.212949
 20
230.360983
 30
0.0
  0
LWPOLYLINE
  5
159
100
AcDbEntity
  8
0
 62
7
100
AcDbPolyline
 90
4
 70
1
 10
122.262948
 20
230.360983
 30
0.0
 10
122.262948
 20
216.360985
 30
0.0
 10
136.262949
 20
216.360985
 30
0.0
 10
136.262949
 20
230.360983
 30
0.0
  0
LWPOLYLINE
  5
15a
100
AcDbEntity
  8
0
 62
7
100
AcDbPolyline
 90
4
 70
1
 10
141.312948
 20
230.360983
 30
0.0
 10
141.312948
 20
216.360985
 30
0.0
 10
155.312949
 20
216.360985
 30
0.0
 10
155.312949
 20
230.360983
 30
0.0
  0
LWPOLYLINE
  5
15b
100
AcDbEntity
  8
0
 62
7
100
AcDbPolyline
 90
4
 70
1
 10
160.362948
 20
230.360983
 30
0.0
 10
160.362948
 20
216.360985
 30
0.0
 10
174.362946
 20
216.360985
 30
0.0
 10
174.362946
 20
230.360983
 30
0.0
  0
LWPOLYLINE
  5
15c
100
AcDbEntity
  8
0
 62
7
100
AcDbPolyline
 90
4
 70
1
 10
179.412948
 20
230.360983
 30
0.0
 10
179.412948
 20
216.360985
 30
0.0
 10
193.412946
 20
216.360985
 30
0.0
 10
193.412946
 20
230.360983
 30
0.0
  0
LWPOLYLINE
  5
15d
100
AcDbEntity
  8
0
 62
7
100
AcDbPolyline
 90
4
 70
1
 10
198.462945
 20
230.360983
 30
0.0
 10
198.462945
 20
216.360985
 30
0.0
 10
212.462943
 20
216.360985
 30
0.0
 10
212.462943
 20
230.360983
 30
0.0
  0
LWPOLYLINE
  5
15e
100
AcDbEntity
  8
0
 62
7
100
AcDbPolyline
 90
4
 70
1
 10
217.512945
 20
230.360983
 30
0.0
 10
217.512945
 20
216.360985
 30
0.0
 10
231.512943
 20
216.360985
 30
0.0
 10
231.512943
 20
230.360983
 30
0.0
  0
LWPOLYLINE
  5
15f
100
AcDbEntity
  8
0
 62
7
100
AcDbPolyline
 90
4
 70
1
 10
236.562945
 20
230.360983
 30
0.0
 10
236.562945
 20
216.360985
 30
0.0
 10
250.562943
 20
216.360985
 30
0.0
 10
250.562943
 20
230.360983
 30
0.0
  0
LWPOLYLINE
  5
160
100
AcDbEntity
  8
0
 62
7
100
AcDbPolyline
 90
4
 70
1
 10
308.000956
 20
230.360983
 30
0.0
 10
308.000956
 20
216.360985
 30
0.0
 10
322.000959
 20
216.360985
 30
0.0
 10
322.000959
 20
230.360983
 30
0.0
  0
LWPOLYLINE
  5
161
100
AcDbEntity
  8
0
 62
7
100
AcDbPolyline
 90
4
 70
1
 10
17.487953
 20
249.410981
 30
0.0
 10
17.487953
 20
235.410982
 30
0.0
 10
31.487954
 20
235.410982
 30
0.0
 10
31.487954
 20
249.410981
 30
0.0
  0
LWPOLYLINE
  5
162
100
AcDbEntity
  8
0
 62
7
100
AcDbPolyline
 90
4
 70
1
 10
41.300953
 20
249.410981
 30
0.0
 10
41.300953
 20
235.410982
 30
0.0
 10
55.300951
 20
235.410982
 30
0.0
 10
55.300951
 20
249.410981
 30
0.0
  0
LWPOLYLINE
  5
163
100
AcDbEntity
  8
0
 62
7
100
AcDbPolyline
 90
4
 70
1
 10
60.350953
 20
249.410981
 30
0.0
 10
60.350953
 20
235.410982
 30
0.0
 10
74.350951
 20
235.410982
 30
0.0
 10
74.350951
 20
249.410981
 30
0.0
  0
LWPOLYLINE
  5
164
100
AcDbEntity
  8
0
 62
7
100
AcDbPolyline
 90
4
 70
1
 10
79.400950
 20
249.410981
 30
0.0
 10
79.400950
 20
235.410982
 30
0.0
 10
93.400949
 20
235.410982
 30
0.0
 10
93.400949
 20
249.410981
 30
0.0
  0
LWPOLYLINE
  5
165
100
AcDbEntity
  8
0
 62
7
100
AcDbPolyline
 90
4
 70
1
 10
98.450950
 20
249.410981
 30
0.0
 10
98.450950
 20
235.410982
 30
0.0
 10
112.450949
 20
235.410982
 30
0.0
 10
112.450949
 20
249.410981
 30
0.0
  0
LWPOLYLINE
  5
166
100
AcDbEntity
  8
0
 62
7
100
AcDbPolyline
 90
4
 70
1
 10
117.500948
 20
249.410981
 30
0.0
 10
117.500948
 20
235.410982
 30
0.0
 10
131.500949
 20
235.410982
 30
0.0
 10
131.500949
 20
249.410981
 30
0.0
  0
LWPOLYLINE
  5
167
100
AcDbEntity
  8
0
 62
7
100
AcDbPolyline
 90
4
 70
1
 10
136.550948
 20
249.410981
 30
0.0
 10
136.550948
 20
235.410982
 30
0.0
 10
150.550949
 20
235.410982
 30
0.0
 10
150.550949
 20
249.410981
 30
0.0
  0
LWPOLYLINE
  5
168
100
AcDbEntity
  8
0
 62
7
100
AcDbPolyline
 90
4
 70
1
 10
155.600948
 20
249.410981
 30
0.0
 10
155.600948
 20
235.410982
 30
0.0
 10
169.600946
 20
235.410982
 30
0.0
 10
169.600946
 20
249.410981
 30
0.0
  0
LWPOLYLINE
  5
169
100
AcDbEntity
  8
0
 62
7
100
AcDbPolyline
 90
4
 70
1
 10
174.650948
 20
249.410981
 30
0.0
 10
174.650948
 20
235.410982
 30
0.0
 10
188.650946
 20
235.410982
 30
0.0
 10
188.650946
 20
249.410981
 30
0.0
  0
LWPOLYLINE
  5
16a
100
AcDbEntity
  8
0
 62
7
100
AcDbPolyline
 90
4
 70
1
 10
193.700945
 20
249.410981
 30
0.0
 10
193.700945
 20
235.410982
 30
0.0
 10
207.700946
 20
235.410982
 30
0.0
 10
207.700946
 20
249.410981
 30
0.0
  0
LWPOLYLINE
  5
16b
100
AcDbEntity
  8
0
 62
7
100
AcDbPolyline
 90
4
 70
1
 10
212.750945
 20
249.410981
 30
0.0
 10
212.750945
 20
235.410982
 30
0.0
 10
226.750944
 20
235.410982
 30
0.0
 10
226.750944
 20
249.410981
 30
0.0
  0
LWPOLYLINE
  5
16c
100
AcDbEntity
  8
0
 62
7
100
AcDbPolyline
 90
4
 70
1
 10
231.800945
 20
249.410981
 30
0.0
 10
231.800945
 20
235.410982
 30
0.0
 10
245.800943
 20
235.410982
 30
0.0
 10
245.800943
 20
249.410981
 30
0.0
  0
LWPOLYLINE
  5
16d
100
AcDbEntity
  8
0
 62
7
100
AcDbPolyline
 90
4
 70
1
 10
250.850942
 20
249.410981
 30
0.0
 10
250.850942
 20
235.410982
 30
0.0
 10
264.850959
 20
235.410982
 30
0.0
 10
264.850959
 20
249.410981
 30
0.0
  0
LWPOLYLINE
  5
16e
100
AcDbEntity
  8
0
 62
7
100
AcDbPolyline
 90
4
 70
1
 10
274.662953
 20
249.410981
 30
0.0
 10
274.662953
 20
235.410982
 30
0.0
 10
288.662957
 20
235.410982
 30
0.0
 10
288.662957
 20
249.410981
 30
0.0
  0
LWPOLYLINE
  5
16f
100
AcDbEntity
  8
0
 62
7
100
AcDbPolyline
 90
4
 70
1
 10
308.000956
 20
249.410981
 30
0.0
 10
308.000956
 20
235.410982
 30
0.0
 10
322.000959
 20
235.410982
 30
0.0
 10
322.000959
 20
249.410981
 30
0.0
  0
LWPOLYLINE
  5
170
100
AcDbEntity
  8
0
 62
7
100
AcDbPolyline
 90
36
 70
1
 10
261.625943
 20
260.960982
 30
0.0
 10
261.625943
 20
254.690982
 30
0.0
 10
263.350944
 20
254.690982
 30
0.0
 10
263.350944
 20
253.490983
 30
0.0
 10
266.650946
 20
253.490983
 30
0.0
 10
266.650946
 20
254.690982
 30
0.0
 10
268.375950
 20
254.690982
 30
0.0
 10
268.375950
 20
259.160982
 30
0.0
 10
269.900956
 20
259.160982
 30
0.0
 10
269.900956
 20
254.460982
 30
0.0
 10
283.900959
 20
254.460982
 30
0.0
 10
283.900959
 20
259.160982
 30
0.0
 10
285.425938
 20
259.160982
 30
0.0
 10
285.425938
 20
254.690982
 30
0.0
 10
287.150942
 20
254.690982
 30
0.0
 10
287.150942
 20
253.490983
 30
0.0
 10
290.450958
 20
253.490983
 30
0.0
 10
290.450958
 20
254.690982
 30
0.0
 10
292.175962
 20
254.690982
 30
0.0
 10
292.175962
 20
260.960982
 30
0.0
 10
293.000959
 20
260.960982
 30
0.0
 10
293.000959
 20
263.760981
 30
0.0
 10
292.175962
 20
263.760981
 30
0.0
 10
292.175962
 20
266.990982
 30
0.0
 10
285.425938
 20
266.990982
 30
0.0
 10
285.425938
 20
263.760981
 30
0.0
 10
283.900959
 20
263.760981
 30
0.0
 10
283.900959
 20
268.460981
 30
0.0
 10
269.900956
 20
268.460981
 30
0.0
 10
269.900956
 20
263.760981
 30
0.0
 10
268.375950
 20
263.760981
 30
0.0
 10
268.375950
 20
266.990982
 30
0.0
 10
261.625943
 20
266.990982
 30
0.0
 10
261.625943
 20
263.760981
 30
0.0
 10
260.800943
 20
263.760981
 30
0.0
 10
260.800943
 20
260.960982
 30
0.0
  0
LWPOLYLINE
  5
171
100
AcDbEntity
  8
0
 62
7
100
AcDbPolyline
 90
4
 70
1
 10
12.725953
 20
268.460981
 30
0.0
 10
12.725953
 20
254.460982
 30
0.0
 10
26.725951
 20
254.460982
 30
0.0
 10
26.725951
 20
268.460981
 30
0.0
  0
LWPOLYLINE
  5
172
100
AcDbEntity
  8
0
 62
7
100
AcDbPolyline
 90
4
 70
1
 10
31.775953
 20
268.460981
 30
0.0
 10
31.775953
 20
254.460982
 30
0.0
 10
45.775951
 20
254.460982
 30
0.0
 10
45.775951
 20
268.460981
 30
0.0
  0
LWPOLYLINE
  5
173
100
AcDbEntity
  8
0
 62
7
100
AcDbPolyline
 90
4
 70
1
 10
50.825953
 20
268.460981
 30
0.0
 10
50.825953
 20
254.460982
 30
0.0
 10
64.825951
 20
254.460982
 30
0.0
 10
64.825951
 20
268.460981
 30
0.0
  0
LWPOLYLINE
  5
174
100
AcDbEntity
  8
0
 62
7
100
AcDbPolyline
 90
4
 70
1
 10
69.875950
 20
268.460981
 30
0.0
 10
69.875950
 20
254.460982
 30
0.0
 10
83.875951
 20
254.460982
 30
0.0
 10
83.875951
 20
268.460981
 30
0.0
  0
LWPOLYLINE
  5
175
100
AcDbEntity
  8
0
 62
7
100
AcDbPolyline
 90
4
 70
1
 10
88.925950
 20
268.460981
 30
0.0
 10
88.925950
 20
254.460982
 30
0.0
 10
102.925949
 20
254.460982
 30
0.0
 10
102.925949
 20
268.460981
 30
0.0
  0
LWPOLYLINE
  5
176
100
AcDbEntity
  8
0
 62
7
100
AcDbPolyline
 90
4
 70
1
 10
107.974950
 20
268.460981
 30
0.0
 10
107.974950
 20
254.460982
 30
0.0
 10
121.974949
 20
254.460982
 30
0.0
 10
121.974949
 20
268.460981
 30
0.0
  0
LWPOLYLINE
  5
177
100
AcDbEntity
  8
0
 62
7
100
AcDbPolyline
 90
4
 70
1
 10
127.025948
 20
268.460981
 30
0.0
 10
127.025948
 20
254.460982
 30
0.0
 10
141.025949
 20
254.460982
 30
0.0
 10
141.025949
 20
268.460981
 30
0.0
  0
LWPOLYLINE
  5
178
100
AcDbEntity
  8
0
 62
7
100
AcDbPolyline
 90
4
 70
1
 10
146.075948
 20
268.460981
 30
0.0
 10
146.075948
 20
254.460982
 30
0.0
 10
160.075949
 20
254.460982
 30
0.0
 10
160.075949
 20
268.460981
 30
0.0
  0
LWPOLYLINE
  5
179
100
AcDbEntity
  8
0
 62
7
100
AcDbPolyline
 90
4
 70
1
 10
165.125948
 20
268.460981
 30
0.0
 10
165.125948
 20
254.460982
 30
0.0
 10
179.125946
 20
254.460982
 30
0.0
 10
179.125946
 20
268.460981
 30
0.0
  0
LWPOLYLINE
  5
17a
100
AcDbEntity
  8
0
 62
7
100
AcDbPolyline
 90
4
 70
1
 10
184.175948
 20
268.460981
 30
0.0
 10
184.175948
 20
254.460982
 30
0.0
 10
198.175946
 20
254.460982
 30
0.0
 10
198.175946
 20
268.460981
 30
0.0
  0
LWPOLYLINE
  5
17b
100
AcDbEntity
  8
0
 62
7
100
AcDbPolyline
 90
4
 70
1
 10
203.225945
 20
268.460981
 30
0.0
 10
203.225945
 20
254.460982
 30
0.0
 10
217.225943
 20
254.460982
 30
0.0
 10
217.225943
 20
268.460981
 30
0.0
  0
LWPOLYLINE
  5
17c
100
AcDbEntity
  8
0
 62
7
100
AcDbPolyline
 90
4
 70
1
 10
222.275945
 20
268.460981
 30
0.0
 10
222.275945
 20
254.460982
 30
0.0
 10
236.275944
 20
254.460982
 30
0.0
 10
236.275944
 20
268.460981
 30
0.0
  0
LWPOLYLINE
  5
17d
100
AcDbEntity
  8
0
 62
7
100
AcDbPolyline
 90
4
 70
1
 10
241.325942
 20
268.460981
 30
0.0
 10
241.325942
 20
254.460982
 30
0.0
 10
255.325943
 20
254.460982
 30
0.0
 10
255.325943
 20
268.460981
 30
0.0
  0
LWPOLYLINE
  5
17e
100
AcDbEntity
  8
0
 62
7
100
AcDbPolyline
 90
4
 70
1
 10
307.940842
 20
274.327811
 30
0.0
 10
321.841072
 20
274.327811
 30
0.0
 10
321.841072
 20
258.327606
 30
0.0
 10
307.940842
 20
258.327606
 30
0.0
  0
LWPOLYLINE
  5
17f
100
AcDbEntity
  8
0
 62
7
100
AcDbPolyline
 90
4
 70
1
 10
11.453377
 20
289.753789
 30
0.0
 10
51.352521
 20
289.753789
 30
0.0
 10
51.352521
 20
275.654649
 30
0.0
 10
11.453377
 20
275.654649
 30
0.0
  0
LWPOLYLINE
  5
180
100
AcDbEntity
  8
0
 62
7
100
AcDbPolyline
 90
36
 70
1
 10
194.543947
 20
185.760986
 30
0.0
 10
194.543947
 20
192.030986
 30
0.0
 10
192.818946
 20
192.030986
 30
0.0
 10
192.818946
 20
193.230986
 30
0.0
 10
189.518946
 20
193.230986
 30
0.0
 10
189.518946
 20
192.030986
 30
0.0
 10
187.793948
 20
192.030986
 30
0.0
 10
187.793948
 20
187.560986
 30
0.0
 10
148.168947
 20
187.560986
 30
0.0
 10
148.168947
 20
192.260986
 30
0.0
 10
134.168949
 20
192.260986
 30
0.0
 10
134.168949
 20
187.560986
 30
0.0
 10
94.543949
 20
187.560986
 30
0.0
 10
94.543949
 20
192.030986
 30
0.0
 10
92.818950
 20
192.030986
 30
0.0
 10
92.818950
 20
193.230986
 30
0.0
 10
89.518950
 20
193.230986
 30
0.0
 10
89.518950
 20
192.030986
 30
0.0
 10
87.793949
 20
192.030986
 30
0.0
 10
87.793949
 20
185.760986
 30
0.0
 10
86.968949
 20
185.760986
 30
0.0
 10
86.968949
 20
182.960988
 30
0.0
 10
87.793949
 20
182.960988
 30
0.0
 10
87.793949
 20
179.730986
 30
0.0
 10
94.543949
 20
179.730986
 30
0.0
 10
94.543949
 20
182.960988
 30
0.0
 10
134.168949
 20
182.960988
 30
0.0
 10
134.168949
 20
178.260988
 30
0.0
 10
148.168947
 20
178.260988
 30
0.0
 10
148.168947
 20
182.960988
 30
0.0
 10
187.793948
 20
182.960988
 30
0.0
 10
187.793948
 20
179.730986
 30
0.0
 10
194.543947
 20
179.730986
 30
0.0
 10
194.543947
 20
182.960988
 30
0.0
 10
195.368947
 20
182.960988
 30
0.0
 10
195.368947
 20
185.760986
 30
0.0
  0
ENDSEC
  0
SECTION
  2
OBJECTS
  0
DICTIONARY
  5
C
330
0
100
AcDbDictionary
  3
ACAD_GROUP
350
D
  3
ACAD_MLINESTYLE
350
17
  0
DICTIONARY
  5
D
330
C
100
AcDbDictionary
  0
DICTIONARY
  5
1A
330
C
100
AcDbDictionary
  0
DICTIONARY
  5
17
330
C
100
AcDbDictionary
  3
STANDARD
350
18
  0
DICTIONARY
  5
19
330
C
100
AcDbDictionary
  0
ENDSEC
  0
EOF
